{
.appVersion = "3151";
.formatVersion = 3;
DisplayStrings = (
"adhesion
Hamburgfontsiv
ARROWROOT BARLEY CHERVIL DUMPLING ENDIVE FLAXSEED GARBANZO HIJIKI ISHTU JICAMA KALE LYCHEE MARJORAM NECTARINE OXTAIL PIZZA QUINOA ROQUEFORT SQUASH TOFU UPPUMA VANILLA WHEAT XERGIS YOGURT ZWEIBACK 0 1 2 3 4 5 6 7 8 9 ! ?",
"/sinFa.reph",
"ð‘‡¥",
"ð‘‡«",
"ð‘‡ª",
"/.notdef",
"à¶±",
"/sinB.virama aà¶š",
"à¶´",
"à·†",
"à·‚/sinSsI"
);
customParameters = (
{
name = glyphOrder;
value = (
sinA,
sinAa,
sinAe,
sinAae,
sinI,
sinIi,
sinU,
sinUu,
sinRVocalic,
sinRrVocalic,
sinLVocalic,
sinLlVocalic,
sinE,
sinEe,
sinAi,
sinO,
sinOo,
sinAu,
sinKa,
sinKha,
sinGa,
sinGha,
sinNga,
sinNnga,
sinCa,
sinCha,
sinJa,
sinJha,
sinNya,
sinJnya,
sinNyja,
sinTta,
sinTtha,
sinDda,
sinDdha,
sinNna,
sinNndda,
sinTa,
sinTha,
sinDa,
sinDha,
sinNa,
sinNda,
sinPa,
sinPha,
sinBa,
sinBha,
sinMa,
sinMba,
sinYa,
sinRa,
sinLa,
sinVa,
sinSha,
sinSsa,
sinSa,
sinHa,
sinLla,
sinFa,
sinPfa,
sinKSsa,
sinKVa,
sinTVa,
sinTTha,
sinNDa,
sinNDha,
sinNVa,
sinNTha,
sinGDha,
sinDVa,
sinDDha,
sinTtTtha,
sinNyCa,
sinMatraAa,
sinMatraAae,
sinMatraAe,
sinMatraAi,
sinMatraAu,
sinMatraE,
sinMatraEe,
sinMatraI,
sinMatraIi,
sinMatraLl,
sinMatraLs,
sinMatraO,
sinMatraOo,
sinMatraR,
sinMatraRr,
sinMatraU,
sinMatraUu,
sinVirama,
sinRakar,
sinReph,
sinYansaya,
sinAnusvara,
sinVisarga,
sinMatraAa.virama,
sinTouch,
sinK.virama,
sinKh.virama,
sinG.virama,
sinGh.virama,
sinNg.virama,
sinNng.virama,
sinC.virama,
sinCh.virama,
sinJ.virama,
sinJh.virama,
sinNy.virama,
sinJny.virama,
sinNyj.virama,
sinTt.virama,
sinTth.virama,
sinDd.virama,
sinDdh.virama,
sinNn.virama,
sinNndd.virama,
sinT.virama,
sinTh.virama,
sinD.virama,
sinDh.virama,
sinN.virama,
sinNd.virama,
sinP.virama,
sinPh.virama,
sinB.virama,
sinBh.virama,
sinM.virama,
sinMb.virama,
sinY.virama,
sinR.virama,
sinL.virama,
sinV.virama,
sinSh.virama,
sinSs.virama,
sinS.virama,
sinH.virama,
sinLl.virama,
sinF.virama,
sinPf.virama,
sinKSs.virama,
sinKV.virama,
sinTV.virama,
sinTTh.virama,

glyphs = (
{
glyphname = sinA;
lastChange = "2024-04-05 03:00:42 +0000";
layers = (
{
layerId = "51BB9282-3B82-4DF1-A67A-294D3E37D73A";
shapes = (
{
closed = 1;
nodes = (
(354,-12,o),
(445,-2,o),
(492,22,c),
(495,29,o),
(496,37,o),
(496,46,cs),
(496,62,o),
(492,80,o),
(487,93,c),
(415,38,o),
(354,25,o),
(297,25,cs),
(172,25,o),
(102,85,o),
(102,164,cs),
(102,230,o),
(152,294,o),
(231,294,cs),
(262,294,o),
(300,284,o),
(324,269,c),
(337,279,l),
(338,287,o),
(339,298,o),
(339,306,cs),
(339,404,o),
(271,475,o),
(181,475,cs),
(114,475,o),
(78,438,o),
(78,397,cs),
(78,361,o),
(102,344,o),
(119,343,c),
(130,390,o),
(173,423,o),
(219,423,cs),
(263,423,o),
(291,391,o),
(291,334,cs),
(291,306,o),
(285,300,o),
(283,297,c),
(315,328,l),
(290,331,o),
(270,333,o),
(249,333,cs),
(115,333,o),
(22,266,o),
(22,162,cs),
(22,44,o),
(145,-12,o),
(291,-12,cs)
);
},
{
closed = 1;
nodes = (
(424,-227,l),
(416,235,l),
(395,220,l),
(480,227,o),
(528,276,o),
(528,340,cs),
(528,406,o),
(477,427,o),
(425,471,c),
(408,464,l),
(395,447,o),
(372,408,o),
(372,369,cs),
(370,95,o),
(370,64,o),
(358,-227,c)
);
},
{
closed = 1;
nodes = (
(415,333,ls),
(415,371,o),
(414,388,o),
(426,430,c),
(465,398,o),
(478,370,o),
(478,335,cs),
(478,292,o),
(457,268,o),
(415,259,c)
);
}
);
width = 551;
}
);
unicode = 3461;
},
{
glyphname = sinI;
lastChange = "2024-04-05 03:00:42 +0000";
layers = (
{
layerId = "51BB9282-3B82-4DF1-A67A-294D3E37D73A";
shapes = (
{
closed = 1;
nodes = (
(526,-28,o),
(611,99,o),
(611,251,cs),
(611,411,o),
(486,480,o),
(355,480,cs),
(203,480,o),
(60,396,o),
(60,222,cs),
(60,136,o),
(118,42,o),
(253,42,cs),
(409,42,o),
(445,166,o),
(445,237,cs),
(445,309,o),
(394,341,o),
(344,341,cs),
(286,341,o),
(249,303,o),
(249,252,cs),
(249,213,o),
(272,180,o),
(331,180,cs),
(397,180,o),
(417,220,o),
(419,225,c),
(421,252,l),
(421,252,o),
(383,220,o),
(340,220,cs),
(306,220,o),
(281,237,o),
(281,253,cs),
(281,276,o),
(305,286,o),
(337,286,cs),
(371,286,o),
(415,266,o),
(415,224,cs),
(415,184,o),
(362,109,o),
(263,109,cs),
(163,109,o),
(97,163,o),
(97,233,cs),
(97,352,o),
(194,411,o),
(319,411,cs),
(506,411,o),
(574,324,o),
(574,235,cs),
(574,106,o),
(453,-12,o),
(219,-9,c),
(218,-31,o),
(226,-55,o),
(235,-76,c)
);
},
{
closed = 1;
nodes = (
(428,-253,o),
(483,-172,o),
(483,-133,cs),
(483,-79,o),
(432,-53,o),
(379,-53,cs),
(359,-53,o),
(339,-56,o),
(321,-58,c),
(232,-47,l),
(235,-76,l),
(385,-76,o),
(430,-101,o),
(430,-138,cs),
(430,-169,o),
(398,-190,o),
(331,-190,cs),
(264,-190,o),
(205,-167,o),
(197,-164,c),
(194,-172,o),
(190,-181,o),
(190,-199,cs),
(190,-211,o),
(193,-234,o),
(206,-249,c),
(229,-252,o),
(251,-255,o),
(272,-255,cs)
);
}
);
userData = {
com.typemytype.robofont.layerData = {
"Regular Nov 5 16, 14:31" = {
anchors = (
);
components = (
);
contours = (
{
points = (
{
segmentType = curve;
smooth = 0;
x = 275.133;
y = -320;
},
{
smooth = 0;
x = 493.49;
y = -351.212;
},
{
smooth = 0;
x = 638.41;
y = -272.795;
},
{
segmentType = curve;
smooth = 1;
x = 643.204;
y = -166;
},
{
smooth = 0;
x = 648.672;
y = -44.881;
},
{
smooth = 0;
x = 507.437;
y = -28;
},
{
segmentType = curve;
smooth = 0;
x = 507.437;
y = -28;
},
{
segmentType = line;
smooth = 0;
x = 368.432;
y = -19;
},
{
segmentType = line;
smooth = 0;
x = 363.55;
y = -74;
},
{
smooth = 0;
x = 491.874;
y = -73.686;
},
{
smooth = 0;
x = 543.527;
y = -89.077;
},
{
segmentType = curve;
smooth = 1;
x = 542.938;
y = -152;
},
{
smooth = 0;
x = 542.344;
y = -215.458;
},
{
smooth = 0;
x = 439.443;
y = -280.771;
},
{
segmentType = curve;
smooth = 0;
x = 263.326;
y = -240;
},
{
smooth = 0;
x = 252.43;
y = -267.338;
},
{
smooth = 0;
x = 267.87;
y = -310.09;
}
);
},
{
points = (
{
segmentType = curve;
smooth = 1;
x = 104.774;
y = 321;
},
{
smooth = 0;
x = 105;
y = 162;
},
{
smooth = 0;
x = 202.184;
y = 78.812;
},
{
segmentType = curve;
smooth = 1;
x = 338.563;
y = 78;
},
{
smooth = 0;
x = 496.363;
y = 77.06;
},
{
smooth = 0;
x = 575.313;
y = 169.413;
},
{
segmentType = curve;
smooth = 1;
x = 582.102;
y = 260;
},
{
smooth = 0;
x = 588.84;
y = 349.074;
},
{
smooth = 0;
x = 531.985;
y = 414.08;
},
{
segmentType = curve;
smooth = 1;
x = 462.226;
y = 415;
},
{
smooth = 0;
x = 388.605;
y = 416.035;
},
{
smooth = 0;
x = 335.713;
y = 367.065;
},
{
segmentType = curve;
smooth = 1;
x = 332.355;
y = 303;
},
{
smooth = 0;
x = 329.211;
y = 243;
},
{
smooth = 0;
x = 366.598;
y = 194.619;
},
{
segmentType = curve;
smooth = 1;
x = 445.643;
y = 194;
},
{
smooth = 0;
x = 532.394;
y = 193.32;
},
{
smooth = 0;
x = 559.25;
y = 263;
},
{
segmentType = curve;
smooth = 0;
x = 560.626;
y = 270;
},
{
segmentType = line;
smooth = 1;
x = 549.779;
y = 292;
},
{
smooth = 0;
x = 549.779;
y = 292;
},
{
smooth = 0;
x = 515.556;
y = 239;
},
{
segmentType = curve;
smooth = 1;
x = 460;
y = 239;
},
{
smooth = 0;
x = 415.796;
y = 239;
},
{
smooth = 0;
x = 385.154;
y = 261;
},
{
segmentType = curve;
smooth = 1;
x = 387.041;
y = 297;
},
{
smooth = 0;
x = 388.57;
y = 326.177;
},
{
smooth = 0;
x = 417.233;
y = 349;
},
{
segmentType = curve;
smooth = 1;
x = 455.767;
y = 349;
},
{
smooth = 0;
x = 501.463;
y = 349;
},
{
smooth = 0;
x = 545.692;
y = 309.436;
},
{
segmentType = curve;
smooth = 1;
x = 542.683;
y = 252;
},
{
smooth = 0;
x = 539.832;
y = 197.604;
},
{
smooth = 0;
x = 446.919;
y = 157.347;
},
{
segmentType = curve;
smooth = 1;
x = 335.28;
y = 168;
},
{
smooth = 0;
x = 240.734;
y = 177.022;
},
{
smooth = 0;
x = 161;
y = 226;
},
{
segmentType = curve;
smooth = 1;
x = 159;
y = 339;
},
{
smooth = 0;
x = 156;
y = 457;
},
{
smooth = 0;
x = 316;
y = 529;
},
{
segmentType = curve;
smooth = 1;
x = 487;
y = 522;
},
{
smooth = 0;
x = 662;
y = 515;
},
{
smooth = 0;
x = 733.907;
y = 388.635;
},
{
segmentType = curve;
smooth = 1;
x = 728.73;
y = 262;
},
{
smooth = 0;
x = 722.053;
y = 98.634;
},
{
smooth = 0;
x = 552.276;
y = -7.808;
},
{
segmentType = curve;
smooth = 0;
x = 331.166;
y = -5;
},
{
smooth = 0;
x = 326.07;
y = -25.909;
},
{
smooth = 0;
x = 334.116;
y = -63.182;
},
{
segmentType = curve;
smooth = 0;
x = 352.497;
y = -75;
},
{
smooth = 0;
x = 630.956;
y = -66.199;
},
{
smooth = 0;
x = 806;
y = 80;
},
{
segmentType = curve;
smooth = 1;
x = 806.932;
y = 314;
},
{
smooth = 0;
x = 808;
y = 522;
},
{
smooth = 0;
x = 643.643;
y = 623;
},
{
segmentType = curve;
smooth = 1;
x = 464.65;
y = 623;
},
{
smooth = 0;
x = 278.058;
y = 623;
},
{
smooth = 0;
x = 105;
y = 515;
}
);
}
);
lib = {
};
name = sinI;
unicodes = (
);
width = 867;
};
};
};
width = 663;
}
);
unicode = 3465;
},
{
glyphname = sinIi;
lastChange = "2024-04-05 03:00:42 +0000";
layers = (
{
layerId = "51BB9282-3B82-4DF1-A67A-294D3E37D73A";
shapes = (
{
closed = 1;
nodes = (
(249,539,o),
(270,562,o),
(270,590,cs),
(270,612,o),
(250,630,o),
(227,630,cs),
(201,630,o),
(179,607,o),
(179,579,cs),
(179,557,o),
(200,539,o),
(224,539,cs)
);
},
{
ref = sinRa;
},
{
closed = 1;
nodes = (
(489,434,o),
(510,457,o),
(510,483,cs),
(510,505,o),
(493,522,o),
(471,522,cs),
(445,522,o),
(422,499,o),
(422,473,cs),
(422,451,o),
(441,434,o),
(463,434,cs)
);
}
);
width = 538;
}
);
metricLeft = sinRa;
metricRight = sinRa;
unicode = 3466;
},
{
glyphname = sinU;
lastChange = "2024-04-05 03:00:42 +0000";
layers = (
{
layerId = "51BB9282-3B82-4DF1-A67A-294D3E37D73A";
shapes = (
{
closed = 1;
nodes = (
(539,-213,o),
(598,-151,o),
(623,-124,c),
(623,-108,o),
(618,-89,o),
(609,-85,c),
(578,-107,o),
(505,-126,o),
(413,-126,cs),
(220,-126,o),
(87,-55,o),
(87,66,cs),
(87,229,o),
(235,265,o),
(347,265,cs),
(369,265,o),
(467,264,o),
(492,260,c),
(510,277,l),
(512,287,o),
(512,298,o),
(512,308,cs),
(512,401,o),
(455,494,o),
(353,494,cs),
(280,494,o),
(222,458,o),
(222,402,cs),
(222,372,o),
(247,359,o),
(270,359,cs),
(273,359,o),
(277,359,o),
(280,360,c),
(291,410,o),
(312,456,o),
(373,456,cs),
(424,456,o),
(456,409,o),
(456,355,cs),
(456,341,o),
(453,326,o),
(449,312,c),
(470,329,l),
(461,333,o),
(426,341,o),
(351,341,cs),
(335,341,ls),
(209,341,o),
(45,255,o),
(45,53,cs),
(45,-89,o),
(144,-213,o),
(396,-213,cs)
);
}
);
width = 600;
}
);
unicode = 3467;
},
{
glyphname = sinRVocalic;
lastChange = "2024-04-05 03:00:42 +0000";
layers = (
{
layerId = "51BB9282-3B82-4DF1-A67A-294D3E37D73A";
shapes = (
{
closed = 1;
nodes = (
(575,-22,o),
(651,45,o),
(651,147,cs),
(651,238,o),
(595,320,o),
(486,321,cs),
(441,321,o),
(430,311,o),
(399,299,c),
(446,294,l),
(436,307,o),
(432,317,o),
(429,352,cs),
(426,388,o),
(461,423,o),
(499,423,cs),
(540,423,o),
(579,397,o),
(579,355,cs),
(579,328,o),
(561,292,o),
(558,286,c),
(581,299,o),
(642,323,o),
(638,379,cs),
(633,426,o),
(603,469,o),
(524,469,cs),
(431,469,o),
(386,394,o),
(386,286,cs),
(386,276,o),
(386,266,o),
(387,256,c),
(398,247,l),
(430,259,o),
(463,267,o),
(494,267,cs),
(557,265,o),
(616,240,o),
(616,167,cs),
(616,112,o),
(566,60,o),
(496,60,cs),
(408,60,o),
(365,100,o),
(365,152,cs),
(365,158,o),
(365,164,o),
(366,169,c),
(360,168,o),
(354,165,o),
(349,164,c),
(333,91,o),
(291,60,o),
(222,60,cs),
(147,60,o),
(96,90,o),
(89,143,cs),
(84,192,o),
(142,253,o),
(258,253,cs),
(278,253,o),
(300,251,o),
(324,247,c),
(334,258,l),
(337,270,o),
(338,283,o),
(338,297,cs),
(338,375,o),
(294,470,o),
(202,470,cs),
(139,470,o),
(103,433,o),
(103,393,cs),
(103,356,o),
(137,338,o),
(162,337,c),
(168,375,o),
(190,415,o),
(230,415,cs),
(263,415,o),
(293,370,o),
(293,332,cs),
(293,322,o),
(291,313,o),
(286,305,c),
(207,303,ls),
(105,300,o),
(58,213,o),
(58,137,cs),
(58,67,o),
(95,-20,o),
(209,-20,cs),
(308,-20,o),
(350,58,o),
(361,97,c),
(362,99,o),
(340,110,o),
(341,111,c),
(340,105,o),
(339,98,o),
(339,92,cs),
(339,34,o),
(393,-22,o),
(492,-22,cs)
);
},
{
pos = (648,0);
ref = sinMatraR;
}
);
width = 996;
}
);
unicode = 3469;
},
{
glyphname = sinLVocalic;
lastChange = "2024-04-05 03:00:42 +0000";
layers = (
{
layerId = "51BB9282-3B82-4DF1-A67A-294D3E37D73A";
shapes = (
{
closed = 1;
nodes = (
(594,-20,o),
(713,71,o),
(713,206,cs),
(713,287,o),
(651,335,o),
(569,335,cs),
(529,335,o),
(502,328,o),
(480,317,c),
(512,294,l),
(504,305,o),
(498,331,o),
(498,350,cs),
(498,404,o),
(551,423,o),
(584,423,cs),
(622,423,o),
(655,401,o),
(655,363,cs),
(655,327,o),
(634,311,o),
(629,303,c),
(642,289,l),
(669,299,o),
(707,326,o),
(707,381,cs),
(707,425,o),
(666,470,o),
(601,470,cs),
(505,470,o),
(461,397,o),
(461,303,cs),
(461,292,o),
(462,280,o),
(463,268,c),
(474,260,l),
(507,274,o),
(542,285,o),
(577,285,cs),
(632,285,o),
(679,263,o),
(679,206,cs),
(679,129,o),
(580,64,o),
(445,64,cs),
(286,64,o),
(203,118,o),
(203,182,cs),
(203,243,o),
(263,272,o),
(350,272,cs),
(369,272,o),
(390,270,o),
(413,267,c),
(424,279,l),
(428,296,o),
(430,317,o),
(430,337,cs),
(430,400,o),
(405,468,o),
(310,468,cs),
(249,468,o),
(210,433,o),
(210,396,cs),
(210,365,o),
(230,352,o),
(249,351,c),
(256,383,o),
(294,417,o),
(338,417,cs),
(379,417,o),
(395,393,o),
(395,361,cs),
(395,328,o),
(374,308,o),
(364,298,c),
(402,328,l),
(389,330,o),
(377,331,o),
(366,331,cs),
(269,331,o),
(170,273,o),
(170,172,cs),
(170,79,o),
(242,-20,o),
(449,-20,cs)
);
},
{
closed = 1;
nodes = (
(149,-8,o),
(165,3,o),
(169,8,c),
(150,41,o),
(121,94,o),
(121,185,cs),
(121,309,o),
(179,412,o),
(269,420,c),
(310,468,l),
(159,468,o),
(66,343,o),
(66,200,cs),
(66,90,o),
(110,26,o),
(137,-11,c)
);
},
{
closed = 1;
nodes = (
(788,26,o),
(824,106,o),
(824,206,cs),
(824,359,o),
(746,470,o),
(602,470,c),
(645,421,l),
(713,413,o),
(772,325,o),
(772,201,cs),
(772,110,o),
(747,42,o),
(729,8,c),
(734,2,o),
(751,-8,o),
(762,-10,c)
);
}
);
width = 883;
}
);
unicode = 3471;
},
{
glyphname = sinE;
lastChange = "2024-04-05 03:00:42 +0000";
layers = (
{
layerId = "51BB9282-3B82-4DF1-A67A-294D3E37D73A";
shapes = (
{
closed = 1;
nodes = (
(512,-32,o),
(623,107,o),
(623,287,cs),
(623,495,o),
(432,640,o),
(268,640,c),
(242,575,l),
(388,575,o),
(579,472,o),
(579,303,cs),
(579,173,o),
(499,61,o),
(348,57,cs),
(236,54,o),
(144,80,o),
(144,137,cs),
(144,195,o),
(218,224,o),
(297,224,cs),
(317,224,o),
(338,223,o),
(359,219,c),
(374,232,l),
(375,239,o),
(376,250,o),
(376,260,cs),
(376,332,o),
(327,420,o),
(222,420,cs),
(176,420,o),
(135,395,o),
(135,351,cs),
(135,324,o),
(156,305,o),
(195,309,c),
(195,318,o),
(213,362,o),
(261,362,cs),
(300,362,o),
(335,331,o),
(336,279,c),
(222,276,o),
(102,229,o),
(102,124,cs),
(102,37,o),
(186,-32,o),
(329,-32,cs)
);
},
{
closed = 1;
nodes = (
(68,211,o),
(173,260,o),
(298,267,c),
(342,279,l),
(253,279,o),
(95,275,o),
(30,263,c),
(24,246,o),
(21,215,o),
(20,192,c),
(30,184,l)
);
},
{
closed = 1;
nodes = (
(450,424,o),
(529,441,o),
(553,462,c),
(545,483,l),
(524,474,o),
(470,469,o),
(434,469,cs),
(382,469,o),
(328,482,o),
(298,522,cs),
(271,556,o),
(272,613,o),
(268,640,c),
(237,624,l),
(235,615,o),
(232,594,o),
(232,574,cs),
(232,546,o),
(238,517,o),
(251,490,cs),
(276,442,o),
(333,424,o),
(392,424,cs)
);
}
);
width = 667;
}
);
unicode = 3473;
},
{
glyphname = sinEe;
lastChange = "2024-04-05 03:00:42 +0000";
layers = (
{
layerId = "51BB9282-3B82-4DF1-A67A-294D3E37D73A";
shapes = (
{
closed = 1;
nodes = (
(503,-32,o),
(603,107,o),
(603,277,cs),
(603,495,o),
(371,640,o),
(208,640,c),
(182,575,l),
(328,575,o),
(559,472,o),
(559,292,cs),
(559,173,o),
(489,61,o),
(328,57,cs),
(226,54,o),
(124,80,o),
(124,137,cs),
(124,195,o),
(198,224,o),
(277,224,cs),
(297,224,o),
(318,223,o),
(339,219,c),
(354,232,l),
(355,239,o),
(356,250,o),
(356,260,cs),
(356,332,o),
(297,420,o),
(192,420,cs),
(146,420,o),
(115,395,o),
(115,351,cs),
(115,324,o),
(136,305,o),
(175,309,c),
(175,318,o),
(193,362,o),
(241,362,cs),
(280,362,o),
(315,331,o),
(316,279,c),
(202,276,o),
(82,229,o),
(82,124,cs),
(82,37,o),
(176,-32,o),
(309,-32,cs)
);
},
{
closed = 1;
nodes = (
(48,211,o),
(153,260,o),
(278,267,c),
(322,279,l),
(233,279,o),
(75,275,o),
(10,263,c),
(4,246,o),
(1,215,o),
(0,192,c),
(10,184,l)
);
},
{
closed = 1;
nodes = (
(391,419,o),
(468,435,o),
(493,457,c),
(485,483,l),
(463,474,o),
(410,469,o),
(373,469,cs),
(321,469,o),
(268,482,o),
(237,522,cs),
(211,556,o),
(212,613,o),
(208,640,c),
(176,624,l),
(174,615,o),
(171,594,o),
(171,574,cs),
(171,546,o),
(177,517,o),
(191,490,cs),
(215,442,o),
(282,419,o),
(341,419,cs)
);
},
{
pos = (556,17);
ref = sinVirama;
}
);
width = 673;
}
);
unicode = 3474;
},
{
glyphname = sinO;
lastChange = "2024-04-05 03:00:42 +0000";
layers = (
{
layerId = "51BB9282-3B82-4DF1-A67A-294D3E37D73A";
shapes = (
{
closed = 1;
nodes = (
(572,-15,o),
(631,132,o),
(631,279,cs),
(631,457,o),
(550,623,o),
(297,623,cs),
(211,623,o),
(133,602,o),
(86,566,c),
(79,552,o),
(81,512,o),
(88,504,c),
(131,532,o),
(206,555,o),
(300,555,cs),
(492,555,o),
(588,468,o),
(588,295,cs),
(588,187,o),
(543,73,o),
(431,73,cs),
(378,73,o),
(336,104,o),
(336,151,cs),
(336,156,o),
(336,161,o),
(337,167,c),
(317,161,l),
(303,106,o),
(268,71,o),
(206,71,cs),
(114,71,o),
(66,130,o),
(66,216,cs),
(66,309,o),
(139,340,o),
(166,343,c),
(157,371,l),
(157,368,o),
(145,180,o),
(334,180,cs),
(434,180,o),
(483,243,o),
(483,327,cs),
(483,407,o),
(425,472,o),
(353,472,cs),
(278,472,o),
(250,421,o),
(250,373,cs),
(250,324,o),
(284,291,o),
(331,291,cs),
(381,291,o),
(419,326,o),
(419,382,cs),
(419,396,o),
(417,412,o),
(411,429,c),
(397,432,l),
(393,352,o),
(355,340,o),
(330,340,cs),
(311,340,o),
(290,348,o),
(290,370,cs),
(290,394,o),
(315,421,o),
(362,421,cs),
(412,421,o),
(450,392,o),
(450,342,cs),
(450,273,o),
(404,243,o),
(338,243,cs),
(222,243,o),
(188,327,o),
(188,374,cs),
(188,381,o),
(188,389,o),
(190,394,c),
(184,402,o),
(175,410,o),
(168,413,c),
(105,401,o),
(28,331,o),
(28,202,cs),
(28,104,o),
(81,-14,o),
(205,-14,cs),
(285,-14,o),
(318,40,o),
(327,79,cs),
(327,80,o),
(317,79,o),
(318,80,c),
(317,39,o),
(358,-15,o),
(440,-15,cs)
);
}
);
width = 643;
}
);
unicode = 3476;
},
{
glyphname = sinOo;
lastChange = "2024-04-05 03:00:42 +0000";
layers = (
{
layerId = "51BB9282-3B82-4DF1-A67A-294D3E37D73A";
shapes = (
{
closed = 1;
nodes = (
(561,-14,o),
(621,133,o),
(621,280,cs),
(621,479,o),
(456,590,o),
(286,590,cs),
(224,590,o),
(164,580,o),
(128,556,c),
(121,536,o),
(119,515,o),
(118,489,c),
(120,489,o),
(195,533,o),
(286,533,cs),
(394,533,o),
(576,481,o),
(576,292,cs),
(576,184,o),
(533,70,o),
(430,70,cs),
(378,70,o),
(336,105,o),
(336,152,cs),
(336,157,o),
(336,162,o),
(337,168,c),
(317,162,l),
(303,107,o),
(268,71,o),
(198,71,cs),
(118,71,o),
(79,141,o),
(79,208,cs),
(79,296,o),
(138,341,o),
(166,344,c),
(157,372,l),
(157,369,o),
(162,181,o),
(334,181,cs),
(430,181,o),
(486,244,o),
(486,328,cs),
(486,408,o),
(423,473,o),
(350,473,cs),
(275,473,o),
(248,422,o),
(248,374,cs),
(248,325,o),
(281,292,o),
(329,292,cs),
(379,292,o),
(417,327,o),
(417,383,cs),
(417,397,o),
(415,413,o),
(409,430,c),
(395,433,l),
(391,353,o),
(352,341,o),
(328,341,cs),
(309,341,o),
(287,349,o),
(287,371,cs),
(287,395,o),
(313,422,o),
(359,422,cs),
(410,422,o),
(448,393,o),
(448,345,cs),
(448,274,o),
(401,240,o),
(332,240,cs),
(221,240,o),
(188,327,o),
(188,374,cs),
(188,382,o),
(188,390,o),
(190,395,c),
(184,404,o),
(175,412,o),
(168,414,c),
(104,404,o),
(38,318,o),
(38,199,cs),
(38,111,o),
(81,-13,o),
(198,-13,cs),
(284,-13,o),
(308,41,o),
(327,80,c),
(318,78,l),
(318,35,o),
(357,-14,o),
(440,-14,cs)
);
},
{
closed = 1;
nodes = (
(606,471,o),
(550,700,o),
(285,700,cs),
(194,700,o),
(140,662,o),
(140,662,c),
(127,638,o),
(123,612,o),
(122,601,c),
(144,617,o),
(155,621,o),
(182,631,c),
(204,661,l),
(190,651,o),
(145,614,o),
(125,546,c),
(153,541,l),
(171,590,o),
(225,644,o),
(259,649,c),
(236,650,o),
(213,651,o),
(187,631,c),
(187,631,o),
(201,641,o),
(264,641,cs),
(550,641,o),
(569,437,o),
(568,389,c),
(606,326,l)
);
}
);
width = 653;
}
);
unicode = 3477;
},
{
glyphname = sinKa;
lastChange = "2024-04-05 03:00:42 +0000";
layers = (
{
anchors = (
{
name = MatraI;
pos = (328,345);
},
{
name = Virama;
pos = (695,408);
}
);
layerId = "51BB9282-3B82-4DF1-A67A-294D3E37D73A";
shapes = (
{
closed = 1;
nodes = (
(262,-6,o),
(298,21,o),
(313,63,c),
(325,18,o),
(361,-6,o),
(406,-6,cs),
(499,-6,o),
(538,94,o),
(538,176,cs),
(538,259,o),
(493,324,o),
(407,324,cs),
(328,324,o),
(224,256,o),
(190,218,c),
(222,242,l),
(224,250,o),
(255,274,o),
(286,297,cs),
(351,347,o),
(436,383,o),
(535,383,cs),
(662,383,o),
(767,317,o),
(767,217,cs),
(767,154,o),
(718,71,o),
(614,71,cs),
(596,71,o),
(570,74,o),
(556,77,c),
(543,72,l),
(547,43,o),
(568,9,o),
(587,-6,c),
(728,3,o),
(807,104,o),
(807,224,cs),
(807,388,o),
(687,462,o),
(569,462,cs),
(451,462,o),
(362,402,o),
(260,318,cs),
(135,215,o),
(32,120,o),
(21,108,c),
(17,86,o),
(40,70,o),
(45,69,c),
(50,82,o),
(59,95,o),
(74,112,cs),
(105,146,o),
(154,179,o),
(187,200,cs),
(240,233,o),
(313,256,o),
(375,256,cs),
(450,256,o),
(506,223,o),
(506,163,cs),
(506,106,o),
(463,69,o),
(425,69,cs),
(358,69,o),
(334,121,o),
(334,170,cs),
(334,176,o),
(334,181,o),
(335,186,c),
(316,182,l),
(302,118,o),
(265,68,o),
(216,68,cs),
(153,68,o),
(144,130,o),
(100,130,cs),
(93,130,o),
(86,129,o),
(77,126,c),
(56,97,l),
(62,102,o),
(68,105,o),
(75,105,cs),
(87,105,o),
(102,98,o),
(107,87,cs),
(132,35,o),
(158,-6,o),
(218,-6,cs)
);
},
{
closed = 1;
nodes = (
(133,282,o),
(149,284,o),
(161,290,c),
(151,303,o),
(143,314,o),
(143,341,cs),
(143,390,o),
(171,422,o),
(211,422,cs),
(243,422,o),
(258,402,o),
(258,368,cs),
(258,339,o),
(247,311,o),
(231,294,c),
(254,302,l),
(270,318,o),
(307,361,o),
(307,402,cs),
(307,441,o),
(269,456,o),
(227,456,cs),
(145,456,o),
(72,400,o),
(72,330,cs),
(72,298,o),
(86,282,o),
(120,282,cs)
);
}
);
userData = {
com.typemytype.robofont.layerData = {
"Regular Oct 26 16, 18:32" = {
anchors = (
);
components = (
);
contours = (
{
points = (
{
segmentType = curve;
smooth = 0;
x = 35;
y = 125;
},
{
smooth = 0;
x = 59;
y = 149;
},
{
smooth = 0;
x = 135;
y = 250;
},
{
segmentType = curve;
smooth = 1;
x = 322;
y = 408;
},
{
smooth = 0;
x = 455;
y = 521;
},
{
smooth = 0;
x = 556;
y = 582;
},
{
segmentType = curve;
smooth = 1;
x = 706;
y = 582;
},
{
smooth = 0;
x = 862;
y = 582;
},
{
smooth = 0;
x = 1022;
y = 494;
},
{
segmentType = curve;
smooth = 1;
x = 1022;
y = 291;
},
{
smooth = 0;
x = 1022;
y = 135;
},
{
smooth = 0;
x = 940;
y = -8;
},
{
segmentType = curve;
smooth = 0;
x = 765.009;
y = -8;
},
{
smooth = 0;
x = 739.934;
y = 10.555;
},
{
smooth = 0;
x = 729;
y = 34;
},
{
segmentType = curve;
smooth = 0;
x = 731;
y = 72;
},
{
segmentType = line;
smooth = 0;
x = 747;
y = 79;
},
{
smooth = 0;
x = 766;
y = 74;
},
{
smooth = 0;
x = 792;
y = 68;
},
{
segmentType = curve;
smooth = 1;
x = 821;
y = 69;
},
{
smooth = 0;
x = 919;
y = 72;
},
{
smooth = 0;
x = 971;
y = 175;
},
{
segmentType = curve;
smooth = 1;
x = 971;
y = 278;
},
{
smooth = 0;
x = 971;
y = 419;
},
{
smooth = 0;
x = 835;
y = 515;
},
{
segmentType = curve;
smooth = 1;
x = 678;
y = 515;
},
{
smooth = 0;
x = 549;
y = 515;
},
{
smooth = 0;
x = 429;
y = 441;
},
{
segmentType = curve;
smooth = 1;
x = 354;
y = 380;
},
{
smooth = 0;
x = 337;
y = 366;
},
{
smooth = 0;
x = 261;
y = 303;
},
{
segmentType = curve;
smooth = 0;
x = 285;
y = 310;
},
{
segmentType = line;
smooth = 0;
x = 266;
y = 298;
},
{
smooth = 0;
x = 312;
y = 348;
},
{
smooth = 0;
x = 407;
y = 414;
},
{
segmentType = curve;
smooth = 1;
x = 502;
y = 414;
},
{
smooth = 0;
x = 613;
y = 414;
},
{
smooth = 0;
x = 683;
y = 325;
},
{
segmentType = curve;
smooth = 1;
x = 678;
y = 204;
},
{
smooth = 0;
x = 674;
y = 110;
},
{
smooth = 0;
x = 621;
y = -8;
},
{
segmentType = curve;
smooth = 1;
x = 509;
y = -8;
},
{
smooth = 0;
x = 451;
y = -8;
},
{
smooth = 0;
x = 405;
y = 23;
},
{
segmentType = curve;
smooth = 0;
x = 388.62;
y = 80;
},
{
smooth = 0;
x = 369;
y = 26;
},
{
smooth = 0;
x = 322;
y = -10;
},
{
segmentType = curve;
smooth = 1;
x = 262.009;
y = -8;
},
{
smooth = 0;
x = 192;
y = -6;
},
{
smooth = 0;
x = 178;
y = 49;
},
{
segmentType = curve;
smooth = 1;
x = 143;
y = 102;
},
{
smooth = 0;
x = 130;
y = 122;
},
{
smooth = 0;
x = 97;
y = 134;
},
{
segmentType = curve;
smooth = 0;
x = 79;
y = 115;
},
{
segmentType = line;
smooth = 0;
x = 104;
y = 152;
},
{
smooth = 0;
x = 186;
y = 176;
},
{
smooth = 0;
x = 164;
y = 70;
},
{
segmentType = curve;
smooth = 1;
x = 272;
y = 70;
},
{
smooth = 0;
x = 335;
y = 70;
},
{
smooth = 0;
x = 385;
y = 150;
},
{
segmentType = curve;
smooth = 0;
x = 383;
y = 232;
},
{
segmentType = line;
smooth = 0;
x = 418;
y = 232;
},
{
smooth = 0;
x = 420;
y = 116;
},
{
smooth = 0;
x = 447;
y = 64;
},
{
segmentType = curve;
smooth = 1;
x = 519;
y = 63;
},
{
smooth = 0;
x = 582;
y = 62;
},
{
smooth = 0;
x = 625;
y = 127;
},
{
segmentType = curve;
smooth = 1;
x = 626;
y = 205;
},
{
smooth = 0;
x = 627;
y = 288;
},
{
smooth = 0;
x = 563;
y = 347;
},
{
segmentType = curve;
smooth = 1;
x = 469;
y = 347;
},
{
smooth = 0;
x = 389;
y = 347;
},
{
smooth = 0;
x = 296;
y = 299;
},
{
segmentType = curve;
smooth = 1;
x = 228;
y = 256;
},
{
smooth = 0;
x = 178;
y = 225;
},
{
smooth = 0;
x = 72;
y = 125;
},
{
segmentType = curve;
smooth = 0;
x = 64;
y = 79;
},
{
smooth = 0;
x = 58;
y = 81;
},
{
smooth = 0;
x = 31;
y = 98;
}
);
},
{
points = (
{
segmentType = curve;
smooth = 1;
x = 80;
y = 428;
},
{
smooth = 0;
x = 84;
y = 517;
},
{
smooth = 0;
x = 158;
y = 584;
},
{
segmentType = curve;
smooth = 1;
x = 260;
y = 584;
},
{
smooth = 0;
x = 315;
y = 584;
},
{
smooth = 0;
x = 364;
y = 544;
},
{
segmentType = curve;
smooth = 1;
x = 362;
y = 491;
},
{
smooth = 0;
x = 360;
y = 440;
},
{
smooth = 0;
x = 335;
y = 408;
},
{
segmentType = curve;
smooth = 0;
x = 313.71;
y = 387;
},
{
segmentType = line;
smooth = 0;
x = 287.133;
y = 376;
},
{
smooth = 0;
x = 305;
y = 402;
},
{
smooth = 0;
x = 318;
y = 417;
},
{
segmentType = curve;
smooth = 1;
x = 320;
y = 454;
},
{
smooth = 0;
x = 322;
y = 501;
},
{
smooth = 0;
x = 302;
y = 538;
},
{
segmentType = curve;
smooth = 1;
x = 256;
y = 538;
},
{
smooth = 0;
x = 212;
y = 538;
},
{
smooth = 0;
x = 154;
y = 505;
},
{
segmentType = curve;
smooth = 1;
x = 151;
y = 442;
},
{
smooth = 0;
x = 149;
y = 407;
},
{
smooth = 0;
x = 161;
y = 389;
},
{
segmentType = curve;
smooth = 0;
x = 175;
y = 372;
},
{
smooth = 0;
x = 159;
y = 364;
},
{
smooth = 0;
x = 138;
y = 361;
},
{
segmentType = curve;
smooth = 1;
x = 122;
y = 361;
},
{
smooth = 0;
x = 98;
y = 361;
},
{
smooth = 0;
x = 78;
y = 385;
}
);
}
);
lib = {
};
name = sinKa;
unicodes = (
);
width = 1056;
};
};
};
width = 841;
}
);
unicode = 3482;
},
{
glyphname = sinKha;
lastChange = "2024-04-05 03:00:42 +0000";
layers = (
{
layerId = "51BB9282-3B82-4DF1-A67A-294D3E37D73A";
shapes = (
{
closed = 1;
nodes = (
(559,-9,o),
(625,101,o),
(625,264,cs),
(625,480,o),
(517,608,o),
(309,608,cs),
(192,608,o),
(102,573,o),
(68,546,c),
(59,531,o),
(56,507,o),
(56,492,cs),
(56,481,o),
(58,472,o),
(59,469,c),
(62,470,o),
(149,536,o),
(299,536,cs),
(451,536,o),
(580,483,o),
(580,284,cs),
(580,166,o),
(525,57,o),
(452,57,cs),
(399,57,o),
(375,78,o),
(365,92,c),
(343,64,l),
(358,37,o),
(379,-9,o),
(454,-9,cs)
);
},
{
closed = 1;
nodes = (
(356,-9,o),
(429,121,o),
(429,222,cs),
(429,305,o),
(370,395,o),
(253,395,cs),
(118,395,o),
(24,296,o),
(24,161,cs),
(24,80,o),
(58,-14,o),
(156,-14,cs),
(224,-14,o),
(260,32,o),
(260,90,cs),
(260,145,o),
(224,176,o),
(176,176,cs),
(136,176,o),
(104,140,o),
(104,100,cs),
(104,76,o),
(113,57,o),
(123,41,c),
(159,23,l),
(144,39,o),
(141,50,o),
(141,64,cs),
(141,111,o),
(171,121,o),
(190,121,cs),
(210,121,o),
(230,109,o),
(230,86,cs),
(230,52,o),
(191,39,o),
(164,39,cs),
(124,39,o),
(62,80,o),
(62,180,cs),
(62,271,o),
(137,319,o),
(227,319,cs),
(308,319,o),
(382,283,o),
(382,194,cs),
(382,127,o),
(329,43,o),
(286,-14,c),
(295,-29,o),
(317,-43,o),
(328,-44,c)
);
}
);
width = 662;
}
);
unicode = 3483;
},
{
glyphname = sinGa;
lastChange = "2024-04-05 03:00:42 +0000";
layers = (
{
layerId = "51BB9282-3B82-4DF1-A67A-294D3E37D73A";
shapes = (
{
closed = 1;
nodes = (
(646,-3,o),
(722,119,o),
(722,252,cs),
(722,376,o),
(636,460,o),
(526,460,cs),
(383,460,o),
(296,338,o),
(291,173,c),
(296,171,o),
(301,171,o),
(306,171,cs),
(313,171,o),
(320,171,o),
(328,173,c),
(326,180,o),
(325,193,o),
(325,200,cs),
(325,309,o),
(387,371,o),
(504,371,cs),
(583,371,o),
(679,328,o),
(680,229,cs),
(680,134,o),
(620,77,o),
(520,77,cs),
(503,77,o),
(481,79,o),
(464,83,c),
(454,77,l),
(454,60,o),
(474,11,o),
(493,-6,c)
);
},
{
closed = 1;
nodes = (
(377,-9,o),
(445,80,o),
(445,176,cs),
(445,251,o),
(393,306,o),
(327,305,c),
(323,253,l),
(353,252,o),
(410,233,o),
(410,183,cs),
(410,115,o),
(324,81,o),
(255,81,cs),
(157,81,o),
(81,132,o),
(81,218,cs),
(81,301,o),
(143,361,o),
(254,361,c),
(259,368,o),
(264,414,o),
(264,438,cs),
(264,444,o),
(264,450,o),
(263,453,c),
(156,452,o),
(44,362,o),
(44,197,cs),
(44,72,o),
(125,-9,o),
(251,-9,cs)
);
}
);
width = 758;
}
);
unicode = 3484;
},
{
glyphname = sinGha;
lastChange = "2024-04-05 03:00:42 +0000";
layers = (
{
layerId = "51BB9282-3B82-4DF1-A67A-294D3E37D73A";
shapes = (
{
closed = 1;
nodes = (
(595,-19,o),
(662,51,o),
(662,164,cs),
(662,260,o),
(593,322,o),
(502,322,cs),
(452,322,o),
(438,314,o),
(407,302,c),
(462,289,l),
(455,297,o),
(442,320,o),
(442,343,cs),
(442,399,o),
(473,426,o),
(516,426,cs),
(555,426,o),
(592,401,o),
(592,358,cs),
(592,330,o),
(569,295,o),
(565,289,c),
(583,283,l),
(612,297,o),
(649,333,o),
(649,376,cs),
(649,428,o),
(613,472,o),
(540,472,cs),
(438,472,o),
(381,383,o),
(383,259,c),
(394,250,l),
(427,262,o),
(467,263,o),
(500,263,cs),
(557,263,o),
(626,245,o),
(626,177,cs),
(626,105,o),
(564,60,o),
(501,60,cs),
(435,60,o),
(417,94,o),
(417,122,cs),
(417,138,o),
(420,154,o),
(423,169,c),
(409,175,o),
(391,178,o),
(373,178,cs),
(348,178,o),
(323,173,o),
(306,161,c),
(307,115,o),
(276,63,o),
(199,63,cs),
(141,63,o),
(108,94,o),
(108,139,cs),
(108,196,o),
(155,255,o),
(265,255,cs),
(284,255,o),
(304,254,o),
(327,250,c),
(340,261,l),
(345,279,o),
(348,299,o),
(348,321,cs),
(348,394,o),
(312,473,o),
(222,473,cs),
(158,473,o),
(110,433,o),
(110,391,cs),
(110,358,o),
(142,341,o),
(166,340,c),
(174,378,o),
(199,418,o),
(242,418,cs),
(280,418,o),
(304,395,o),
(304,354,cs),
(304,331,o),
(294,318,o),
(287,308,c),
(216,306,l),
(213,305,o),
(215,310,o),
(213,309,cs),
(139,281,o),
(73,212,o),
(73,127,cs),
(73,44,o),
(118,-17,o),
(202,-17,cs),
(327,-17,o),
(334,108,o),
(335,117,c),
(337,118,o),
(347,122,o),
(363,122,cs),
(366,122,o),
(379,121,o),
(382,118,c),
(379,104,o),
(378,92,o),
(378,75,cs),
(378,37,o),
(410,-19,o),
(501,-19,cs)
);
},
{
closed = 1;
nodes = (
(56,250,o),
(154,290,o),
(278,290,cs),
(307,290,l),
(320,313,l),
(294,313,ls),
(207,313,o),
(79,310,o),
(22,299,c),
(7,232,l),
(16,225,l)
);
}
);
width = 697;
}
);
unicode = 3485;
},
{
glyphname = sinNga;
lastChange = "2024-04-05 03:00:42 +0000";
layers = (
{
layerId = "51BB9282-3B82-4DF1-A67A-294D3E37D73A";
shapes = (
{
closed = 1;
nodes = (
(576,-19,o),
(620,129,o),
(620,259,cs),
(620,450,o),
(529,610,o),
(274,610,cs),
(214,610,o),
(137,594,o),
(97,569,c),
(90,553,o),
(87,516,o),
(88,498,c),
(126,522,o),
(186,541,o),
(274,541,cs),
(455,541,o),
(574,465,o),
(574,279,cs),
(574,185,o),
(540,64,o),
(442,64,cs),
(390,64,o),
(350,98,o),
(350,148,cs),
(350,157,o),
(351,163,o),
(352,170,c),
(332,165,l),
(316,107,o),
(279,65,o),
(203,65,cs),
(145,65,o),
(84,84,o),
(84,150,cs),
(84,217,o),
(151,241,o),
(230,241,cs),
(270,241,o),
(329,240,o),
(350,230,c),
(365,242,l),
(371,266,o),
(373,273,o),
(373,299,cs),
(373,392,o),
(290,428,o),
(228,428,cs),
(122,428,o),
(66,375,o),
(66,311,cs),
(66,281,o),
(79,241,o),
(136,241,cs),
(176,241,o),
(214,275,o),
(214,332,cs),
(214,345,o),
(207,371,o),
(196,382,c),
(168,382,l),
(184,301,o),
(153,283,o),
(131,283,cs),
(109,283,o),
(99,299,o),
(99,316,cs),
(99,355,o),
(141,376,o),
(215,376,cs),
(269,376,o),
(336,357,o),
(336,300,cs),
(336,271,o),
(319,269,o),
(299,250,c),
(339,263,l),
(310,277,o),
(268,286,o),
(232,286,cs),
(137,286,o),
(40,250,o),
(40,130,cs),
(40,43,o),
(108,-15,o),
(184,-15,cs),
(289,-15,o),
(332,50,o),
(335,95,c),
(337,97,o),
(330,92,o),
(331,94,c),
(330,87,o),
(330,81,o),
(330,76,cs),
(330,31,o),
(365,-19,o),
(446,-19,cs)
);
}
);
width = 656;
}
);
unicode = 3486;
},
{
glyphname = sinNnga;
lastChange = "2024-04-05 03:00:42 +0000";
layers = (
{
layerId = "51BB9282-3B82-4DF1-A67A-294D3E37D73A";
shapes = (
{
closed = 1;
nodes = (
(122,-8,o),
(133,-4,o),
(137,-1,c),
(122,26,o),
(91,111,o),
(91,187,cs),
(91,313,o),
(154,412,o),
(258,412,c),
(365,453,l),
(350,456,o),
(342,459,o),
(298,459,cs),
(163,459,o),
(35,371,o),
(35,199,cs),
(35,121,o),
(77,23,o),
(103,-8,c)
);
},
{
pos = (100,0);
ref = sinGa;
}
);
width = 858;
}
);
metricRight = sinGa;
unicode = 3487;
},
{
glyphname = sinCa;
lastChange = "2024-04-05 03:00:42 +0000";
layers = (
{
layerId = "51BB9282-3B82-4DF1-A67A-294D3E37D73A";
shapes = (
{
closed = 1;
nodes = (
(549,-23,o),
(625,133,o),
(625,287,cs),
(625,498,o),
(502,610,o),
(303,610,cs),
(230,610,o),
(156,587,o),
(110,554,c),
(102,537,o),
(101,510,o),
(101,502,cs),
(101,494,o),
(102,486,o),
(103,483,c),
(158,512,o),
(217,537,o),
(296,537,cs),
(436,537,o),
(583,479,o),
(583,288,cs),
(583,181,o),
(530,66,o),
(338,66,cs),
(234,66,o),
(139,93,o),
(139,164,cs),
(139,224,o),
(205,250,o),
(280,250,cs),
(300,250,o),
(320,248,o),
(340,245,c),
(357,257,l),
(359,269,o),
(361,281,o),
(361,295,cs),
(361,365,o),
(313,446,o),
(219,446,cs),
(159,446,o),
(123,413,o),
(123,376,cs),
(123,350,o),
(141,334,o),
(171,334,cs),
(175,334,o),
(178,334,o),
(182,335,c),
(183,343,o),
(202,388,o),
(251,388,cs),
(290,388,o),
(324,361,o),
(322,310,c),
(316,308,o),
(305,308,o),
(299,308,cs),
(285,308,o),
(96,284,o),
(96,138,cs),
(96,34,o),
(202,-23,o),
(338,-23,cs)
);
},
{
closed = 1;
nodes = (
(79,243,o),
(177,288,o),
(317,295,c),
(323,311,l),
(235,311,o),
(101,304,o),
(39,291,c),
(32,277,o),
(26,248,o),
(26,225,c),
(36,217,l)
);
}
);
userData = {
com.typemytype.robofont.layerData = {
"Jan 19 17, 02:22" = {
anchors = (
{
name = rakaransaya;
x = 822;
y = 393;
}
);
components = (
);
contours = (
{
points = (
{
segmentType = curve;
smooth = 1;
x = 122.757;
y = 178;
},
{
smooth = 0;
x = 130.67;
y = 326.801;
},
{
smooth = 0;
x = 299.59;
y = 351.437;
},
{
segmentType = curve;
smooth = 1;
x = 408.553;
y = 381;
},
{
smooth = 0;
x = 417.23;
y = 381;
},
{
smooth = 0;
x = 430.553;
y = 381;
},
{
segmentType = curve;
smooth = 0;
x = 438.5;
y = 383;
},
{
smooth = 0;
x = 440.959;
y = 449;
},
{
smooth = 0;
x = 396.741;
y = 483;
},
{
segmentType = curve;
smooth = 1;
x = 347.741;
y = 483;
},
{
smooth = 0;
x = 285.741;
y = 483;
},
{
smooth = 0;
x = 260.754;
y = 426;
},
{
segmentType = curve;
smooth = 0;
x = 260.177;
y = 415;
},
{
smooth = 0;
x = 255;
y = 414;
},
{
smooth = 0;
x = 250;
y = 414;
},
{
segmentType = curve;
smooth = 1;
x = 245;
y = 414;
},
{
smooth = 0;
x = 206;
y = 414;
},
{
smooth = 0;
x = 184;
y = 436;
},
{
segmentType = curve;
smooth = 1;
x = 184;
y = 466;
},
{
smooth = 0;
x = 184;
y = 524;
},
{
smooth = 0;
x = 242;
y = 558;
},
{
segmentType = curve;
smooth = 1;
x = 300.671;
y = 558;
},
{
smooth = 0;
x = 431;
y = 558;
},
{
smooth = 0;
x = 488;
y = 454;
},
{
segmentType = curve;
smooth = 1;
x = 488;
y = 364;
},
{
smooth = 0;
x = 488;
y = 347;
},
{
smooth = 0;
x = 486;
y = 331;
},
{
segmentType = curve;
smooth = 0;
x = 482.988;
y = 316;
},
{
segmentType = line;
smooth = 0;
x = 462.15;
y = 300;
},
{
smooth = 0;
x = 437.359;
y = 304;
},
{
smooth = 0;
x = 410.465;
y = 306;
},
{
segmentType = curve;
smooth = 1;
x = 384.465;
y = 306;
},
{
smooth = 0;
x = 275;
y = 306;
},
{
smooth = 0;
x = 172;
y = 274;
},
{
segmentType = curve;
smooth = 1;
x = 172;
y = 198;
},
{
smooth = 0;
x = 172;
y = 138;
},
{
smooth = 0;
x = 286;
y = 96;
},
{
segmentType = curve;
smooth = 1;
x = 427;
y = 96;
},
{
smooth = 0;
x = 644;
y = 96;
},
{
smooth = 0;
x = 759;
y = 216;
},
{
segmentType = curve;
smooth = 1;
x = 770.597;
y = 423;
},
{
smooth = 0;
x = 781;
y = 605;
},
{
smooth = 0;
x = 646.552;
y = 715;
},
{
segmentType = curve;
smooth = 1;
x = 464.899;
y = 715;
},
{
smooth = 0;
x = 327.994;
y = 715;
},
{
smooth = 0;
x = 233.945;
y = 655;
},
{
segmentType = curve;
smooth = 0;
x = 231.755;
y = 655;
},
{
smooth = 0;
x = 231;
y = 658;
},
{
smooth = 0;
x = 230;
y = 662;
},
{
segmentType = curve;
smooth = 1;
x = 230;
y = 667;
},
{
smooth = 0;
x = 230;
y = 692;
},
{
smooth = 0;
x = 243;
y = 738;
},
{
segmentType = curve;
smooth = 0;
x = 252.048;
y = 756;
},
{
smooth = 0;
x = 297.869;
y = 777.808;
},
{
smooth = 0;
x = 370.62;
y = 798;
},
{
segmentType = curve;
smooth = 1;
x = 467.249;
y = 798;
},
{
smooth = 0;
x = 686;
y = 798;
},
{
smooth = 0;
x = 827;
y = 651;
},
{
segmentType = curve;
smooth = 1;
x = 827;
y = 424;
},
{
smooth = 0;
x = 827;
y = 169;
},
{
smooth = 0;
x = 688;
y = -17;
},
{
segmentType = curve;
smooth = 1;
x = 442;
y = -17;
},
{
smooth = 0;
x = 260;
y = -17;
},
{
smooth = 0;
x = 116.258;
y = 54;
}
);
},
{
points = (
{
segmentType = line;
smooth = 0;
x = 34.312;
y = 275;
},
{
segmentType = line;
smooth = 0;
x = 49.767;
y = 360;
},
{
smooth = 0;
x = 130.359;
y = 374.609;
},
{
smooth = 0;
x = 327.429;
y = 385.043;
},
{
segmentType = curve;
smooth = 0;
x = 439.972;
y = 384;
},
{
segmentType = line;
smooth = 0;
x = 433.186;
y = 369;
},
{
smooth = 0;
x = 252.505;
y = 359.913;
},
{
smooth = 0;
x = 100.774;
y = 298.32;
},
{
segmentType = curve;
smooth = 0;
x = 46.787;
y = 265;
}
);
}
);
lib = {
};
name = sinCa;
unicodes = (
);
width = 877;
};
};
};
width = 657;
}
);
unicode = 3488;
},
{
glyphname = sinCha;
lastChange = "2024-04-05 03:00:42 +0000";
layers = (
{
anchors = (
{
name = _si_MaU;
pos = (576,199);
}
);
layerId = "51BB9282-3B82-4DF1-A67A-294D3E37D73A";
shapes = (
{
closed = 1;
nodes = (
(475,-20,o),
(587,73,o),
(587,193,cs),
(587,279,o),
(530,326,o),
(440,326,cs),
(411,326,o),
(387,321,o),
(364,310,c),
(351,300,l),
(373,305,l),
(373,365,o),
(408,409,o),
(457,409,cs),
(498,409,o),
(538,377,o),
(538,321,cs),
(538,270,o),
(506,204,o),
(442,204,cs),
(368,204,o),
(373,291,o),
(373,322,c),
(361,335,l),
(366,364,o),
(380,417,o),
(399,460,cs),
(452,578,o),
(556,675,o),
(556,675,c),
(552,693,o),
(525,712,o),
(510,716,c),
(510,716,o),
(426,626,o),
(372,496,cs),
(336,412,o),
(327,343,o),
(327,303,cs),
(327,221,o),
(367,158,o),
(436,158,cs),
(527,158,o),
(575,264,o),
(575,340,cs),
(575,411,o),
(534,461,o),
(475,461,cs),
(393,461,o),
(332,364,o),
(332,282,cs),
(332,274,o),
(332,267,o),
(333,260,c),
(348,252,l),
(381,263,o),
(415,276,o),
(455,276,cs),
(505,276,o),
(549,255,o),
(549,203,cs),
(549,129,o),
(461,61,o),
(307,61,cs),
(166,61,o),
(85,118,o),
(85,183,cs),
(85,235,o),
(137,264,o),
(225,264,cs),
(242,264,o),
(265,263,o),
(287,260,c),
(299,271,l),
(303,288,o),
(305,309,o),
(305,329,cs),
(305,393,o),
(279,461,o),
(188,461,cs),
(123,461,o),
(85,427,o),
(85,386,cs),
(85,350,o),
(112,337,o),
(138,335,c),
(146,366,o),
(177,409,o),
(219,409,cs),
(254,409,o),
(269,385,o),
(269,353,cs),
(269,320,o),
(248,299,o),
(238,290,c),
(275,321,l),
(264,322,o),
(252,323,o),
(241,323,cs),
(143,323,o),
(45,270,o),
(45,168,cs),
(45,67,o),
(137,-20,o),
(304,-20,cs)
);
}
);
width = 620;
}
);
metricLeft = sinPa;
unicode = 3489;
},
{
glyphname = sinJa;
lastChange = "2024-04-05 03:00:42 +0000";
layers = (
{
anchors = (
{
name = rakar;
pos = (565,178);
}
);
layerId = "51BB9282-3B82-4DF1-A67A-294D3E37D73A";
shapes = (
{
closed = 1;
nodes = (
(448,288,o),
(448,353,o),
(490,443,cs),
(541,551,o),
(640,644,o),
(640,644,c),
(638,660,o),
(610,688,o),
(596,687,c),
(596,687,o),
(508,601,o),
(459,480,cs),
(419,385,o),
(415,308,o),
(415,308,c),
(448,288,l)
);
},
{
ref = sinPa;
}
);
width = 642;
}
);
unicode = 3490;
},
{
glyphname = sinJha;
lastChange = "2024-04-05 03:00:42 +0000";
layers = (
{
layerId = "51BB9282-3B82-4DF1-A67A-294D3E37D73A";
shapes = (
{
closed = 1;
nodes = (
(991,-18,o),
(1060,119,o),
(1060,260,cs),
(1060,447,o),
(951,589,o),
(752,589,cs),
(679,589,o),
(616,569,o),
(581,548,c),
(565,530,o),
(550,503,o),
(550,487,cs),
(550,479,o),
(551,474,o),
(552,471,c),
(561,471,o),
(620,524,o),
(750,524,cs),
(906,524,o),
(1013,447,o),
(1013,291,cs),
(1013,174,o),
(953,81,o),
(874,80,cs),
(831,79,o),
(785,107,o),
(785,165,cs),
(785,169,o),
(785,174,o),
(786,179,c),
(765,174,l),
(749,115,o),
(714,82,o),
(653,82,cs),
(567,82,o),
(536,147,o),
(540,193,cs),
(548,282,o),
(684,317,o),
(753,317,cs),
(764,317,o),
(773,316,o),
(779,315,c),
(777,343,o),
(776,363,o),
(763,388,c),
(659,392,o),
(497,317,o),
(497,155,cs),
(497,76,o),
(535,-15,o),
(641,-15,cs),
(734,-15,o),
(769,57,o),
(774,104,c),
(776,104,o),
(755,108,o),
(757,110,c),
(756,104,o),
(755,98,o),
(755,89,cs),
(755,43,o),
(791,-18,o),
(871,-18,cs)
);
},
{
closed = 1;
nodes = (
(123,282,o),
(140,284,o),
(152,290,c),
(142,303,o),
(134,315,o),
(134,341,cs),
(134,392,o),
(163,428,o),
(200,428,cs),
(236,428,o),
(251,399,o),
(249,365,cs),
(249,334,o),
(237,311,o),
(222,294,c),
(245,302,l),
(261,319,o),
(298,361,o),
(298,402,cs),
(298,441,o),
(260,457,o),
(219,457,cs),
(137,457,o),
(63,401,o),
(63,329,cs),
(63,298,o),
(78,282,o),
(111,282,cs)
);
},
{
closed = 1;
nodes = (
(253,-6,o),
(289,22,o),
(304,63,c),
(316,19,o),
(352,-6,o),
(397,-6,cs),
(490,-6,o),
(529,96,o),
(529,175,cs),
(529,259,o),
(484,324,o),
(402,324,cs),
(319,324,o),
(215,256,o),
(181,218,c),
(213,243,l),
(215,249,o),
(240,270,o),
(277,297,cs),
(347,351,o),
(441,386,o),
(550,386,cs),
(648,386,o),
(727,358,o),
(759,343,c),
(763,388,l),
(724,419,o),
(652,442,o),
(563,442,cs),
(467,442,o),
(374,416,o),
(251,319,cs),
(163,249,o),
(30,117,o),
(12,98,c),
(8,76,o),
(29,63,o),
(34,62,c),
(40,98,o),
(139,176,o),
(178,200,cs),
(231,233,o),
(304,256,o),
(366,256,cs),
(440,256,o),
(497,224,o),
(497,164,cs),
(497,103,o),
(441,80,o),
(401,80,cs),
(352,80,o),
(325,116,o),
(325,177,cs),
(325,180,o),
(325,178,o),
(326,186,c),
(307,182,l),
(293,118,o),
(246,78,o),
(197,78,cs),
(144,78,o),
(133,123,o),
(89,123,cs),
(82,123,o),
(75,122,o),
(66,119,c),
(45,90,l),
(51,96,o),
(57,98,o),
(64,98,cs),
(76,98,o),
(89,90,o),
(96,80,cs),
(125,38,o),
(151,-6,o),
(210,-6,cs)
);
}
);
width = 1096;
}
);
unicode = 3491;
},
{
glyphname = sinNya;
lastChange = "2024-04-05 03:00:42 +0000";
layers = (
{
anchors = (
{
name = MatraI;
pos = (460,348);
}
);
layerId = "51BB9282-3B82-4DF1-A67A-294D3E37D73A";
shapes = (
{
closed = 1;
nodes = (
(394,-3,o),
(429,25,o),
(445,66,c),
(457,22,o),
(492,-3,o),
(538,-3,cs),
(630,-3,o),
(670,98,o),
(670,179,cs),
(670,262,o),
(624,327,o),
(539,327,cs),
(460,327,o),
(355,259,o),
(322,221,c),
(353,246,l),
(355,253,o),
(387,277,o),
(417,301,cs),
(482,350,o),
(605,392,o),
(677,399,cs),
(735,405,o),
(760,395,o),
(791,385,c),
(843,472,l),
(809,472,o),
(789,472,o),
(751,470,cs),
(613,462,o),
(493,405,o),
(392,322,cs),
(266,218,o),
(164,123,o),
(153,111,c),
(148,90,o),
(172,73,o),
(177,72,c),
(182,86,o),
(190,99,o),
(205,115,cs),
(237,149,o),
(285,182,o),
(319,203,cs),
(372,237,o),
(445,259,o),
(506,259,cs),
(581,259,o),
(637,226,o),
(637,167,cs),
(637,109,o),
(595,72,o),
(556,72,cs),
(489,72,o),
(466,124,o),
(466,174,cs),
(466,179,o),
(466,184,o),
(467,189,c),
(448,185,l),
(433,121,o),
(397,71,o),
(347,71,cs),
(284,71,o),
(275,133,o),
(232,133,cs),
(225,133,o),
(217,132,o),
(208,129,c),
(188,101,l),
(193,106,o),
(199,108,o),
(206,108,cs),
(218,108,o),
(234,102,o),
(239,91,cs),
(263,38,o),
(289,-3,o),
(349,-3,cs)
);
},
{
closed = 1;
nodes = (
(128,-7,o),
(139,-3,o),
(143,0,c),
(128,27,o),
(104,98,o),
(104,166,cs),
(104,287,o),
(183,418,o),
(288,409,c),
(372,459,l),
(357,461,o),
(343,462,o),
(328,462,cs),
(190,462,o),
(42,359,o),
(42,191,cs),
(42,103,o),
(83,25,o),
(109,-7,c)
);
},
{
closed = 1;
nodes = (
(264,285,o),
(280,287,o),
(292,293,c),
(282,307,o),
(274,318,o),
(274,344,cs),
(274,394,o),
(303,425,o),
(342,425,cs),
(375,425,o),
(390,405,o),
(390,371,cs),
(390,342,o),
(379,315,o),
(362,297,c),
(386,306,l),
(402,322,o),
(438,364,o),
(438,405,cs),
(438,444,o),
(401,460,o),
(358,460,cs),
(276,460,o),
(203,403,o),
(203,333,cs),
(203,302,o),
(217,285,o),
(252,285,cs)
);
},
{
pos = (590,0);
ref = sinDa;
}
);
width = 1043;
}
);
unicode = 3492;
},
{
glyphname = sinJnya;
lastChange = "2024-04-05 03:00:42 +0000";
layers = (
{
layerId = "51BB9282-3B82-4DF1-A67A-294D3E37D73A";
shapes = (
{
closed = 1;
nodes = (
(478,-6,o),
(546,84,o),
(546,179,cs),
(546,254,o),
(494,310,o),
(428,309,c),
(424,256,l),
(455,255,o),
(512,237,o),
(512,186,cs),
(512,118,o),
(425,85,o),
(356,85,cs),
(258,85,o),
(182,135,o),
(182,221,cs),
(182,305,o),
(245,364,o),
(355,364,c),
(360,371,o),
(366,417,o),
(366,441,cs),
(366,448,o),
(366,454,o),
(365,457,c),
(257,456,o),
(146,365,o),
(146,200,cs),
(146,75,o),
(227,-6,o),
(352,-6,cs)
);
},
{
closed = 1;
nodes = (
(122,-5,o),
(133,-1,o),
(137,2,c),
(122,30,o),
(91,114,o),
(91,190,cs),
(91,317,o),
(154,415,o),
(258,415,c),
(365,457,l),
(350,460,o),
(342,463,o),
(298,463,cs),
(163,463,o),
(35,375,o),
(35,202,cs),
(35,124,o),
(77,27,o),
(103,-5,c)
);
},
{
pos = (470,0);
ref = sinDa;
},
{
closed = 1;
nodes = (
(414,175,o),
(421,175,o),
(429,176,c),
(427,183,o),
(426,196,o),
(426,203,cs),
(426,313,o),
(498,401,o),
(653,401,c),
(711,472,l),
(467,472,o),
(398,341,o),
(393,176,c),
(398,175,o),
(402,175,o),
(407,175,cs)
);
}
);
width = 953;
}
);
metricLeft = sinNnga;
metricRight = sinDa;
unicode = 3493;
},
{
glyphname = sinNyja;
lastChange = "2024-04-05 03:00:42 +0000";
layers = (
{
layerId = "51BB9282-3B82-4DF1-A67A-294D3E37D73A";
shapes = (
{
closed = 1;
nodes = (
(113,2,o),
(124,6,o),
(128,9,c),
(113,37,o),
(86,111,o),
(86,188,cs),
(86,314,o),
(159,413,o),
(248,413,cs),
(257,413,o),
(258,412,o),
(263,412,c),
(308,466,l),
(299,467,o),
(289,467,o),
(279,467,cs),
(130,467,o),
(30,360,o),
(30,212,cs),
(30,121,o),
(68,34,o),
(94,2,c)
);
},
{
pos = (109,0);
ref = sinJa;
}
);
width = 751;
}
);
metricLeft = sinNda;
metricRight = sinJa;
unicode = 3494;
},
{
glyphname = sinTta;
lastChange = "2024-04-05 03:00:42 +0000";
layers = (
{
layerId = "51BB9282-3B82-4DF1-A67A-294D3E37D73A";
shapes = (
{
closed = 1;
nodes = (
(458,-27,o),
(568,109,o),
(568,298,cs),
(568,497,o),
(448,614,o),
(268,614,cs),
(191,614,o),
(111,594,o),
(81,571,c),
(72,553,o),
(68,526,o),
(70,496,c),
(109,513,o),
(165,542,o),
(272,542,cs),
(415,542,o),
(523,471,o),
(523,314,cs),
(523,167,o),
(428,67,o),
(273,67,cs),
(170,67,o),
(87,112,o),
(87,186,cs),
(87,258,o),
(165,287,o),
(244,287,cs),
(264,287,o),
(285,285,o),
(305,281,c),
(314,295,l),
(312,317,o),
(303,339,o),
(288,360,c),
(286,360,o),
(280,361,o),
(275,361,cs),
(139,361,o),
(44,284,o),
(44,170,cs),
(44,62,o),
(128,-27,o),
(275,-27,cs)
);
}
);
userData = {
com.typemytype.robofont.layerData = {
"Jan 26 17, 16:33" = {
anchors = (
{
name = rakaransaya;
x = 719;
y = 343;
}
);
components = (
);
contours = (
{
points = (
{
smooth = 0;
x = 570;
y = -48;
},
{
smooth = 0;
x = 708;
y = 116;
},
{
segmentType = curve;
smooth = 1;
x = 716;
y = 344;
},
{
smooth = 0;
x = 725;
y = 599;
},
{
smooth = 0;
x = 570;
y = 746;
},
{
segmentType = curve;
smooth = 1;
x = 368;
y = 746;
},
{
smooth = 0;
x = 276;
y = 746;
},
{
smooth = 0;
x = 217;
y = 724;
},
{
segmentType = curve;
smooth = 0;
x = 174;
y = 696;
},
{
smooth = 0;
x = 159;
y = 667;
},
{
smooth = 0;
x = 138;
y = 608;
},
{
segmentType = curve;
smooth = 1;
x = 149;
y = 600;
},
{
smooth = 0;
x = 151;
y = 600;
},
{
smooth = 0;
x = 234;
y = 659;
},
{
segmentType = curve;
smooth = 1;
x = 359;
y = 659;
},
{
smooth = 0;
x = 547;
y = 659;
},
{
smooth = 0;
x = 671;
y = 566;
},
{
segmentType = curve;
smooth = 1;
x = 651;
y = 358;
},
{
smooth = 0;
x = 635;
y = 190;
},
{
smooth = 0;
x = 536;
y = 75;
},
{
segmentType = curve;
smooth = 1;
x = 343;
y = 71;
},
{
smooth = 0;
x = 212;
y = 68;
},
{
smooth = 0;
x = 107;
y = 127;
},
{
segmentType = curve;
smooth = 1;
x = 109;
y = 204;
},
{
smooth = 0;
x = 112;
y = 332;
},
{
smooth = 0;
x = 267;
y = 356;
},
{
segmentType = curve;
smooth = 0;
x = 388;
y = 335;
},
{
segmentType = line;
smooth = 0;
x = 400;
y = 353;
},
{
segmentType = line;
smooth = 0;
x = 367;
y = 436;
},
{
smooth = 0;
x = 359;
y = 437;
},
{
smooth = 0;
x = 349;
y = 437;
},
{
segmentType = curve;
smooth = 1;
x = 340;
y = 437;
},
{
smooth = 0;
x = 236;
y = 437;
},
{
smooth = 0;
x = 56;
y = 358;
},
{
segmentType = curve;
smooth = 1;
x = 51;
y = 181;
},
{
smooth = 0;
x = 47;
y = 54;
},
{
smooth = 0;
x = 156;
y = -50;
},
{
segmentType = curve;
smooth = 1;
x = 337;
y = -49;
}
);
}
);
lib = {
};
name = sinTta;
unicodes = (
);
width = 760;
};
};
};
width = 611;
}
);
unicode = 3495;
},
{
glyphname = sinTtha;
lastChange = "2024-04-05 03:00:42 +0000";
layers = (
{
layerId = "51BB9282-3B82-4DF1-A67A-294D3E37D73A";
shapes = (
{
closed = 1;
nodes = (
(546,-18,o),
(608,119,o),
(608,257,cs),
(608,518,o),
(384,640,o),
(222,640,c),
(211,570,l),
(375,570,o),
(563,445,o),
(563,262,cs),
(563,160,o),
(505,80,o),
(423,80,cs),
(374,80,o),
(332,109,o),
(332,162,cs),
(332,168,o),
(332,173,o),
(333,179,c),
(313,174,l),
(295,115,o),
(252,78,o),
(189,78,cs),
(131,78,o),
(84,109,o),
(84,171,cs),
(84,246,o),
(157,280,o),
(243,280,cs),
(264,280,o),
(285,278,o),
(308,274,c),
(318,286,l),
(315,311,o),
(301,347,o),
(290,357,c),
(193,361,o),
(44,300,o),
(44,152,cs),
(44,64,o),
(97,-15,o),
(184,-15,cs),
(266,-15,o),
(316,55,o),
(321,104,c),
(322,104,o),
(303,108,o),
(304,110,c),
(305,70,o),
(324,-18,o),
(423,-18,cs)
);
},
{
closed = 1;
nodes = (
(400,419,o),
(465,436,o),
(489,455,c),
(474,480,l),
(454,472,o),
(425,465,o),
(385,465,cs),
(258,465,o),
(232,528,o),
(222,640,c),
(192,623,l),
(189,603,o),
(187,583,o),
(187,565,cs),
(187,480,o),
(231,419,o),
(341,419,cs)
);
}
);
userData = {
com.typemytype.robofont.layerData = {
background = {
anchors = (
);
components = (
);
contours = (
{
points = (
{
smooth = 0;
x = 326;
y = 562;
},
{
smooth = 0;
x = 282;
y = 683;
},
{
segmentType = curve;
smooth = 0;
x = 306;
y = 837;
},
{
segmentType = line;
smooth = 0;
x = 346;
y = 858;
},
{
smooth = 0;
x = 353;
y = 817;
},
{
smooth = 0;
x = 351;
y = 738;
},
{
segmentType = curve;
smooth = 1;
x = 400;
y = 682;
},
{
smooth = 0;
x = 465;
y = 607;
},
{
smooth = 0;
x = 613;
y = 613;
},
{
segmentType = curve;
smooth = 0;
x = 674;
y = 638;
},
{
segmentType = line;
smooth = 0;
x = 685;
y = 611;
},
{
smooth = 0;
x = 653;
y = 584;
},
{
smooth = 0;
x = 578;
y = 562;
},
{
segmentType = curve;
smooth = 1;
x = 504;
y = 562;
}
);
},
{
points = (
{
segmentType = move;
smooth = 0;
x = 700;
y = 395;
},
{
smooth = 0;
x = 698;
y = 597;
},
{
smooth = 0;
x = 536;
y = 764;
},
{
segmentType = curve;
smooth = 0;
x = 331;
y = 764;
},
{
segmentType = line;
smooth = 0;
x = 346;
y = 857;
},
{
smooth = 0;
x = 550;
y = 857;
},
{
smooth = 0;
x = 756;
y = 666;
},
{
segmentType = curve;
smooth = 0;
x = 752;
y = 403;
}
);
}
);
lib = {
};
name = sinTtha;
unicodes = (
);
width = 827;
};
};
};
width = 650;
}
);
unicode = 3496;
},
{
glyphname = sinDda;
lastChange = "2024-04-05 03:00:42 +0000";
layers = (
{
layerId = "51BB9282-3B82-4DF1-A67A-294D3E37D73A";
shapes = (
{
closed = 1;
nodes = (
(603,-19,o),
(661,128,o),
(661,262,cs),
(661,451,o),
(546,610,o),
(339,610,cs),
(244,610,o),
(178,588,o),
(137,569,c),
(127,553,o),
(123,518,o),
(125,497,c),
(133,501,o),
(206,541,o),
(335,541,cs),
(475,541,o),
(615,465,o),
(615,288,cs),
(615,185,o),
(566,64,o),
(468,64,cs),
(416,64,o),
(386,98,o),
(386,148,cs),
(386,157,o),
(387,163,o),
(388,170,c),
(368,165,l),
(351,107,o),
(315,65,o),
(244,65,cs),
(176,65,o),
(139,103,o),
(139,160,cs),
(139,231,o),
(187,264,o),
(272,264,cs),
(310,264,o),
(336,258,o),
(351,251,c),
(363,259,l),
(365,268,o),
(365,272,o),
(365,292,cs),
(365,382,o),
(307,450,o),
(224,450,cs),
(168,450,o),
(132,420,o),
(132,384,cs),
(132,358,o),
(151,335,o),
(193,339,c),
(193,357,o),
(211,396,o),
(257,396,cs),
(286,396,o),
(320,381,o),
(320,336,cs),
(320,329,o),
(319,320,o),
(317,311,c),
(302,304,o),
(310,308,o),
(299,306,cs),
(184,300,o),
(92,255,o),
(92,131,cs),
(92,38,o),
(148,-15,o),
(233,-15,cs),
(326,-15,o),
(368,50,o),
(371,95,c),
(373,97,o),
(365,92,o),
(367,94,c),
(365,82,l),
(365,27,o),
(399,-19,o),
(472,-19,cs)
);
},
{
closed = 1;
nodes = (
(88,246,o),
(163,294,o),
(318,301,c),
(352,314,l),
(263,315,o),
(117,305,o),
(52,293,c),
(45,272,o),
(41,250,o),
(40,226,c),
(50,219,l)
);
}
);
width = 696;
}
);
unicode = 3497;
},
{
glyphname = sinDdha;
lastChange = "2024-04-05 03:00:42 +0000";
layers = (
{
layerId = "51BB9282-3B82-4DF1-A67A-294D3E37D73A";
shapes = (
{
closed = 1;
nodes = (
(603,-19,o),
(654,148,o),
(654,266,cs),
(654,497,o),
(457,639,o),
(294,639,c),
(267,566,l),
(281,567,o),
(277,567,o),
(283,567,cs),
(472,567,o),
(613,434,o),
(613,274,cs),
(613,188,o),
(573,64,o),
(470,64,cs),
(416,64,o),
(386,98,o),
(386,148,cs),
(386,157,o),
(387,163,o),
(388,170,c),
(368,165,l),
(352,107,o),
(314,65,o),
(239,65,cs),
(176,65,o),
(140,94,o),
(140,145,cs),
(140,211,o),
(198,244,o),
(264,244,cs),
(288,244,o),
(310,240,o),
(331,230,c),
(343,239,l),
(345,248,o),
(345,252,o),
(345,272,cs),
(345,361,o),
(287,430,o),
(204,430,cs),
(148,430,o),
(112,400,o),
(112,363,cs),
(112,338,o),
(131,315,o),
(173,319,c),
(173,337,o),
(191,375,o),
(237,375,cs),
(266,375,o),
(300,360,o),
(300,316,cs),
(300,309,o),
(299,299,o),
(297,290,c),
(292,288,o),
(290,288,o),
(279,286,cs),
(200,272,o),
(92,242,o),
(92,124,cs),
(92,39,o),
(149,-15,o),
(233,-15,cs),
(325,-15,o),
(368,50,o),
(371,95,c),
(367,94,l),
(366,82,l),
(366,20,o),
(407,-19,o),
(471,-19,cs)
);
},
{
closed = 1;
nodes = (
(68,225,o),
(173,274,o),
(298,281,c),
(332,293,l),
(243,294,o),
(97,285,o),
(32,273,c),
(25,252,o),
(21,229,o),
(20,206,c),
(30,199,l)
);
},
{
closed = 1;
nodes = (
(485,423,o),
(542,446,o),
(559,459,c),
(550,483,l),
(529,474,o),
(496,468,o),
(459,468,cs),
(322,468,o),
(294,546,o),
(294,639,c),
(263,623,l),
(261,615,o),
(258,594,o),
(258,572,cs),
(258,474,o),
(318,423,o),
(417,423,cs)
);
}
);
width = 695;
}
);
metricRight = "=sinTta";
unicode = 3498;
},
{
glyphname = sinNna;
lastChange = "2024-04-05 03:00:42 +0000";
layers = (
{
anchors = (
{
name = Virama;
pos = (840,377);
}
);
layerId = "51BB9282-3B82-4DF1-A67A-294D3E37D73A";
shapes = (
{
closed = 1;
nodes = (
(493,-11,o),
(535,160,o),
(535,247,cs),
(535,361,o),
(468,472,o),
(322,472,cs),
(209,472,o),
(115,398,o),
(115,279,cs),
(115,188,o),
(198,124,o),
(285,124,cs),
(353,124,o),
(401,165,o),
(401,221,cs),
(401,265,o),
(367,299,o),
(310,299,cs),
(269,299,o),
(247,280,o),
(210,245,c),
(200,209,l),
(226,236,o),
(254,266,o),
(292,266,cs),
(322,266,o),
(342,251,o),
(342,226,cs),
(342,185,o),
(307,166,o),
(276,166,cs),
(241,166,o),
(152,184,o),
(152,280,cs),
(152,368,o),
(214,414,o),
(315,414,cs),
(429,414,o),
(501,328,o),
(501,246,cs),
(501,147,o),
(435,71,o),
(307,71,cs),
(177,71,o),
(143,89,o),
(72,89,cs),
(61,89,o),
(49,87,o),
(34,81,c),
(75,66,l),
(170,193,o),
(457,473,o),
(634,584,c),
(631,603,o),
(608,635,o),
(589,640,c),
(411,486,o),
(175,252,o),
(51,89,c),
(29,87,o),
(10,72,o),
(10,49,cs),
(10,39,o),
(14,31,o),
(16,28,c),
(24,23,o),
(39,24,o),
(50,32,c),
(50,37,o),
(48,49,o),
(72,49,cs),
(151,49,o),
(181,-11,o),
(324,-11,cs)
);
},
{
closed = 1;
nodes = (
(839,-26,o),
(899,107,o),
(899,235,cs),
(899,356,o),
(846,411,o),
(781,411,cs),
(718,411,o),
(674,350,o),
(658,292,c),
(659,283,l),
(662,316,o),
(649,358,o),
(610,358,cs),
(562,358,o),
(526,303,o),
(523,257,c),
(530,194,l),
(542,258,o),
(556,292,o),
(587,292,cs),
(637,292,o),
(638,222,o),
(635,166,c),
(641,165,o),
(657,165,o),
(666,168,c),
(677,263,o),
(705,325,o),
(775,325,cs),
(812,325,o),
(866,302,o),
(866,214,cs),
(866,126,o),
(811,52,o),
(704,52,cs),
(660,52,o),
(621,64,o),
(589,80,c),
(579,74,o),
(569,62,o),
(567,52,c),
(573,22,o),
(616,-26,o),
(701,-26,cs)
);
}
);
userData = {
com.typemytype.robofont.layerData = {
"Regular Oct 20 16, 02:48" = {
anchors = (
);
components = (
);
contours = (
{
points = (
{
segmentType = line;
smooth = 0;
x = 28;
y = 97;
},
{
smooth = 0;
x = 25;
y = 102.963;
},
{
smooth = 0;
x = 18.592;
y = 120.812;
},
{
segmentType = curve;
smooth = 1;
x = 25;
y = 142;
},
{
smooth = 0;
x = 32.234;
y = 165.92;
},
{
smooth = 0;
x = 60.559;
y = 176.889;
},
{
segmentType = curve;
smooth = 0;
x = 87;
y = 183;
},
{
smooth = 0;
x = 258.424;
y = 398.788;
},
{
smooth = 0;
x = 415.657;
y = 637.287;
},
{
segmentType = curve;
smooth = 0;
x = 644.114;
y = 834;
},
{
smooth = 0;
x = 655.424;
y = 828.275;
},
{
smooth = 0;
x = 693.356;
y = 807.518;
},
{
segmentType = curve;
smooth = 0;
x = 692.551;
y = 766;
},
{
smooth = 0;
x = 477.663;
y = 629.514;
},
{
smooth = 0;
x = 271.488;
y = 349.133;
},
{
segmentType = curve;
smooth = 0;
x = 137.643;
y = 182;
},
{
smooth = 0;
x = 253.335;
y = 187.191;
},
{
smooth = 0;
x = 258.601;
y = 95.489;
},
{
segmentType = curve;
smooth = 1;
x = 441.04;
y = 91;
},
{
smooth = 0;
x = 615.771;
y = 86.701;
},
{
smooth = 0;
x = 689.237;
y = 184.328;
},
{
segmentType = curve;
smooth = 1;
x = 698.723;
y = 300;
},
{
smooth = 0;
x = 707.12;
y = 402.947;
},
{
smooth = 0;
x = 610.03;
y = 489;
},
{
segmentType = curve;
smooth = 1;
x = 496.89;
y = 489;
},
{
smooth = 0;
x = 382.726;
y = 489;
},
{
smooth = 0;
x = 340.663;
y = 410.417;
},
{
segmentType = curve;
smooth = 1;
x = 338.988;
y = 346;
},
{
smooth = 0;
x = 334.993;
y = 220.082;
},
{
smooth = 0;
x = 414.476;
y = 206;
},
{
segmentType = curve;
smooth = 1;
x = 440;
y = 206;
},
{
smooth = 0;
x = 469.212;
y = 206;
},
{
smooth = 0;
x = 500.479;
y = 221.47;
},
{
segmentType = curve;
smooth = 1;
x = 502.988;
y = 256;
},
{
smooth = 0;
x = 506;
y = 297;
},
{
smooth = 0;
x = 471;
y = 337;
},
{
segmentType = curve;
smooth = 1;
x = 420;
y = 340;
},
{
smooth = 0;
x = 381;
y = 342;
},
{
smooth = 0;
x = 346;
y = 329;
},
{
segmentType = curve;
smooth = 0;
x = 311.403;
y = 293;
},
{
segmentType = line;
smooth = 1;
x = 321.496;
y = 352;
},
{
smooth = 0;
x = 369.448;
y = 398.244;
},
{
smooth = 0;
x = 411.263;
y = 409.109;
},
{
segmentType = curve;
smooth = 1;
x = 450.432;
y = 408.938;
},
{
smooth = 0;
x = 539.853;
y = 408.546;
},
{
smooth = 0;
x = 588.079;
y = 348.131;
},
{
segmentType = curve;
smooth = 1;
x = 584.465;
y = 279;
},
{
smooth = 0;
x = 580.692;
y = 206.85;
},
{
smooth = 0;
x = 528.761;
y = 162;
},
{
segmentType = curve;
smooth = 1;
x = 448.966;
y = 162;
},
{
smooth = 0;
x = 346.22;
y = 162;
},
{
smooth = 0;
x = 281.097;
y = 242.486;
},
{
segmentType = curve;
smooth = 1;
x = 286.456;
y = 334;
},
{
smooth = 0;
x = 291.518;
y = 440.308;
},
{
smooth = 0;
x = 340.537;
y = 481.553;
},
{
segmentType = curve;
smooth = 0;
x = 410;
y = 515;
},
{
smooth = 0;
x = 434;
y = 540;
},
{
smooth = 0;
x = 469;
y = 556;
},
{
segmentType = curve;
smooth = 0;
x = 486;
y = 561.193;
},
{
smooth = 0;
x = 495.386;
y = 563.717;
},
{
smooth = 0;
x = 505.11;
y = 565;
},
{
segmentType = curve;
smooth = 1;
x = 515.086;
y = 565;
},
{
smooth = 0;
x = 662.006;
y = 565;
},
{
smooth = 0;
x = 756.191;
y = 453.418;
},
{
segmentType = curve;
smooth = 1;
x = 748.308;
y = 303;
},
{
smooth = 0;
x = 742.426;
y = 190.77;
},
{
smooth = 0;
x = 668.449;
y = -9.409;
},
{
segmentType = curve;
smooth = 1;
x = 471.799;
y = -11;
},
{
smooth = 0;
x = 235.818;
y = -12.909;
},
{
smooth = 0;
x = 243.882;
y = 132.151;
},
{
segmentType = curve;
smooth = 1;
x = 112.019;
y = 133;
},
{
smooth = 0;
x = 84.627;
y = 133.176;
},
{
smooth = 0;
x = 72.632;
y = 120.883;
},
{
segmentType = curve;
smooth = 0;
x = 60.241;
y = 114;
}
);
},
{
points = (
{
segmentType = curve;
smooth = 0;
x = 740.425;
y = 248;
},
{
smooth = 0;
x = 732.964;
y = 248;
},
{
smooth = 0;
x = 730.169;
y = 259.429;
},
{
segmentType = curve;
smooth = 0;
x = 731.617;
y = 328;
},
{
smooth = 0;
x = 736.165;
y = 385.644;
},
{
smooth = 0;
x = 779.953;
y = 458.204;
},
{
segmentType = curve;
smooth = 1;
x = 841.012;
y = 459;
},
{
smooth = 0;
x = 891.771;
y = 459.662;
},
{
smooth = 0;
x = 916.444;
y = 417.347;
},
{
segmentType = curve;
smooth = 0;
x = 912.032;
y = 375;
},
{
segmentType = line;
smooth = 0;
x = 901.976;
y = 393;
},
{
smooth = 0;
x = 924.749;
y = 458.921;
},
{
smooth = 0;
x = 990.364;
y = 526.474;
},
{
segmentType = curve;
smooth = 1;
x = 1065.99;
y = 526;
},
{
smooth = 0;
x = 1150.03;
y = 525.473;
},
{
smooth = 0;
x = 1214.1;
y = 461.982;
},
{
segmentType = curve;
smooth = 1;
x = 1214.05;
y = 299;
},
{
smooth = 0;
x = 1214;
y = 160.093;
},
{
smooth = 0;
x = 1127.67;
y = -10.06;
},
{
segmentType = curve;
smooth = 1;
x = 991.855;
y = -30;
},
{
smooth = 0;
x = 872.116;
y = -47.579;
},
{
smooth = 0;
x = 782.128;
y = 13.315;
},
{
segmentType = curve;
smooth = 0;
x = 777.979;
y = 74;
},
{
smooth = 0;
x = 783.117;
y = 89;
},
{
smooth = 0;
x = 793.567;
y = 104;
},
{
segmentType = curve;
smooth = 0;
x = 806.918;
y = 110;
},
{
smooth = 0;
x = 848.814;
y = 82.349;
},
{
smooth = 0;
x = 935.935;
y = 60.869;
},
{
segmentType = curve;
smooth = 1;
x = 978.468;
y = 68;
},
{
smooth = 0;
x = 1109.99;
y = 90.05;
},
{
smooth = 0;
x = 1160.37;
y = 195.087;
},
{
segmentType = curve;
smooth = 1;
x = 1158.27;
y = 287;
},
{
smooth = 0;
x = 1155.96;
y = 387.717;
},
{
smooth = 0;
x = 1101.95;
y = 418.24;
},
{
segmentType = curve;
smooth = 1;
x = 1050.23;
y = 415;
},
{
smooth = 0;
x = 966.716;
y = 409.768;
},
{
smooth = 0;
x = 920.161;
y = 308.776;
},
{
segmentType = curve;
smooth = 0;
x = 916.368;
y = 266;
},
{
smooth = 0;
x = 903.848;
y = 262;
},
{
smooth = 0;
x = 883.219;
y = 262;
},
{
segmentType = curve;
smooth = 0;
x = 875.211;
y = 263;
},
{
smooth = 0;
x = 881.463;
y = 337.694;
},
{
smooth = 0;
x = 844.281;
y = 375.648;
},
{
segmentType = curve;
smooth = 1;
x = 815.028;
y = 374;
},
{
smooth = 0;
x = 773.101;
y = 371.638;
},
{
smooth = 0;
x = 758.611;
y = 337.557;
}
);
}
);
lib = {
};
name = sinNna;
unicodes = (
);
width = 1253;
};
};
};
width = 937;
}
);
unicode = 3499;
},
{
glyphname = sinNndda;
lastChange = "2024-04-05 03:00:42 +0000";
layers = (
{
layerId = "51BB9282-3B82-4DF1-A67A-294D3E37D73A";
shapes = (
{
closed = 1;
nodes = (
(147,-6,o),
(158,-2,o),
(163,1,c),
(141,34,o),
(98,81,o),
(98,187,cs),
(98,263,o),
(117,384,o),
(260,384,cs),
(273,384,o),
(273,384,o),
(280,382,c),
(285,393,l),
(385,397,l),
(382,426,l),
(375,428,o),
(363,430,o),
(345,431,cs),
(332,432,o),
(321,433,o),
(295,433,cs),
(136,433,o),
(44,344,o),
(44,184,cs),
(44,87,o),
(92,28,o),
(128,-6,c)
);
},
{
pos = (121,0);
ref = sinDda;
}
);
width = 817;
}
);
unicode = 3500;
},
{
glyphname = sinTa;
lastChange = "2024-04-05 03:00:42 +0000";
layers = (
{
anchors = (
{
name = MatraI;
pos = (300,345);
},
{
name = Virama;
pos = (674,400);
},
{
name = rakaransaya;
pos = (769,220);
}
);
layerId = "51BB9282-3B82-4DF1-A67A-294D3E37D73A";
shapes = (
{
closed = 1;
nodes = (
(413,-7,o),
(499,108,o),
(499,204,cs),
(499,279,o),
(448,317,o),
(377,317,cs),
(332,317,o),
(292,302,o),
(262,285,cs),
(216,258,o),
(222,261,o),
(206,249,c),
(217,260,o),
(231,273,o),
(252,289,cs),
(312,335,o),
(389,378,o),
(501,378,cs),
(631,378,o),
(725,320,o),
(725,211,cs),
(725,125,o),
(667,73,o),
(543,73,cs),
(539,73,o),
(538,73,o),
(513,77,c),
(503,72,l),
(507,44,o),
(528,5,o),
(541,-6,c),
(710,-1,o),
(770,130,o),
(770,236,cs),
(770,380,o),
(662,462,o),
(538,462,cs),
(429,462,o),
(319,400,o),
(242,327,cs),
(182,270,o),
(83,154,o),
(32,90,c),
(28,68,o),
(57,54,o),
(58,53,c),
(82,115,o),
(133,162,o),
(162,186,cs),
(209,225,o),
(258,251,o),
(342,251,cs),
(411,251,o),
(459,233,o),
(459,187,cs),
(459,141,o),
(414,71,o),
(287,71,cs),
(178,71,o),
(155,122,o),
(109,122,cs),
(94,122,o),
(71,117,o),
(57,103,c),
(61,59,l),
(61,79,o),
(80,96,o),
(94,96,cs),
(129,96,o),
(147,-7,o),
(276,-7,cs)
);
},
{
closed = 1;
nodes = (
(205,280,l),
(224,298,o),
(267,360,o),
(267,403,cs),
(267,441,o),
(231,458,o),
(187,458,cs),
(108,458,o),
(32,403,o),
(32,333,cs),
(32,301,o),
(47,284,o),
(80,284,cs),
(96,284,o),
(113,288,o),
(121,293,c),
(115,300,o),
(103,323,o),
(103,350,cs),
(103,382,o),
(120,423,o),
(166,423,cs),
(200,423,o),
(216,401,o),
(216,367,cs),
(216,335,o),
(201,284,o),
(182,262,c)
);
}
);
width = 798;
}
);
unicode = 3501;
},
{
glyphname = sinTha;
lastChange = "2024-04-05 03:00:42 +0000";
layers = (
{
layerId = "51BB9282-3B82-4DF1-A67A-294D3E37D73A";
shapes = (
{
closed = 1;
nodes = (
(450,-18,o),
(559,114,o),
(559,281,cs),
(559,498,o),
(375,639,o),
(216,639,c),
(193,574,l),
(353,574,o),
(513,457,o),
(513,295,cs),
(513,177,o),
(426,70,o),
(268,70,cs),
(164,70,o),
(81,117,o),
(81,196,cs),
(81,263,o),
(141,299,o),
(232,299,cs),
(244,299,o),
(254,298,o),
(260,297,c),
(270,313,l),
(270,332,o),
(260,370,o),
(249,386,c),
(151,387,o),
(40,297,o),
(40,172,cs),
(40,47,o),
(148,-18,o),
(272,-18,cs)
);
},
{
closed = 1;
nodes = (
(398,423,o),
(457,440,o),
(481,462,c),
(473,483,l),
(452,474,o),
(418,468,o),
(382,468,cs),
(263,468,o),
(216,523,o),
(216,639,c),
(185,623,l),
(183,614,o),
(180,594,o),
(180,572,cs),
(180,477,o),
(234,423,o),
(338,423,cs)
);
}
);
width = 597;
}
);
unicode = 3502;
},
{
glyphname = sinDa;
lastChange = "2024-04-05 03:00:42 +0000";
layers = (
{
anchors = (
{
name = Virama;
pos = (358,416);
}
);
layerId = "51BB9282-3B82-4DF1-A67A-294D3E37D73A";
shapes = (
{
closed = 1;
nodes = (
(334,-33,o),
(384,-22,o),
(417,-10,c),
(425,7,o),
(430,27,o),
(430,56,c),
(422,66,l),
(376,46,o),
(320,34,o),
(257,34,cs),
(160,34,o),
(80,59,o),
(80,130,cs),
(80,206,o),
(147,264,o),
(297,264,cs),
(319,264,o),
(369,261,o),
(395,257,c),
(409,275,l),
(414,361,o),
(370,472,o),
(247,472,cs),
(172,472,o),
(119,435,o),
(119,382,cs),
(119,352,o),
(140,334,o),
(174,334,cs),
(184,334,o),
(194,336,o),
(206,338,c),
(204,345,o),
(204,351,o),
(204,358,cs),
(204,400,o),
(240,422,o),
(275,422,cs),
(326,422,o),
(345,386,o),
(349,324,c),
(337,327,o),
(325,328,o),
(300,328,cs),
(139,328,o),
(40,249,o),
(40,127,cs),
(40,19,o),
(143,-33,o),
(260,-33,cs)
);
},
{
closed = 1;
nodes = (
(416,-243,o),
(445,-237,o),
(479,-221,c),
(482,-198,o),
(477,-158,o),
(459,-147,c),
(423,-170,o),
(394,-176,o),
(372,-176,cs),
(308,-176,o),
(285,-148,o),
(285,-116,cs),
(285,-26,o),
(380,-24,o),
(416,-11,c),
(412,-9,o),
(409,2,o),
(405,4,c),
(398,5,o),
(383,-8,o),
(385,-1,cs),
(391,24,l),
(337,0,o),
(233,-26,o),
(233,-132,cs),
(233,-187,o),
(271,-243,o),
(373,-243,cs)
);
}
);
width = 483;
}
);
unicode = 3503;
},
{
glyphname = sinDha;
lastChange = "2024-04-05 03:00:42 +0000";
layers = (
{
layerId = "51BB9282-3B82-4DF1-A67A-294D3E37D73A";
shapes = (
{
closed = 1;
nodes = (
(566,-16,o),
(620,118,o),
(620,271,cs),
(620,466,o),
(510,606,o),
(295,606,cs),
(194,606,o),
(131,585,o),
(99,562,c),
(90,547,o),
(85,524,o),
(85,506,cs),
(85,498,o),
(86,491,o),
(88,486,c),
(120,506,o),
(172,533,o),
(290,533,cs),
(425,533,o),
(573,480,o),
(573,288,cs),
(573,153,o),
(525,66,o),
(444,66,cs),
(401,66,o),
(349,80,o),
(349,151,c),
(350,160,l),
(331,156,l),
(313,110,o),
(283,70,o),
(213,70,cs),
(141,70,o),
(83,113,o),
(83,195,cs),
(83,266,o),
(138,316,o),
(258,316,cs),
(282,316,o),
(309,313,o),
(336,306,c),
(347,320,l),
(345,342,o),
(337,368,o),
(327,388,c),
(316,389,o),
(304,390,o),
(290,390,cs),
(149,390,o),
(44,314,o),
(44,175,cs),
(44,51,o),
(119,-15,o),
(208,-15,cs),
(295,-15,o),
(332,49,o),
(337,84,c),
(329,107,l),
(328,101,o),
(327,95,o),
(327,86,cs),
(327,30,o),
(377,-16,o),
(453,-16,cs)
);
}
);
width = 656;
}
);
unicode = 3504;
},
{
glyphname = sinNa;
lastChange = "2024-04-05 03:00:42 +0000";
layers = (
{
anchors = (
{
name = MatraI;
pos = (336,353);
},
{
name = Virama;
pos = (664,423);
}
);
layerId = "51BB9282-3B82-4DF1-A67A-294D3E37D73A";
shapes = (
{
closed = 1;
nodes = (
(701,-21,o),
(789,119,o),
(789,252,cs),
(789,402,o),
(666,458,o),
(561,458,cs),
(456,458,o),
(344,402,o),
(253,299,cs),
(191,229,o),
(131,133,o),
(83,133,cs),
(68,133,o),
(60,143,o),
(60,158,cs),
(60,162,o),
(60,167,o),
(62,172,c),
(59,173,o),
(53,174,o),
(46,174,cs),
(39,174,o),
(30,173,o),
(25,171,c),
(34,85,o),
(100,-15,o),
(249,-15,cs),
(393,-15,o),
(488,78,o),
(488,195,cs),
(488,269,o),
(448,307,o),
(391,307,cs),
(329,307,o),
(267,263,o),
(209,216,c),
(204,200,l),
(208,206,o),
(248,254,o),
(268,274,cs),
(327,332,o),
(435,373,o),
(531,373,cs),
(637,373,o),
(740,321,o),
(740,208,cs),
(740,109,o),
(659,57,o),
(562,57,cs),
(543,57,o),
(530,59,o),
(509,61,c),
(497,56,l),
(497,29,o),
(519,-6,o),
(533,-18,c)
);
},
{
closed = 1;
nodes = (
(174,67,o),
(104,78,o),
(76,117,c),
(73,93,l),
(176,94,o),
(198,244,o),
(363,244,cs),
(422,244,o),
(452,226,o),
(452,186,cs),
(452,122,o),
(374,67,o),
(236,67,cs)
);
},
{
closed = 1;
nodes = (
(262,290,o),
(307,356,o),
(307,399,cs),
(307,432,o),
(281,454,o),
(230,454,cs),
(150,454,o),
(72,401,o),
(72,330,cs),
(72,296,o),
(89,280,o),
(122,280,cs),
(137,280,o),
(153,283,o),
(164,288,c),
(156,297,o),
(148,319,o),
(148,342,cs),
(148,385,o),
(174,419,o),
(209,419,cs),
(238,419,o),
(260,395,o),
(260,360,cs),
(260,332,o),
(244,291,o),
(233,276,c),
(240,269,l)
);
}
);
userData = {
com.typemytype.robofont.layerData = {
"Regular Nov 5 16, 12:40" = {
anchors = (
{
name = Virama;
x = 869;
y = 542;
}
);
components = (
);
contours = (
{
points = (
{
segmentType = line;
smooth = 0;
x = 116.207;
y = 146;
},
{
smooth = 0;
x = 163.174;
y = 97.984;
},
{
smooth = 0;
x = 227.114;
y = 84.691;
},
{
segmentType = curve;
smooth = 1;
x = 335.442;
y = 88;
},
{
smooth = 0;
x = 427.739;
y = 90.842;
},
{
smooth = 0;
x = 582.314;
y = 137.947;
},
{
segmentType = curve;
smooth = 1;
x = 593.535;
y = 235;
},
{
smooth = 0;
x = 598.385;
y = 276.951;
},
{
smooth = 0;
x = 556.606;
y = 312;
},
{
segmentType = curve;
smooth = 1;
x = 488.606;
y = 312;
},
{
smooth = 0;
x = 303.606;
y = 312;
},
{
smooth = 0;
x = 224;
y = 141;
},
{
segmentType = curve;
smooth = 0;
x = 112;
y = 140;
}
);
},
{
points = (
{
segmentType = curve;
smooth = 1;
x = 111.813;
y = 438;
},
{
smooth = 0;
x = 121.246;
y = 528;
},
{
smooth = 0;
x = 222.053;
y = 594;
},
{
segmentType = curve;
smooth = 1;
x = 323.164;
y = 594;
},
{
smooth = 0;
x = 389.164;
y = 594;
},
{
smooth = 0;
x = 429.544;
y = 569;
},
{
segmentType = curve;
smooth = 1;
x = 423.359;
y = 510;
},
{
smooth = 0;
x = 419.271;
y = 471;
},
{
smooth = 0;
x = 364.943;
y = 382;
},
{
segmentType = curve;
smooth = 0;
x = 338.323;
y = 357;
},
{
segmentType = line;
smooth = 0;
x = 328.267;
y = 366;
},
{
smooth = 0;
x = 343.468;
y = 387;
},
{
smooth = 0;
x = 358.45;
y = 425;
},
{
segmentType = curve;
smooth = 1;
x = 362.538;
y = 464;
},
{
smooth = 0;
x = 367.674;
y = 513;
},
{
smooth = 0;
x = 339.343;
y = 549;
},
{
segmentType = curve;
smooth = 1;
x = 293.343;
y = 549;
},
{
smooth = 0;
x = 252.871;
y = 549;
},
{
smooth = 0;
x = 225.045;
y = 507;
},
{
segmentType = curve;
smooth = 1;
x = 220.224;
y = 461;
},
{
smooth = 0;
x = 216.45;
y = 425;
},
{
smooth = 0;
x = 230.201;
y = 394;
},
{
segmentType = curve;
smooth = 0;
x = 239.943;
y = 382;
},
{
smooth = 0;
x = 226.21;
y = 375;
},
{
smooth = 0;
x = 203.79;
y = 371;
},
{
segmentType = curve;
smooth = 1;
x = 187.79;
y = 371;
},
{
smooth = 0;
x = 135.761;
y = 371;
},
{
smooth = 0;
x = 106.991;
y = 392;
}
);
},
{
points = (
{
segmentType = curve;
smooth = 0;
x = 49.753;
y = 218;
},
{
smooth = 0;
x = 61.897;
y = 224.157;
},
{
smooth = 0;
x = 91.538;
y = 223.364;
},
{
segmentType = curve;
smooth = 0;
x = 97.915;
y = 220;
},
{
smooth = 0;
x = 92.189;
y = 191;
},
{
smooth = 0;
x = 97.723;
y = 170;
},
{
segmentType = curve;
smooth = 1;
x = 126.723;
y = 170;
},
{
smooth = 0;
x = 187.723;
y = 170;
},
{
smooth = 0;
x = 283.787;
y = 315.112;
},
{
segmentType = curve;
smooth = 1;
x = 343.048;
y = 383;
},
{
smooth = 0;
x = 469.106;
y = 521;
},
{
smooth = 0;
x = 620.78;
y = 592;
},
{
segmentType = curve;
smooth = 1;
x = 743.954;
y = 592;
},
{
smooth = 0;
x = 922.278;
y = 592;
},
{
smooth = 0;
x = 1046.36;
y = 474.483;
},
{
segmentType = curve;
smooth = 1;
x = 1025.72;
y = 294;
},
{
smooth = 0;
x = 1009.67;
y = 151.066;
},
{
smooth = 0;
x = 926.346;
y = -25.467;
},
{
segmentType = curve;
smooth = 0;
x = 701.227;
y = -24;
},
{
smooth = 0;
x = 662.952;
y = 2;
},
{
smooth = 0;
x = 651.717;
y = 47;
},
{
segmentType = curve;
smooth = 1;
x = 654.232;
y = 71;
},
{
segmentType = line;
smooth = 0;
x = 669.966;
y = 78;
},
{
smooth = 0;
x = 702.743;
y = 74;
},
{
smooth = 0;
x = 720.897;
y = 70.291;
},
{
segmentType = curve;
smooth = 1;
x = 752.394;
y = 73;
},
{
smooth = 0;
x = 857.042;
y = 82;
},
{
smooth = 0;
x = 952.272;
y = 127.629;
},
{
segmentType = curve;
smooth = 1;
x = 966.147;
y = 260;
},
{
smooth = 0;
x = 980.053;
y = 390.232;
},
{
smooth = 0;
x = 843.22;
y = 484;
},
{
segmentType = curve;
smooth = 1;
x = 699.529;
y = 484;
},
{
smooth = 0;
x = 571.702;
y = 484;
},
{
smooth = 0;
x = 455.857;
y = 433.006;
},
{
segmentType = curve;
smooth = 1;
x = 361.589;
y = 350;
},
{
smooth = 0;
x = 343;
y = 333;
},
{
smooth = 0;
x = 303;
y = 290;
},
{
segmentType = curve;
smooth = 0;
x = 307;
y = 286;
},
{
segmentType = line;
smooth = 0;
x = 286;
y = 277;
},
{
smooth = 0;
x = 360;
y = 336;
},
{
smooth = 0;
x = 445;
y = 394;
},
{
segmentType = curve;
smooth = 1;
x = 513;
y = 394;
},
{
smooth = 0;
x = 592;
y = 394;
},
{
smooth = 0;
x = 639;
y = 344;
},
{
segmentType = curve;
smooth = 1;
x = 640;
y = 261;
},
{
smooth = 0;
x = 640;
y = 89;
},
{
smooth = 0;
x = 521;
y = -19;
},
{
segmentType = curve;
smooth = 1;
x = 329.96;
y = -19;
},
{
smooth = 0;
x = 153.96;
y = -19;
},
{
smooth = 0;
x = 61.224;
y = 108;
}
);
}
);
lib = {
};
name = sinNa;
unicodes = (
);
width = 1072;
};
};
};
width = 813;
}
);
unicode = 3505;
},
{
glyphname = sinNda;
lastChange = "2024-04-05 03:00:42 +0000";
layers = (
{
layerId = "51BB9282-3B82-4DF1-A67A-294D3E37D73A";
shapes = (
{
closed = 1;
nodes = (
(116,5,o),
(127,9,o),
(131,13,c),
(117,38,o),
(92,106,o),
(92,179,cs),
(92,298,o),
(161,430,o),
(266,421,c),
(349,471,l),
(335,473,o),
(321,474,o),
(307,474,cs),
(170,474,o),
(30,371,o),
(30,203,cs),
(30,115,o),
(71,37,o),
(97,5,c)
);
},
{
pos = (111,0);
ref = sinDa;
}
);
width = 581;
}
);
unicode = 3507;
},
{
glyphname = sinPa;
lastChange = "2024-04-05 03:00:42 +0000";
layers = (
{
anchors = (
{
name = _si_MaU;
pos = (573,199);
},
{
name = rakar;
pos = (578,168);
}
);
layerId = "51BB9282-3B82-4DF1-A67A-294D3E37D73A";
shapes = (
{
closed = 1;
nodes = (
(469,-20,o),
(587,71,o),
(587,196,cs),
(587,287,o),
(526,335,o),
(444,335,cs),
(404,335,o),
(377,327,o),
(353,316,c),
(403,291,l),
(395,302,o),
(379,319,o),
(379,358,cs),
(379,407,o),
(420,422,o),
(449,422,cs),
(492,422,o),
(529,398,o),
(529,360,cs),
(529,324,o),
(508,311,o),
(503,303,c),
(514,287,l),
(541,297,o),
(576,324,o),
(576,380,cs),
(576,423,o),
(539,470,o),
(471,470,cs),
(382,470,o),
(336,403,o),
(336,304,cs),
(336,292,o),
(337,280,o),
(338,268,c),
(348,260,l),
(382,274,o),
(416,280,o),
(452,280,cs),
(506,280,o),
(550,263,o),
(550,207,cs),
(550,129,o),
(455,71,o),
(319,71,cs),
(171,71,o),
(79,118,o),
(79,182,cs),
(79,243,o),
(137,272,o),
(224,272,cs),
(244,272,o),
(265,270,o),
(287,267,c),
(299,279,l),
(303,296,o),
(305,317,o),
(305,337,cs),
(305,400,o),
(279,468,o),
(185,468,cs),
(123,468,o),
(85,433,o),
(85,396,cs),
(85,358,o),
(112,345,o),
(138,343,c),
(146,374,o),
(177,417,o),
(220,417,cs),
(254,417,o),
(269,392,o),
(269,368,cs),
(269,330,o),
(248,308,o),
(238,298,c),
(275,328,l),
(264,330,o),
(252,331,o),
(241,331,cs),
(143,331,o),
(45,275,o),
(45,172,cs),
(45,79,o),
(117,-20,o),
(314,-20,cs)
);
}
);
userData = {
com.typemytype.robofont.layerData = {
"Jan 18 17, 13:23" = {
anchors = (
{
name = _si_MaU;
x = 737;
y = 255;
},
{
name = Virama;
x = 713;
y = 527;
}
);
components = (
);
contours = (
{
points = (
{
segmentType = line;
smooth = 0;
x = 370;
y = 332;
},
{
smooth = 0;
x = 218;
y = 354;
},
{
smooth = 0;
x = 101;
y = 316;
},
{
segmentType = curve;
smooth = 1;
x = 101;
y = 233;
},
{
smooth = 0;
x = 101;
y = 151;
},
{
smooth = 0;
x = 204;
y = 85;
},
{
segmentType = curve;
smooth = 1;
x = 402;
y = 82;
},
{
smooth = 0;
x = 580;
y = 79;
},
{
smooth = 0;
x = 708;
y = 163;
},
{
segmentType = curve;
smooth = 1;
x = 708;
y = 258;
},
{
smooth = 0;
x = 708;
y = 325;
},
{
smooth = 0;
x = 652;
y = 351;
},
{
segmentType = curve;
smooth = 1;
x = 584;
y = 353;
},
{
smooth = 0;
x = 542;
y = 354;
},
{
smooth = 0;
x = 490;
y = 337;
},
{
segmentType = curve;
smooth = 0;
x = 448;
y = 322;
},
{
segmentType = line;
smooth = 0;
x = 435;
y = 333;
},
{
smooth = 0;
x = 427;
y = 472;
},
{
smooth = 0;
x = 499;
y = 588;
},
{
segmentType = curve;
smooth = 1;
x = 630;
y = 588;
},
{
smooth = 0;
x = 720;
y = 588;
},
{
smooth = 0;
x = 754;
y = 530;
},
{
segmentType = curve;
smooth = 1;
x = 749;
y = 477;
},
{
smooth = 0;
x = 742;
y = 404;
},
{
smooth = 0;
x = 678;
y = 385;
},
{
segmentType = curve;
smooth = 0;
x = 647;
y = 368;
},
{
smooth = 0;
x = 652;
y = 376;
},
{
smooth = 0;
x = 670;
y = 410;
},
{
segmentType = curve;
smooth = 1;
x = 674;
y = 444;
},
{
smooth = 0;
x = 680;
y = 499;
},
{
smooth = 0;
x = 642;
y = 531;
},
{
segmentType = curve;
smooth = 1;
x = 589;
y = 531;
},
{
smooth = 0;
x = 541;
y = 531;
},
{
smooth = 0;
x = 504;
y = 499;
},
{
segmentType = curve;
smooth = 1;
x = 499;
y = 452;
},
{
smooth = 0;
x = 494;
y = 407;
},
{
smooth = 0;
x = 513;
y = 395;
},
{
segmentType = curve;
smooth = 0;
x = 524;
y = 379;
},
{
segmentType = line;
smooth = 0;
x = 455;
y = 395;
},
{
smooth = 0;
x = 498;
y = 410;
},
{
smooth = 0;
x = 522;
y = 417;
},
{
segmentType = curve;
smooth = 1;
x = 580;
y = 416;
},
{
smooth = 0;
x = 680;
y = 414;
},
{
smooth = 0;
x = 754;
y = 354;
},
{
segmentType = curve;
smooth = 1;
x = 754;
y = 251;
},
{
smooth = 0;
x = 754;
y = 91;
},
{
smooth = 0;
x = 602;
y = -26;
},
{
segmentType = curve;
smooth = 1;
x = 417;
y = -26;
},
{
smooth = 0;
x = 152;
y = -26;
},
{
smooth = 0;
x = 60;
y = 101;
},
{
segmentType = curve;
smooth = 1;
x = 60;
y = 220;
},
{
smooth = 0;
x = 60;
y = 353;
},
{
smooth = 0;
x = 219;
y = 431;
},
{
segmentType = curve;
smooth = 0;
x = 355;
y = 410;
},
{
segmentType = line;
smooth = 0;
x = 307;
y = 372;
},
{
smooth = 0;
x = 320;
y = 383;
},
{
smooth = 0;
x = 342;
y = 406;
},
{
segmentType = curve;
smooth = 1;
x = 341;
y = 451;
},
{
smooth = 0;
x = 340;
y = 490;
},
{
smooth = 0;
x = 326;
y = 523;
},
{
segmentType = curve;
smooth = 1;
x = 284;
y = 524;
},
{
smooth = 0;
x = 229;
y = 525;
},
{
smooth = 0;
x = 189;
y = 469;
},
{
segmentType = curve;
smooth = 0;
x = 179;
y = 429;
},
{
smooth = 0;
x = 146;
y = 431;
},
{
smooth = 0;
x = 104;
y = 450;
},
{
segmentType = curve;
smooth = 1;
x = 110;
y = 498;
},
{
smooth = 0;
x = 116;
y = 544;
},
{
smooth = 0;
x = 161;
y = 589;
},
{
segmentType = curve;
smooth = 1;
x = 240;
y = 589;
},
{
smooth = 0;
x = 400;
y = 589;
},
{
smooth = 0;
x = 404;
y = 437;
},
{
segmentType = curve;
smooth = 0;
x = 384;
y = 347;
}
);
}
);
lib = {
};
name = sinPa;
unicodes = (
);
width = 816;
};
"Jan 18 17, 22:45" = {
anchors = (
{
name = _si_MaU;
x = 737;
y = 255;
},
{
name = Virama;
x = 713;
y = 527;
}
);
components = (
);
contours = (
{
points = (
{
segmentType = line;
smooth = 0;
x = 370;
y = 332;
},
{
smooth = 0;
x = 341;
y = 336;
},
{
smooth = 0;
x = 314;
y = 338;
},
{
segmentType = curve;
smooth = 1;
x = 289;
y = 338;
},
{
smooth = 0;
x = 178;
y = 338;
},
{
smooth = 0;
x = 101;
y = 300;
},
{
segmentType = curve;
smooth = 1;
x = 101;
y = 233;
},
{
smooth = 0;
x = 101;
y = 150;
},
{
smooth = 0;
x = 208;
y = 82;
},
{
segmentType = curve;
smooth = 1;
x = 411;
y = 82;
},
{
smooth = 0;
x = 584;
y = 82;
},
{
smooth = 0;
x = 708;
y = 165;
},
{
segmentType = curve;
smooth = 1;
x = 708;
y = 258;
},
{
smooth = 0;
x = 708;
y = 326;
},
{
smooth = 0;
x = 650;
y = 353;
},
{
segmentType = curve;
smooth = 1;
x = 580;
y = 353;
},
{
smooth = 0;
x = 535;
y = 353;
},
{
smooth = 0;
x = 489;
y = 337;
},
{
segmentType = curve;
smooth = 0;
x = 448;
y = 322;
},
{
segmentType = line;
smooth = 0;
x = 435;
y = 333;
},
{
smooth = 0;
x = 419;
y = 473;
},
{
smooth = 0;
x = 485;
y = 590;
},
{
segmentType = curve;
smooth = 1;
x = 624;
y = 590;
},
{
smooth = 0;
x = 714;
y = 590;
},
{
smooth = 0;
x = 746;
y = 531;
},
{
segmentType = curve;
smooth = 1;
x = 746;
y = 484;
},
{
smooth = 0;
x = 746;
y = 414;
},
{
smooth = 0;
x = 698;
y = 373;
},
{
segmentType = curve;
smooth = 0;
x = 664;
y = 360;
},
{
segmentType = line;
smooth = 0;
x = 647;
y = 378;
},
{
smooth = 0;
x = 653;
y = 387;
},
{
smooth = 0;
x = 680;
y = 408;
},
{
segmentType = curve;
smooth = 1;
x = 680;
y = 455;
},
{
smooth = 0;
x = 680;
y = 503;
},
{
smooth = 0;
x = 638;
y = 531;
},
{
segmentType = curve;
smooth = 1;
x = 589;
y = 531;
},
{
smooth = 0;
x = 536;
y = 531;
},
{
smooth = 0;
x = 489;
y = 498;
},
{
segmentType = curve;
smooth = 1;
x = 489;
y = 439;
},
{
smooth = 0;
x = 489;
y = 405;
},
{
smooth = 0;
x = 503;
y = 393;
},
{
segmentType = curve;
smooth = 0;
x = 513;
y = 379;
},
{
segmentType = line;
smooth = 0;
x = 455;
y = 395;
},
{
smooth = 0;
x = 484;
y = 409;
},
{
smooth = 0;
x = 519;
y = 416;
},
{
segmentType = curve;
smooth = 1;
x = 570;
y = 416;
},
{
smooth = 0;
x = 675;
y = 416;
},
{
smooth = 0;
x = 754;
y = 357;
},
{
segmentType = curve;
smooth = 1;
x = 754;
y = 251;
},
{
smooth = 0;
x = 754;
y = 91;
},
{
smooth = 0;
x = 602;
y = -26;
},
{
segmentType = curve;
smooth = 1;
x = 417;
y = -26;
},
{
smooth = 0;
x = 152;
y = -26;
},
{
smooth = 0;
x = 60;
y = 101;
},
{
segmentType = curve;
smooth = 1;
x = 60;
y = 220;
},
{
smooth = 0;
x = 60;
y = 339;
},
{
smooth = 0;
x = 186;
y = 413;
},
{
segmentType = curve;
smooth = 1;
x = 310;
y = 413;
},
{
smooth = 0;
x = 325;
y = 413;
},
{
smooth = 0;
x = 340;
y = 412;
},
{
segmentType = curve;
smooth = 0;
x = 355;
y = 410;
},
{
segmentType = line;
smooth = 0;
x = 307;
y = 372;
},
{
smooth = 0;
x = 320;
y = 383;
},
{
smooth = 0;
x = 347;
y = 409;
},
{
segmentType = curve;
smooth = 1;
x = 347;
y = 452;
},
{
smooth = 0;
x = 347;
y = 492;
},
{
smooth = 0;
x = 327;
y = 524;
},
{
segmentType = curve;
smooth = 1;
x = 283;
y = 524;
},
{
smooth = 0;
x = 228;
y = 524;
},
{
smooth = 0;
x = 189;
y = 469;
},
{
segmentType = curve;
smooth = 0;
x = 179;
y = 429;
},
{
smooth = 0;
x = 146;
y = 431;
},
{
smooth = 0;
x = 110;
y = 448;
},
{
segmentType = curve;
smooth = 1;
x = 110;
y = 496;
},
{
smooth = 0;
x = 110;
y = 545;
},
{
smooth = 0;
x = 160;
y = 589;
},
{
segmentType = curve;
smooth = 1;
x = 239;
y = 589;
},
{
smooth = 0;
x = 360;
y = 589;
},
{
smooth = 0;
x = 392;
y = 502;
},
{
segmentType = curve;
smooth = 1;
x = 392;
y = 421;
},
{
smooth = 0;
x = 392;
y = 395;
},
{
smooth = 0;
x = 389;
y = 369;
},
{
segmentType = curve;
smooth = 0;
x = 384;
y = 347;
}
);
}
);
lib = {
};
name = sinPa;
unicodes = (
);
width = 816;
};
};
};
width = 625;
}
);
unicode = 3508;
},
{
glyphname = sinPha;
lastChange = "2024-04-05 03:00:42 +0000";
layers = (
{
layerId = "51BB9282-3B82-4DF1-A67A-294D3E37D73A";
shapes = (
{
closed = 1;
nodes = (
(463,-14,o),
(582,113,o),
(582,302,cs),
(582,520,o),
(414,639,o),
(251,639,c),
(224,574,l),
(370,574,o),
(536,472,o),
(536,302,cs),
(536,159,o),
(441,76,o),
(287,76,cs),
(171,76,o),
(89,108,o),
(89,165,cs),
(89,223,o),
(158,244,o),
(242,244,cs),
(262,244,o),
(283,243,o),
(302,240,c),
(319,252,l),
(322,264,o),
(323,275,o),
(323,289,cs),
(323,359,o),
(279,440,o),
(177,440,cs),
(130,440,o),
(85,414,o),
(85,368,cs),
(85,342,o),
(107,325,o),
(144,329,c),
(145,338,o),
(165,382,o),
(213,382,cs),
(252,382,o),
(286,355,o),
(283,304,c),
(261,304,ls),
(177,304,o),
(50,265,o),
(50,148,cs),
(50,54,o),
(140,-14,o),
(284,-14,cs)
);
},
{
closed = 1;
nodes = (
(432,423,o),
(491,440,o),
(515,462,c),
(507,483,l),
(486,474,o),
(453,468,o),
(416,468,cs),
(297,468,o),
(251,523,o),
(251,639,c),
(219,623,l),
(217,614,o),
(214,592,o),
(214,573,cs),
(214,476,o),
(268,423,o),
(374,423,cs)
);
}
);
width = 625;
}
);
unicode = 3509;
},
{
glyphname = sinBa;
lastChange = "2024-04-05 03:00:42 +0000";
layers = (
{
layerId = "51BB9282-3B82-4DF1-A67A-294D3E37D73A";
shapes = (
{
closed = 1;
nodes = (
(566,-9,o),
(642,124,o),
(642,265,cs),
(642,469,o),
(524,606,o),
(295,606,cs),
(176,606,o),
(114,570,o),
(76,551,c),
(70,540,o),
(67,520,o),
(67,501,cs),
(67,493,o),
(68,484,o),
(69,477,cs),
(69,475,o),
(142,535,o),
(295,535,cs),
(524,535,o),
(593,433,o),
(593,290,cs),
(593,171,o),
(519,71,o),
(421,71,cs),
(386,71,o),
(347,90,o),
(347,137,cs),
(347,178,o),
(390,202,o),
(427,202,cs),
(433,202,o),
(439,201,o),
(444,200,c),
(454,203,o),
(461,205,o),
(468,211,c),
(464,321,o),
(384,417,o),
(266,417,cs),
(133,417,o),
(52,302,o),
(52,164,cs),
(52,91,o),
(89,-6,o),
(186,-6,cs),
(242,-6,o),
(280,37,o),
(280,95,cs),
(280,146,o),
(252,188,o),
(201,188,cs),
(150,188,o),
(126,147,o),
(126,109,cs),
(126,83,o),
(133,65,o),
(143,49,c),
(179,31,l),
(164,47,o),
(160,58,o),
(160,73,cs),
(160,118,o),
(189,129,o),
(209,129,cs),
(229,129,o),
(250,118,o),
(250,94,cs),
(250,61,o),
(209,50,o),
(187,50,cs),
(143,50,o),
(83,87,o),
(83,176,cs),
(83,275,o),
(167,337,o),
(264,337,cs),
(324,337,o),
(393,320,o),
(427,262,c),
(385,261,o),
(309,216,o),
(309,122,cs),
(309,59,o),
(350,-9,o),
(437,-9,cs)
);
}
);
userData = {
com.typemytype.robofont.layerData = {
"Jan 19 17, 02:25" = {
anchors = (
{
name = rakaransaya;
x = 799;
y = 363;
}
);
components = (
);
contours = (
{
points = (
{
segmentType = curve;
smooth = 1;
x = 55;
y = 180;
},
{
smooth = 0;
x = 55;
y = 186;
},
{
smooth = 0;
x = 55;
y = 193;
},
{
segmentType = curve;
smooth = 1;
x = 55.434;
y = 200;
},
{
smooth = 0;
x = 67;
y = 379;
},
{
smooth = 0;
x = 187;
y = 502;
},
{
segmentType = curve;
smooth = 1;
x = 339;
y = 502;
},
{
smooth = 0;
x = 473;
y = 502;
},
{
smooth = 0;
x = 543;
y = 410;
},
{
segmentType = curve;
smooth = 0;
x = 535.251;
y = 311;
},
{
smooth = 0;
x = 490.094;
y = 308;
},
{
smooth = 0;
x = 433.605;
y = 270.03;
},
{
segmentType = curve;
smooth = 1;
x = 425.014;
y = 192;
},
{
smooth = 0;
x = 425;
y = 188;
},
{
smooth = 0;
x = 424;
y = 184;
},
{
segmentType = curve;
smooth = 1;
x = 424;
y = 181;
},
{
smooth = 0;
x = 424;
y = 135;
},
{
smooth = 0;
x = 459;
y = 104;
},
{
segmentType = curve;
smooth = 1;
x = 534;
y = 104;
},
{
smooth = 0;
x = 674;
y = 104;
},
{
smooth = 0;
x = 738;
y = 265;
},
{
segmentType = curve;
smooth = 1;
x = 738;
y = 384;
},
{
smooth = 0;
x = 738;
y = 581;
},
{
smooth = 0;
x = 599;
y = 688;
},
{
segmentType = curve;
smooth = 1;
x = 369;
y = 688;
},
{
smooth = 0;
x = 243;
y = 688;
},
{
smooth = 0;
x = 155;
y = 626;
},
{
segmentType = curve;
smooth = 1;
x = 154;
y = 627;
},
{
smooth = 0;
x = 151;
y = 629;
},
{
smooth = 0;
x = 149;
y = 635;
},
{
segmentType = curve;
smooth = 1;
x = 149;
y = 643;
},
{
smooth = 0;
x = 149;
y = 665;
},
{
smooth = 0;
x = 160;
y = 704;
},
{
segmentType = curve;
smooth = 0;
x = 174;
y = 726;
},
{
smooth = 0;
x = 218;
y = 754;
},
{
smooth = 0;
x = 289;
y = 778;
},
{
segmentType = curve;
smooth = 1;
x = 381;
y = 778;
},
{
smooth = 0;
x = 610;
y = 778;
},
{
smooth = 0;
x = 810;
y = 625;
},
{
segmentType = curve;
smooth = 1;
x = 797.557;
y = 355;
},
{
smooth = 0;
x = 789;
y = 148;
},
{
smooth = 0;
x = 698;
y = -12;
},
{
segmentType = curve;
smooth = 1;
x = 536;
y = -12;
},
{
smooth = 0;
x = 401;
y = -12;
},
{
smooth = 0;
x = 363;
y = 84;
},
{
segmentType = curve;
smooth = 1;
x = 368.18;
y = 157;
},
{
smooth = 0;
x = 375.955;
y = 267.19;
},
{
smooth = 0;
x = 439.842;
y = 322.286;
},
{
segmentType = curve;
smooth = 0;
x = 497.509;
y = 335;
},
{
smooth = 0;
x = 486;
y = 363;
},
{
smooth = 0;
x = 397;
y = 407;
},
{
segmentType = curve;
smooth = 1;
x = 312;
y = 407;
},
{
smooth = 0;
x = 204;
y = 407;
},
{
smooth = 0;
x = 93;
y = 329;
},
{
segmentType = curve;
smooth = 1;
x = 93;
y = 201;
},
{
smooth = 0;
x = 93;
y = 112;
},
{
smooth = 0;
x = 161;
y = 64;
},
{
segmentType = curve;
smooth = 0;
x = 194.939;
y = 57;
},
{
segmentType = line;
smooth = 0;
x = 168.677;
y = 52;
},
{
smooth = 0;
x = 160;
y = 69;
},
{
smooth = 0;
x = 156;
y = 87;
},
{
segmentType = curve;
smooth = 1;
x = 156;
y = 105;
},
{
smooth = 0;
x = 156;
y = 157;
},
{
smooth = 0;
x = 192;
y = 207;
},
{
segmentType = curve;
smooth = 1;
x = 255.8;
y = 207;
},
{
smooth = 0;
x = 305.829;
y = 206.727;
},
{
smooth = 0;
x = 345.279;
y = 161.003;
},
{
segmentType = curve;
smooth = 1;
x = 340.455;
y = 105;
},
{
smooth = 0;
x = 334.438;
y = 35.152;
},
{
smooth = 0;
x = 291.009;
y = -18;
},
{
segmentType = curve;
smooth = 1;
x = 233;
y = -18;
},
{
smooth = 0;
x = 105;
y = -18;
},
{
smooth = 0;
x = 55;
y = 77;
}
);
},
{
points = (
{
segmentType = curve;
smooth = 1;
x = 195;
y = 101;
},
{
smooth = 0;
x = 195;
y = 78;
},
{
smooth = 0;
x = 206;
y = 59;
},
{
segmentType = curve;
smooth = 1;
x = 237;
y = 59;
},
{
smooth = 0;
x = 270;
y = 59;
},
{
smooth = 0;
x = 288;
y = 95;
},
{
segmentType = curve;
smooth = 1;
x = 288;
y = 125;
},
{
smooth = 0;
x = 288;
y = 153;
},
{
smooth = 0;
x = 268;
y = 164;
},
{
segmentType = curve;
smooth = 1;
x = 245.547;
y = 164;
},
{
smooth = 0;
x = 217;
y = 164;
},
{
smooth = 0;
x = 195;
y = 135;
}
);
}
);
lib = {
};
name = sinBa;
unicodes = (
);
width = 848;
};
};
};
width = 679;
}
);
unicode = 3510;
},
{
glyphname = sinBha;
lastChange = "2024-04-05 03:00:42 +0000";
layers = (
{
layerId = "51BB9282-3B82-4DF1-A67A-294D3E37D73A";
shapes = (
{
closed = 1;
nodes = (
(442,-8,o),
(517,82,o),
(517,175,cs),
(517,267,o),
(455,305,o),
(419,305,c),
(408,257,l),
(429,257,o),
(482,242,o),
(482,188,cs),
(481,132,o),
(419,78,o),
(299,78,cs),
(216,78,o),
(142,116,o),
(142,170,cs),
(142,239,o),
(206,266,o),
(274,266,cs),
(298,266,o),
(322,263,o),
(344,257,c),
(354,268,l),
(358,285,o),
(361,303,o),
(361,324,cs),
(361,391,o),
(329,463,o),
(240,463,cs),
(168,463,o),
(122,421,o),
(122,379,cs),
(122,345,o),
(151,329,o),
(182,328,c),
(203,390,o),
(225,414,o),
(261,414,cs),
(284,414,o),
(309,405,o),
(315,382,cs),
(317,376,o),
(317,370,o),
(317,363,cs),
(317,343,o),
(312,323,o),
(307,313,c),
(198,314,o),
(106,266,o),
(106,160,cs),
(106,65,o),
(186,-8,o),
(314,-8,cs)
);
},
{
closed = 1;
nodes = (
(70,250,o),
(167,299,o),
(290,299,cs),
(300,299,o),
(310,299,o),
(320,298,c),
(333,313,l),
(301,313,ls),
(214,313,o),
(91,310,o),
(35,300,c),
(25,279,o),
(21,257,o),
(20,233,c),
(29,226,l)
);
},
{
closed = 1;
nodes = (
(697,-7,o),
(774,119,o),
(774,252,cs),
(774,376,o),
(691,460,o),
(598,460,cs),
(455,460,o),
(379,338,o),
(374,173,c),
(379,172,o),
(383,172,o),
(388,172,cs),
(395,172,o),
(402,172,o),
(410,173,c),
(408,180,o),
(407,193,o),
(407,200,cs),
(407,309,o),
(469,369,o),
(587,369,cs),
(652,369,o),
(728,327,o),
(728,227,cs),
(728,142,o),
(670,67,o),
(571,67,cs),
(554,67,o),
(532,70,o),
(515,74,c),
(515,73,o),
(505,70,o),
(505,68,cs),
(505,51,o),
(525,7,o),
(544,-10,c)
);
}
);
width = 814;
}
);
metricRight = sinBha;
unicode = 3511;
},
{
glyphname = sinMa;
lastChange = "2024-04-05 03:00:42 +0000";
layers = (
{
layerId = "51BB9282-3B82-4DF1-A67A-294D3E37D73A";
shapes = (
{
closed = 1;
nodes = (
(527,-25,o),
(624,131,o),
(624,290,cs),
(624,495,o),
(493,611,o),
(297,611,cs),
(186,611,o),
(130,582,o),
(98,559,c),
(93,549,o),
(89,526,o),
(89,506,cs),
(89,499,o),
(90,493,o),
(91,488,c),
(166,527,o),
(222,542,o),
(293,542,cs),
(462,542,o),
(580,477,o),
(580,310,cs),
(580,183,o),
(491,62,o),
(313,62,cs),
(190,62,o),
(83,128,o),
(83,231,cs),
(83,307,o),
(131,338,o),
(161,343,c),
(151,371,l),
(151,351,o),
(149,148,o),
(323,148,cs),
(428,148,o),
(481,229,o),
(481,307,cs),
(481,392,o),
(421,462,o),
(351,462,cs),
(276,462,o),
(248,407,o),
(248,362,cs),
(248,313,o),
(276,281,o),
(324,281,cs),
(374,281,o),
(412,316,o),
(412,372,cs),
(412,386,o),
(410,402,o),
(404,419,c),
(390,422,l),
(386,342,o),
(347,330,o),
(323,330,cs),
(304,330,o),
(279,338,o),
(279,362,cs),
(279,388,o),
(308,411,o),
(354,411,cs),
(405,411,o),
(446,378,o),
(446,319,cs),
(446,260,o),
(399,213,o),
(323,213,cs),
(215,213,o),
(183,319,o),
(183,372,cs),
(183,381,o),
(183,389,o),
(185,394,c),
(179,403,o),
(170,411,o),
(163,413,c),
(99,394,o),
(45,321,o),
(45,213,cs),
(45,87,o),
(146,-25,o),
(325,-25,cs)
);
}
);
width = 656;
}
);
unicode = 3512;
},
{
glyphname = sinMba;
lastChange = "2024-04-05 03:00:42 +0000";
layers = (
{
layerId = "51BB9282-3B82-4DF1-A67A-294D3E37D73A";
shapes = (
{
closed = 1;
nodes = (
(622,-16,o),
(675,147,o),
(675,279,cs),
(675,450,o),
(581,625,o),
(338,625,cs),
(247,625,o),
(158,593,o),
(121,576,c),
(115,560,o),
(112,536,o),
(112,518,cs),
(112,509,o),
(113,502,o),
(114,496,c),
(150,513,o),
(231,552,o),
(349,552,cs),
(520,552,o),
(633,461,o),
(633,286,cs),
(633,180,o),
(588,63,o),
(489,63,cs),
(444,63,o),
(426,90,o),
(426,119,cs),
(426,135,o),
(429,151,o),
(432,166,c),
(418,172,o),
(404,173,o),
(388,173,cs),
(363,173,o),
(333,170,o),
(316,158,c),
(317,112,o),
(306,63,o),
(237,63,cs),
(145,63,o),
(86,121,o),
(86,213,cs),
(86,325,o),
(156,347,o),
(196,354,c),
(185,390,l),
(185,387,o),
(189,195,o),
(363,195,cs),
(447,195,o),
(517,251,o),
(517,335,cs),
(517,415,o),
(455,480,o),
(385,480,cs),
(315,480,o),
(280,426,o),
(280,381,cs),
(280,332,o),
(312,299,o),
(359,299,cs),
(409,299,o),
(448,334,o),
(448,391,cs),
(448,404,o),
(446,420,o),
(439,437,c),
(425,440,l),
(421,360,o),
(383,348,o),
(358,348,cs),
(339,348,o),
(315,359,o),
(315,381,cs),
(315,405,o),
(343,429,o),
(390,429,cs),
(440,429,o),
(478,400,o),
(478,352,cs),
(478,281,o),
(427,251,o),
(365,251,cs),
(254,251,o),
(218,345,o),
(218,394,cs),
(218,401,o),
(219,407,o),
(220,412,c),
(214,421,o),
(205,429,o),
(198,431,c),
(134,412,o),
(44,358,o),
(44,200,cs),
(44,76,o),
(115,-13,o),
(232,-13,cs),
(337,-13,o),
(343,105,o),
(344,114,c),
(346,115,o),
(356,119,o),
(373,119,cs),
(376,119,o),
(389,118,o),
(392,115,c),
(389,101,o),
(388,88,o),
(388,72,cs),
(388,34,o),
(412,-16,o),
(490,-16,cs)
);
}
);
width = 710;
}
);
unicode = 3513;
},
{
glyphname = sinYa;
lastChange = "2024-04-05 03:00:42 +0000";
layers = (
{
layerId = "51BB9282-3B82-4DF1-A67A-294D3E37D73A";
shapes = (
{
closed = 1;
nodes = (
(575,-22,o),
(637,59,o),
(638,165,cs),
(638,249,o),
(586,321,o),
(481,321,cs),
(448,321,o),
(420,317,o),
(389,306,c),
(440,282,l),
(431,295,o),
(417,321,o),
(417,353,cs),
(417,399,o),
(457,418,o),
(488,418,cs),
(530,418,o),
(564,398,o),
(564,353,cs),
(564,320,o),
(545,292,o),
(541,286,c),
(562,280,l),
(588,292,o),
(621,324,o),
(621,378,cs),
(621,421,o),
(588,469,o),
(515,469,cs),
(442,469,o),
(372,419,o),
(372,303,cs),
(372,286,o),
(374,269,o),
(377,254,c),
(388,245,l),
(419,257,o),
(452,261,o),
(484,261,cs),
(540,261,o),
(602,232,o),
(602,176,cs),
(602,115,o),
(555,60,o),
(471,60,cs),
(392,60,o),
(350,108,o),
(350,154,cs),
(350,163,o),
(351,171,o),
(352,176,c),
(331,172,l),
(312,99,o),
(265,66,o),
(192,66,cs),
(131,66,o),
(67,99,o),
(67,175,cs),
(67,259,o),
(146,324,o),
(273,321,c),
(285,332,l),
(285,355,o),
(278,382,o),
(268,396,c),
(97,389,o),
(30,283,o),
(30,165,cs),
(30,36,o),
(114,-19,o),
(190,-19,cs),
(300,-19,o),
(333,62,o),
(348,105,c),
(350,107,o),
(325,110,o),
(326,111,c),
(324,103,o),
(330,99,o),
(330,89,cs),
(330,35,o),
(381,-22,o),
(464,-22,cs)
);
}
);
width = 664;
}
);
unicode = 3514;
},
{
glyphname = sinRa;
lastChange = "2024-04-05 03:00:42 +0000";
layers = (
{
layerId = "51BB9282-3B82-4DF1-A67A-294D3E37D73A";
shapes = (
{
closed = 1;
nodes = (
(388,-29,o),
(499,70,o),
(499,230,cs),
(499,349,o),
(431,435,o),
(317,435,cs),
(202,435,o),
(129,358,o),
(110,332,cs),
(86,300,l),
(78,274,o),
(70,266,o),
(73,240,c),
(104,317,o),
(162,380,o),
(267,380,cs),
(380,380,o),
(459,327,o),
(459,234,cs),
(459,163,o),
(385,51,o),
(253,51,cs),
(133,51,o),
(72,119,o),
(72,200,cs),
(72,235,o),
(72,242,o),
(80,261,c),
(80,261,o),
(111,331,o),
(119,339,c),
(170,422,o),
(430,525,o),
(489,602,c),
(488,633,o),
(456,654,o),
(445,655,c),
(324,484,o),
(35,436,o),
(35,192,cs),
(35,95,o),
(96,-29,o),
(263,-29,cs)
);
}
);
width = 528;
}
);
unicode = 3515;
},
{
glyphname = sinLa;
lastChange = "2024-04-05 03:00:42 +0000";
layers = (
{
anchors = (
{
name = Virama;
pos = (589,396);
}
);
layerId = "51BB9282-3B82-4DF1-A67A-294D3E37D73A";
shapes = (
{
closed = 1;
nodes = (
(524,-225,o),
(610,-165,o),
(636,-128,c),
(639,-113,o),
(626,-92,o),
(621,-89,c),
(566,-121,o),
(497,-144,o),
(405,-144,cs),
(258,-144,o),
(91,-88,o),
(91,131,cs),
(91,272,o),
(189,394,o),
(392,394,cs),
(532,394,o),
(603,336,o),
(603,253,cs),
(603,190,o),
(567,124,o),
(486,124,cs),
(438,124,o),
(395,143,o),
(395,191,cs),
(395,232,o),
(429,258,o),
(466,272,c),
(425,262,l),
(503,262,l),
(510,271,o),
(514,287,o),
(511,297,c),
(275,297,l),
(265,287,o),
(262,273,o),
(266,262,c),
(400,262,l),
(401,264,o),
(425,267,o),
(425,269,c),
(363,263,o),
(329,222,o),
(329,174,cs),
(329,122,o),
(374,72,o),
(466,72,cs),
(584,72,o),
(647,168,o),
(647,272,cs),
(647,359,o),
(593,467,o),
(413,467,cs),
(194,467,o),
(45,311,o),
(45,94,cs),
(45,-70,o),
(138,-225,o),
(398,-225,cs)
);
}
);
userData = {
com.typemytype.robofont.layerData = {
"Regular Oct 20 16, 20:13" = {
anchors = (
);
components = (
);
contours = (
{
points = (
{
segmentType = curve;
smooth = 1;
x = 48;
y = 123;
},
{
smooth = 0;
x = 48;
y = 387;
},
{
smooth = 0;
x = 223;
y = 593;
},
{
segmentType = curve;
smooth = 1;
x = 498;
y = 594;
},
{
smooth = 0;
x = 709;
y = 595;
},
{
smooth = 0;
x = 814;
y = 456;
},
{
segmentType = curve;
smooth = 1;
x = 814;
y = 331;
},
{
smooth = 0;
x = 814;
y = 212;
},
{
smooth = 0;
x = 730;
y = 111;
},
{
segmentType = curve;
smooth = 1;
x = 594;
y = 109;
},
{
smooth = 0;
x = 494;
y = 108;
},
{
smooth = 0;
x = 422;
y = 156;
},
{
segmentType = curve;
smooth = 1;
x = 423;
y = 229;
},
{
smooth = 0;
x = 424;
y = 285;
},
{
smooth = 0;
x = 479;
y = 333;
},
{
segmentType = curve;
smooth = 0;
x = 540;
y = 343;
},
{
smooth = 0;
x = 539;
y = 340;
},
{
smooth = 0;
x = 538;
y = 337;
},
{
segmentType = curve;
smooth = 0;
x = 537;
y = 334;
},
{
segmentType = line;
smooth = 0;
x = 296;
y = 334;
},
{
smooth = 0;
x = 298;
y = 349;
},
{
smooth = 0;
x = 293;
y = 360;
},
{
segmentType = curve;
smooth = 0;
x = 301;
y = 379;
},
{
segmentType = line;
smooth = 0;
x = 636;
y = 379;
},
{
smooth = 0;
x = 636;
y = 367;
},
{
smooth = 0;
x = 636;
y = 356;
},
{
segmentType = curve;
smooth = 0;
x = 629;
y = 334;
},
{
smooth = 0;
x = 566;
y = 334;
},
{
smooth = 0;
x = 501;
y = 292;
},
{
segmentType = curve;
smooth = 1;
x = 501;
y = 248;
},
{
smooth = 0;
x = 501;
y = 187;
},
{
smooth = 0;
x = 553;
y = 165;
},
{
segmentType = curve;
smooth = 1;
x = 610;
y = 165;
},
{
smooth = 0;
x = 696;
y = 165;
},
{
smooth = 0;
x = 739;
y = 229;
},
{
segmentType = curve;
smooth = 1;
x = 739;
y = 297;
},
{
smooth = 0;
x = 739;
y = 416;
},
{
smooth = 0;
x = 634;
y = 515;
},
{
segmentType = curve;
smooth = 1;
x = 460;
y = 515;
},
{
smooth = 0;
x = 283;
y = 515;
},
{
smooth = 0;
x = 123;
y = 389;
},
{
segmentType = curve;
smooth = 1;
x = 123;
y = 176;
},
{
smooth = 0;
x = 123;
y = -48;
},
{
smooth = 0;
x = 283;
y = -168;
},
{
segmentType = curve;
smooth = 1;
x = 483;
y = -168;
},
{
smooth = 0;
x = 591;
y = -168;
},
{
smooth = 0;
x = 690;
y = -140;
},
{
segmentType = curve;
smooth = 0;
x = 760;
y = -99;
},
{
smooth = 0;
x = 763;
y = -101;
},
{
smooth = 0;
x = 765;
y = -112;
},
{
segmentType = curve;
smooth = 1;
x = 765;
y = -125;
},
{
smooth = 0;
x = 765;
y = -138;
},
{
smooth = 0;
x = 765;
y = -147;
},
{
segmentType = curve;
smooth = 0;
x = 760;
y = -158;
},
{
smooth = 0;
x = 696;
y = -226;
},
{
smooth = 0;
x = 596;
y = -263;
},
{
segmentType = curve;
smooth = 1;
x = 464;
y = -263;
},
{
smooth = 0;
x = 194;
y = -263;
},
{
smooth = 0;
x = 48;
y = -74;
}
);
}
);
lib = {
};
name = sinLa;
unicodes = (
);
width = 852;
};
};
};
width = 684;
}
);
unicode = 3517;
},
{
glyphname = sinVa;
lastChange = "2024-04-05 03:00:42 +0000";
layers = (
{
layerId = "51BB9282-3B82-4DF1-A67A-294D3E37D73A";
shapes = (
{
closed = 1;
nodes = (
(483,-21,o),
(566,129,o),
(566,300,cs),
(566,502,o),
(454,613,o),
(248,613,cs),
(168,613,o),
(104,588,o),
(64,568,c),
(59,557,o),
(57,542,o),
(57,529,cs),
(57,516,o),
(59,505,o),
(60,498,c),
(86,512,o),
(145,541,o),
(245,541,cs),
(422,541,o),
(521,462,o),
(521,313,cs),
(521,181,o),
(438,63,o),
(268,63,cs),
(169,63,o),
(83,97,o),
(83,162,cs),
(83,233,o),
(163,259,o),
(242,259,cs),
(260,259,o),
(282,257,o),
(302,254,c),
(317,266,l),
(319,274,o),
(319,282,o),
(319,295,cs),
(319,367,o),
(276,444,o),
(182,444,cs),
(129,444,o),
(79,421,o),
(79,378,cs),
(79,351,o),
(97,332,o),
(129,332,cs),
(133,332,o),
(137,332,o),
(141,333,c),
(141,341,o),
(156,393,o),
(206,393,cs),
(244,393,o),
(271,374,o),
(271,316,c),
(265,317,o),
(260,317,o),
(253,317,cs),
(176,317,o),
(44,291,o),
(44,145,cs),
(44,47,o),
(141,-21,o),
(269,-21,cs)
);
}
);
width = 604;
}
);
unicode = 3520;
},
{
glyphname = sinSha;
lastChange = "2024-04-05 03:00:42 +0000";
layers = (
{
anchors = (
{
name = rakaransa;
pos = (733,231);
}
);
layerId = "51BB9282-3B82-4DF1-A67A-294D3E37D73A";
shapes = (
{
closed = 1;
nodes = (
(651,-5,o),
(738,118,o),
(738,257,cs),
(738,374,o),
(666,460,o),
(543,460,cs),
(400,460,o),
(296,346,o),
(283,164,c),
(288,163,o),
(293,163,o),
(298,163,cs),
(306,163,o),
(312,163,o),
(320,164,c),
(313,286,o),
(386,378,o),
(518,378,cs),
(614,378,o),
(690,309,o),
(690,218,cs),
(690,206,o),
(689,193,o),
(686,180,c),
(674,189,o),
(650,201,o),
(609,201,cs),
(548,201,o),
(474,150,o),
(474,61,cs),
(474,40,o),
(481,9,o),
(501,-8,c)
);
},
{
closed = 1;
nodes = (
(371,-9,o),
(450,80,o),
(450,174,cs),
(450,240,o),
(403,304,o),
(337,303,c),
(328,253,l),
(358,252,o),
(410,233,o),
(410,183,cs),
(410,115,o),
(319,80,o),
(246,80,cs),
(151,80,o),
(89,137,o),
(89,214,cs),
(89,301,o),
(167,368,o),
(267,368,c),
(272,375,o),
(277,414,o),
(277,438,cs),
(277,444,o),
(277,450,o),
(276,453,c),
(179,452,o),
(49,362,o),
(49,207,cs),
(49,82,o),
(130,-9,o),
(248,-9,cs)
);
},
{
closed = 1;
nodes = (
(530,66,o),
(517,67,o),
(504,69,c),
(517,123,o),
(559,137,o),
(597,137,cs),
(625,137,o),
(645,128,o),
(657,122,c),
(633,89,o),
(596,68,o),
(551,67,cs)
);
}
);
width = 773;
}
);
metricRight = sinGa;
unicode = 3521;
},
{
glyphname = sinSsa;
lastChange = "2024-04-05 03:00:42 +0000";
layers = (
{
anchors = (
{
name = Virama;
pos = (545,416);
},
{
name = rakaransaya;
pos = (588,196);
}
);
layerId = "51BB9282-3B82-4DF1-A67A-294D3E37D73A";
shapes = (
{
closed = 1;
nodes = (
(470,-20,o),
(588,71,o),
(588,196,cs),
(588,279,o),
(527,325,o),
(445,325,cs),
(405,325,o),
(378,320,o),
(354,309,c),
(400,296,l),
(392,308,o),
(380,316,o),
(380,342,cs),
(380,389,o),
(418,415,o),
(460,415,cs),
(497,415,o),
(531,393,o),
(531,355,cs),
(531,319,o),
(511,302,o),
(507,295,c),
(540,278,l),
(546,284,o),
(581,324,o),
(581,377,cs),
(581,416,o),
(552,461,o),
(479,461,cs),
(386,461,o),
(337,387,o),
(337,292,cs),
(337,282,o),
(338,271,o),
(339,260,c),
(349,252,l),
(382,263,o),
(416,276,o),
(453,276,cs),
(507,276,o),
(552,255,o),
(552,202,cs),
(552,129,o),
(456,49,o),
(320,49,cs),
(162,49,o),
(78,118,o),
(78,182,cs),
(78,235,o),
(138,264,o),
(225,264,cs),
(245,264,o),
(266,263,o),
(288,260,c),
(300,271,l),
(304,288,o),
(306,309,o),
(306,329,cs),
(306,393,o),
(280,461,o),
(186,461,cs),
(124,461,o),
(86,426,o),
(86,388,cs),
(86,350,o),
(113,337,o),
(139,335,c),
(147,366,o),
(178,409,o),
(220,409,cs),
(255,409,o),
(270,385,o),
(270,353,cs),
(270,320,o),
(249,299,o),
(239,290,c),
(276,321,l),
(265,322,o),
(253,323,o),
(242,323,cs),
(144,323,o),
(46,265,o),
(46,172,cs),
(46,79,o),
(118,-20,o),
(325,-20,cs)
);
},
{
closed = 1;
nodes = (
(393,90,o),
(439,136,o),
(439,176,cs),
(439,215,o),
(392,214,o),
(381,215,c),
(361,207,l),
(391,209,o),
(407,195,o),
(407,181,cs),
(407,155,o),
(363,131,o),
(306,131,cs),
(255,131,o),
(201,141,o),
(201,167,cs),
(201,186,o),
(223,191,o),
(273,191,cs),
(284,191,o),
(296,190,o),
(310,190,cs),
(425,187,o),
(502,221,o),
(547,287,c),
(518,308,l),
(490,273,o),
(430,228,o),
(317,222,cs),
(256,219,o),
(171,227,o),
(171,164,cs),
(171,113,o),
(247,90,o),
(309,90,cs)
);
}
);
width = 616;
}
);
unicode = 3522;
},
{
glyphname = sinSa;
lastChange = "2024-04-05 03:00:42 +0000";
layers = (
{
anchors = (
{
name = rakaransaya;
pos = (653,164);
}
);
layerId = "51BB9282-3B82-4DF1-A67A-294D3E37D73A";
shapes = (
{
closed = 1;
nodes = (
(598,-12,o),
(662,76,o),
(662,171,cs),
(662,267,o),
(594,331,o),
(493,331,cs),
(458,331,o),
(430,321,o),
(407,309,c),
(464,286,l),
(457,294,o),
(438,312,o),
(438,352,cs),
(438,385,o),
(460,433,o),
(513,433,cs),
(552,433,o),
(585,411,o),
(585,368,cs),
(585,339,o),
(564,302,o),
(560,296,c),
(564,298,o),
(572,289,o),
(576,289,cs),
(577,289,o),
(578,290,o),
(578,290,c),
(607,304,o),
(644,340,o),
(644,381,cs),
(644,435,o),
(600,479,o),
(530,479,cs),
(439,479,o),
(389,407,o),
(389,303,cs),
(389,291,o),
(390,279,o),
(391,266,c),
(402,257,l),
(435,269,o),
(467,277,o),
(500,277,cs),
(557,277,o),
(627,251,o),
(627,182,cs),
(627,135,o),
(597,70,o),
(500,70,cs),
(425,70,o),
(372,127,o),
(372,182,cs),
(372,186,o),
(372,190,o),
(373,194,c),
(367,193,o),
(358,191,o),
(353,189,c),
(337,113,o),
(300,71,o),
(227,71,cs),
(153,71,o),
(110,105,o),
(110,153,cs),
(110,203,o),
(154,263,o),
(264,263,cs),
(283,263,o),
(304,261,o),
(327,257,c),
(340,268,l),
(345,286,o),
(348,306,o),
(348,327,cs),
(348,401,o),
(312,480,o),
(222,480,cs),
(157,480,o),
(111,439,o),
(111,398,cs),
(111,365,o),
(143,348,o),
(166,347,c),
(174,385,o),
(198,425,o),
(241,425,cs),
(279,425,o),
(306,402,o),
(306,362,cs),
(306,339,o),
(301,325,o),
(295,315,c),
(209,305,l),
(135,278,o),
(71,233,o),
(71,141,cs),
(71,65,o),
(118,-9,o),
(223,-9,cs),
(315,-9,o),
(361,72,o),
(365,115,c),
(363,117,o),
(362,126,o),
(362,129,cs),
(362,131,l),
(359,122,o),
(357,112,o),
(357,102,cs),
(357,46,o),
(406,-12,o),
(493,-12,cs)
);
},
{
closed = 1;
nodes = (
(57,256,o),
(154,305,o),
(277,305,cs),
(287,305,o),
(297,305,o),
(307,304,c),
(320,320,l),
(288,320,ls),
(201,320,o),
(77,317,o),
(21,306,c),
(12,284,o),
(9,262,o),
(7,239,c),
(16,232,l)
);
}
);
userData = {
com.typemytype.robofont.layerData = {
"Jan 18 17, 22:35" = {
anchors = (
{
name = rakaransaya;
x = 856;
y = 210;
}
);
components = (
);
contours = (
{
points = (
{
segmentType = line;
smooth = 0;
x = 39.292;
y = 294;
},
{
segmentType = line;
smooth = 0;
x = 59.201;
y = 379;
},
{
smooth = 0;
x = 138.669;
y = 393;
},
{
smooth = 0;
x = 331.088;
y = 397;
},
{
segmentType = curve;
smooth = 0;
x = 440.983;
y = 396;
},
{
segmentType = line;
smooth = 0;
x = 422.991;
y = 377;
},
{
smooth = 0;
x = 248.145;
y = 388;
},
{
smooth = 0;
x = 105.702;
y = 317;
},
{
segmentType = curve;
smooth = 0;
x = 51.243;
y = 284;
}
);
},
{
points = (
{
segmentType = curve;
smooth = 0;
x = 753.314;
y = 366;
},
{
smooth = 0;
x = 758.753;
y = 374.188;
},
{
smooth = 0;
x = 784.47;
y = 417.842;
},
{
segmentType = curve;
smooth = 1;
x = 788.295;
y = 452;
},
{
smooth = 0;
x = 794.396;
y = 506.501;
},
{
smooth = 0;
x = 745;
y = 541;
},
{
segmentType = curve;
smooth = 1;
x = 693;
y = 541;
},
{
smooth = 0;
x = 644;
y = 541;
},
{
smooth = 0;
x = 596;
y = 496;
},
{
segmentType = curve;
smooth = 1;
x = 596;
y = 450;
},
{
smooth = 0;
x = 596;
y = 405;
},
{
smooth = 0;
x = 600.28;
y = 391.787;
},
{
segmentType = curve;
smooth = 0;
x = 611.781;
y = 376;
},
{
segmentType = line;
smooth = 0;
x = 550.516;
y = 383;
},
{
smooth = 0;
x = 593.088;
y = 398;
},
{
smooth = 0;
x = 608;
y = 411;
},
{
segmentType = curve;
smooth = 1;
x = 666;
y = 410;
},
{
smooth = 0;
x = 796;
y = 409;
},
{
smooth = 0;
x = 858;
y = 317;
},
{
segmentType = curve;
smooth = 1;
x = 858;
y = 211;
},
{
smooth = 0;
x = 858;
y = 67;
},
{
smooth = 0;
x = 747.134;
y = -28;
},
{
segmentType = curve;
smooth = 1;
x = 634;
y = -28;
},
{
smooth = 0;
x = 492.535;
y = -28;
},
{
smooth = 0;
x = 429.622;
y = 60.728;
},
{
segmentType = curve;
smooth = 0;
x = 456.36;
y = 142;
},
{
smooth = 0;
x = 455.209;
y = 140.444;
},
{
smooth = 0;
x = 482.123;
y = 125.542;
},
{
segmentType = curve;
smooth = 0;
x = 480.949;
y = 124;
},
{
smooth = 0;
x = 461.491;
y = 73.791;
},
{
smooth = 0;
x = 400.535;
y = -25.155;
},
{
segmentType = curve;
smooth = 1;
x = 276.013;
y = -26;
},
{
smooth = 0;
x = 136.592;
y = -26.917;
},
{
smooth = 0;
x = 95;
y = 71;
},
{
segmentType = curve;
smooth = 1;
x = 96.351;
y = 157;
},
{
smooth = 0;
x = 98;
y = 274;
},
{
smooth = 0;
x = 211.41;
y = 356.413;
},
{
segmentType = curve;
smooth = 0;
x = 302.579;
y = 391;
},
{
smooth = 0;
x = 305.463;
y = 392.048;
},
{
smooth = 0;
x = 302.726;
y = 387.048;
},
{
segmentType = curve;
smooth = 0;
x = 305.62;
y = 388;
},
{
segmentType = line;
smooth = 0;
x = 408.354;
y = 390;
},
{
smooth = 0;
x = 442.253;
y = 435.824;
},
{
smooth = 0;
x = 401.579;
y = 529.982;
},
{
segmentType = curve;
smooth = 1;
x = 348.766;
y = 531;
},
{
smooth = 0;
x = 296.857;
y = 532;
},
{
smooth = 0;
x = 264.263;
y = 480;
},
{
segmentType = curve;
smooth = 0;
x = 253.128;
y = 431;
},
{
smooth = 0;
x = 220.337;
y = 433;
},
{
smooth = 0;
x = 177.073;
y = 456.894;
},
{
segmentType = curve;
smooth = 1;
x = 182.884;
y = 505;
},
{
smooth = 0;
x = 189.043;
y = 556.004;
},
{
smooth = 0;
x = 239.946;
y = 601;
},
{
segmentType = curve;
smooth = 1;
x = 318.946;
y = 601;
},
{
smooth = 0;
x = 458.609;
y = 601;
},
{
smooth = 0;
x = 496.07;
y = 432.586;
},
{
segmentType = curve;
smooth = 0;
x = 464.065;
y = 330;
},
{
segmentType = line;
smooth = 0;
x = 448.598;
y = 316;
},
{
smooth = 0;
x = 248.715;
y = 349.568;
},
{
smooth = 0;
x = 136;
y = 257;
},
{
segmentType = curve;
smooth = 1;
x = 138;
y = 183;
},
{
smooth = 0;
x = 140;
y = 114;
},
{
smooth = 0;
x = 202;
y = 76;
},
{
segmentType = curve;
smooth = 1;
x = 299;
y = 76;
},
{
smooth = 0;
x = 387;
y = 76;
},
{
smooth = 0;
x = 442.709;
y = 115.466;
},
{
segmentType = curve;
smooth = 0;
x = 471.906;
y = 209;
},
{
smooth = 0;
x = 479.448;
y = 210.986;
},
{
smooth = 0;
x = 487.079;
y = 213.831;
},
{
segmentType = curve;
smooth = 0;
x = 494.535;
y = 215;
},
{
smooth = 0;
x = 477.299;
y = 137.996;
},
{
smooth = 0;
x = 525.611;
y = 75.999;
},
{
segmentType = curve;
smooth = 1;
x = 650;
y = 76;
},
{
smooth = 0;
x = 742.789;
y = 76.001;
},
{
smooth = 0;
x = 814;
y = 148;
},
{
segmentType = curve;
smooth = 1;
x = 814.897;
y = 221;
},
{
smooth = 0;
x = 816;
y = 309;
},
{
smooth = 0;
x = 748.461;
y = 339.452;
},
{
segmentType = curve;
smooth = 1;
x = 670.283;
y = 340.62;
},
{
smooth = 0;
x = 628.85;
y = 341.239;
},
{
smooth = 0;
x = 586.702;
y = 331.12;
},
{
segmentType = curve;
smooth = 0;
x = 544.689;
y = 315.877;
},
{
segmentType = line;
smooth = 0;
x = 530.855;
y = 327;
},
{
smooth = 0;
x = 532;
y = 486;
},
{
smooth = 0;
x = 600;
y = 600;
},
{
segmentType = curve;
smooth = 1;
x = 731;
y = 600;
},
{
smooth = 0;
x = 831;
y = 600;
},
{
smooth = 0;
x = 866;
y = 546;
},
{
segmentType = curve;
smooth = 1;
x = 865.787;
y = 485;
},
{
smooth = 0;
x = 866;
y = 413;
},
{
smooth = 0;
x = 784.976;
y = 383.074;
}
);
}
);
lib = {
};
name = sinSa;
unicodes = (
);
width = 905;
};
"Jan 18 17, 22:42" = {
anchors = (
{
name = rakaransaya;
x = 928;
y = 210;
}
);
components = (
);
contours = (
{
points = (
{
segmentType = line;
smooth = 0;
x = 442;
y = 332;
},
{
smooth = 0;
x = 413;
y = 336;
},
{
smooth = 0;
x = 386;
y = 338;
},
{
segmentType = curve;
smooth = 1;
x = 361;
y = 338;
},
{
smooth = 0;
x = 250;
y = 338;
},
{
smooth = 0;
x = 173;
y = 300;
},
{
segmentType = curve;
smooth = 1;
x = 173;
y = 233;
},
{
smooth = 0;
x = 173;
y = 150;
},
{
smooth = 0;
x = 280;
y = 82;
},
{
segmentType = curve;
smooth = 1;
x = 483;
y = 82;
},
{
smooth = 0;
x = 656;
y = 82;
},
{
smooth = 0;
x = 780;
y = 165;
},
{
segmentType = curve;
smooth = 1;
x = 780;
y = 258;
},
{
smooth = 0;
x = 780;
y = 326;
},
{
smooth = 0;
x = 722;
y = 353;
},
{
segmentType = curve;
smooth = 1;
x = 652;
y = 353;
},
{
smooth = 0;
x = 607;
y = 353;
},
{
smooth = 0;
x = 561;
y = 337;
},
{
segmentType = curve;
smooth = 0;
x = 520;
y = 322;
},
{
segmentType = line;
smooth = 0;
x = 507;
y = 333;
},
{
smooth = 0;
x = 491;
y = 473;
},
{
smooth = 0;
x = 557;
y = 590;
},
{
segmentType = curve;
smooth = 1;
x = 696;
y = 590;
},
{
smooth = 0;
x = 786;
y = 590;
},
{
smooth = 0;
x = 818;
y = 531;
},
{
segmentType = curve;
smooth = 1;
x = 818;
y = 484;
},
{
smooth = 0;
x = 818;
y = 414;
},
{
smooth = 0;
x = 770;
y = 373;
},
{
segmentType = curve;
smooth = 0;
x = 736;
y = 360;
},
{
segmentType = line;
smooth = 0;
x = 719;
y = 378;
},
{
smooth = 0;
x = 725;
y = 387;
},
{
smooth = 0;
x = 752;
y = 408;
},
{
segmentType = curve;
smooth = 1;
x = 752;
y = 455;
},
{
smooth = 0;
x = 752;
y = 503;
},
{
smooth = 0;
x = 710;
y = 531;
},
{
segmentType = curve;
smooth = 1;
x = 661;
y = 531;
},
{
smooth = 0;
x = 608;
y = 531;
},
{
smooth = 0;
x = 561;
y = 498;
},
{
segmentType = curve;
smooth = 1;
x = 561;
y = 439;
},
{
smooth = 0;
x = 561;
y = 405;
},
{
smooth = 0;
x = 575;
y = 393;
},
{
segmentType = curve;
smooth = 0;
x = 585;
y = 379;
},
{
segmentType = line;
smooth = 0;
x = 527;
y = 395;
},
{
smooth = 0;
x = 556;
y = 409;
},
{
smooth = 0;
x = 591;
y = 416;
},
{
segmentType = curve;
smooth = 1;
x = 642;
y = 416;
},
{
smooth = 0;
x = 747;
y = 416;
},
{
smooth = 0;
x = 826;
y = 357;
},
{
segmentType = curve;
smooth = 1;
x = 826;
y = 251;
},
{
smooth = 0;
x = 826;
y = 91;
},
{
smooth = 0;
x = 674;
y = -26;
},
{
segmentType = curve;
smooth = 1;
x = 489;
y = -26;
},
{
smooth = 0;
x = 224;
y = -26;
},
{
smooth = 0;
x = 132;
y = 101;
},
{
segmentType = curve;
smooth = 1;
x = 132;
y = 220;
},
{
smooth = 0;
x = 132;
y = 339;
},
{
smooth = 0;
x = 258;
y = 413;
},
{
segmentType = curve;
smooth = 1;
x = 382;
y = 413;
},
{
smooth = 0;
x = 397;
y = 413;
},
{
smooth = 0;
x = 412;
y = 412;
},
{
segmentType = curve;
smooth = 0;
x = 427;
y = 410;
},
{
segmentType = line;
smooth = 0;
x = 379;
y = 372;
},
{
smooth = 0;
x = 392;
y = 383;
},
{
smooth = 0;
x = 419;
y = 409;
},
{
segmentType = curve;
smooth = 1;
x = 419;
y = 452;
},
{
smooth = 0;
x = 419;
y = 492;
},
{
smooth = 0;
x = 399;
y = 524;
},
{
segmentType = curve;
smooth = 1;
x = 355;
y = 524;
},
{
smooth = 0;
x = 300;
y = 524;
},
{
smooth = 0;
x = 261;
y = 469;
},
{
segmentType = curve;
smooth = 0;
x = 251;
y = 429;
},
{
smooth = 0;
x = 218;
y = 431;
},
{
smooth = 0;
x = 182;
y = 448;
},
{
segmentType = curve;
smooth = 1;
x = 182;
y = 496;
},
{
smooth = 0;
x = 182;
y = 545;
},
{
smooth = 0;
x = 232;
y = 589;
},
{
segmentType = curve;
smooth = 1;
x = 311;
y = 589;
},
{
smooth = 0;
x = 432;
y = 589;
},
{
smooth = 0;
x = 464;
y = 502;
},
{
segmentType = curve;
smooth = 1;
x = 464;
y = 421;
},
{
smooth = 0;
x = 464;
y = 395;
},
{
smooth = 0;
x = 461;
y = 369;
},
{
segmentType = curve;
smooth = 0;
x = 456;
y = 347;
}
);
}
);
lib = {
};
name = sinSa;
unicodes = (
);
width = 905;
};
"Regular Nov 5 16, 14:24" = {
anchors = (
);
components = (
);
contours = (
{
points = (
{
segmentType = line;
smooth = 0;
x = 39.292;
y = 294;
},
{
segmentType = line;
smooth = 0;
x = 59.201;
y = 379;
},
{
smooth = 0;
x = 138.669;
y = 393;
},
{
smooth = 0;
x = 331.088;
y = 397;
},
{
segmentType = curve;
smooth = 0;
x = 440.983;
y = 396;
},
{
segmentType = line;
smooth = 0;
x = 422.991;
y = 377;
},
{
smooth = 0;
x = 248.145;
y = 388;
},
{
smooth = 0;
x = 105.702;
y = 317;
},
{
segmentType = curve;
smooth = 0;
x = 51.243;
y = 284;
}
);
},
{
points = (
{
segmentType = curve;
smooth = 0;
x = 753.314;
y = 366;
},
{
smooth = 0;
x = 755;
y = 368;
},
{
smooth = 0;
x = 736;
y = 369;
},
{
segmentType = curve;
smooth = 0;
x = 743;
y = 376;
},
{
smooth = 0;
x = 759;
y = 394;
},
{
smooth = 0;
x = 808;
y = 406;
},
{
segmentType = curve;
smooth = 1;
x = 808;
y = 452;
},
{
smooth = 0;
x = 808;
y = 508;
},
{
smooth = 0;
x = 765.368;
y = 541;
},
{
segmentType = curve;
smooth = 1;
x = 712.657;
y = 541;
},
{
smooth = 0;
x = 664.271;
y = 541;
},
{
smooth = 0;
x = 596;
y = 506;
},
{
segmentType = curve;
smooth = 1;
x = 597;
y = 445;
},
{
smooth = 0;
x = 597;
y = 414;
},
{
smooth = 0;
x = 620;
y = 382;
},
{
segmentType = curve;
smooth = 0;
x = 622;
y = 376;
},
{
segmentType = line;
smooth = 0;
x = 550.516;
y = 383;
},
{
smooth = 0;
x = 593.088;
y = 398;
},
{
smooth = 0;
x = 618.447;
y = 410.522;
},
{
segmentType = curve;
smooth = 1;
x = 676.346;
y = 410;
},
{
smooth = 0;
x = 806.22;
y = 408.829;
},
{
smooth = 0;
x = 871.788;
y = 316.06;
},
{
segmentType = curve;
smooth = 1;
x = 857.915;
y = 195;
},
{
smooth = 0;
x = 842.189;
y = 67.135;
},
{
smooth = 0;
x = 747.134;
y = -28;
},
{
segmentType = curve;
smooth = 1;
x = 612.064;
y = -28;
},
{
smooth = 0;
x = 492.535;
y = -28;
},
{
smooth = 0;
x = 429.622;
y = 60.728;
},
{
segmentType = curve;
smooth = 0;
x = 456.36;
y = 142;
},
{
smooth = 0;
x = 455.209;
y = 140.444;
},
{
smooth = 0;
x = 482.123;
y = 125.542;
},
{
segmentType = curve;
smooth = 0;
x = 480.949;
y = 124;
},
{
smooth = 0;
x = 461.491;
y = 73.791;
},
{
smooth = 0;
x = 400.535;
y = -25.155;
},
{
segmentType = curve;
smooth = 1;
x = 276.013;
y = -26;
},
{
smooth = 0;
x = 136.592;
y = -26.917;
},
{
smooth = 0;
x = 86.903;
y = 71.679;
},
{
segmentType = curve;
smooth = 1;
x = 96.351;
y = 157;
},
{
smooth = 0;
x = 109.061;
y = 273.714;
},
{
smooth = 0;
x = 211;
y = 346;
},
{
segmentType = curve;
smooth = 0;
x = 303;
y = 381;
},
{
smooth = 0;
x = 305;
y = 382;
},
{
smooth = 0;
x = 303;
y = 377;
},
{
segmentType = curve;
smooth = 0;
x = 306;
y = 378;
},
{
segmentType = line;
smooth = 0;
x = 408.354;
y = 390;
},
{
smooth = 0;
x = 417;
y = 402;
},
{
smooth = 0;
x = 432;
y = 415;
},
{
segmentType = curve;
smooth = 1;
x = 432;
y = 452;
},
{
smooth = 0;
x = 432;
y = 498;
},
{
smooth = 0;
x = 396;
y = 530;
},
{
segmentType = curve;
smooth = 1;
x = 348.766;
y = 531;
},
{
smooth = 0;
x = 287;
y = 532;
},
{
smooth = 0;
x = 264.263;
y = 480;
},
{
segmentType = curve;
smooth = 0;
x = 253.128;
y = 431;
},
{
smooth = 0;
x = 220.337;
y = 433;
},
{
smooth = 0;
x = 177.073;
y = 456.894;
},
{
segmentType = curve;
smooth = 1;
x = 182.884;
y = 505;
},
{
smooth = 0;
x = 189.043;
y = 556.004;
},
{
smooth = 0;
x = 239.946;
y = 601;
},
{
segmentType = curve;
smooth = 1;
x = 318.946;
y = 601;
},
{
smooth = 0;
x = 458.609;
y = 601;
},
{
smooth = 0;
x = 496.07;
y = 432.586;
},
{
segmentType = curve;
smooth = 0;
x = 464.065;
y = 330;
},
{
segmentType = line;
smooth = 0;
x = 448.598;
y = 316;
},
{
smooth = 0;
x = 248.715;
y = 349.568;
},
{
smooth = 0;
x = 154.553;
y = 256.873;
},
{
segmentType = curve;
smooth = 1;
x = 146.076;
y = 183;
},
{
smooth = 0;
x = 138.061;
y = 114.516;
},
{
smooth = 0;
x = 202.441;
y = 78.167;
},
{
segmentType = curve;
smooth = 1;
x = 298.647;
y = 85;
},
{
smooth = 0;
x = 369.578;
y = 90.038;
},
{
smooth = 0;
x = 442.709;
y = 115.466;
},
{
segmentType = curve;
smooth = 0;
x = 471.906;
y = 209;
},
{
smooth = 0;
x = 479.448;
y = 210.986;
},
{
smooth = 0;
x = 487.079;
y = 213.831;
},
{
segmentType = curve;
smooth = 0;
x = 494.535;
y = 215;
},
{
smooth = 0;
x = 477.299;
y = 137.996;
},
{
smooth = 0;
x = 525.611;
y = 75.999;
},
{
segmentType = curve;
smooth = 1;
x = 622.967;
y = 76;
},
{
smooth = 0;
x = 742.789;
y = 76.001;
},
{
smooth = 0;
x = 810.231;
y = 147.703;
},
{
segmentType = curve;
smooth = 1;
x = 814.897;
y = 221;
},
{
smooth = 0;
x = 820.531;
y = 309.485;
},
{
smooth = 0;
x = 748.461;
y = 339.452;
},
{
segmentType = curve;
smooth = 1;
x = 670.283;
y = 340.62;
},
{
smooth = 0;
x = 628.85;
y = 341.239;
},
{
smooth = 0;
x = 586.702;
y = 331.12;
},
{
segmentType = curve;
smooth = 0;
x = 544.689;
y = 315.877;
},
{
segmentType = line;
smooth = 0;
x = 530.855;
y = 327;
},
{
smooth = 0;
x = 522.415;
y = 456.36;
},
{
smooth = 0;
x = 611.841;
y = 600;
},
{
segmentType = curve;
smooth = 1;
x = 742.841;
y = 600;
},
{
smooth = 0;
x = 832.841;
y = 600;
},
{
smooth = 0;
x = 870.756;
y = 538.007;
},
{
segmentType = curve;
smooth = 1;
x = 865.787;
y = 485;
},
{
smooth = 0;
x = 859;
y = 412;
},
{
smooth = 0;
x = 784.976;
y = 383.074;
}
);
}
);
lib = {
};
name = sinSa;
unicodes = (
);
width = 905;
};
};
};
width = 697;
}
);
unicode = 3523;
},
{
glyphname = sinHa;
lastChange = "2024-04-05 03:00:42 +0000";
layers = (
{
anchors = (
{
name = Virama;
pos = (631,419);
}
);
layerId = "51BB9282-3B82-4DF1-A67A-294D3E37D73A";
shapes = (
{
closed = 1;
nodes = (
(667,-5,o),
(731,97,o),
(731,247,cs),
(731,375,o),
(660,460,o),
(536,460,cs),
(411,460,o),
(320,349,o),
(309,172,c),
(314,171,o),
(323,171,o),
(327,171,cs),
(334,171,o),
(338,171,o),
(345,172,c),
(339,290,o),
(395,378,o),
(509,378,cs),
(609,378,o),
(685,310,o),
(685,226,cs),
(685,141,o),
(632,80,o),
(542,76,cs),
(510,75,o),
(495,76,o),
(470,80,c),
(461,74,l),
(460,56,o),
(467,9,o),
(485,-8,c)
);
},
{
closed = 1;
nodes = (
(342,-8,o),
(440,64,o),
(440,168,cs),
(440,249,o),
(385,280,o),
(344,279,c),
(336,230,l),
(351,229,o),
(410,214,o),
(410,168,cs),
(410,106,o),
(319,79,o),
(235,79,cs),
(153,79,o),
(69,106,o),
(69,168,cs),
(69,230,o),
(129,267,o),
(215,267,cs),
(233,267,o),
(253,264,o),
(274,261,c),
(285,273,l),
(287,286,o),
(289,301,o),
(289,317,cs),
(289,384,o),
(262,461,o),
(162,461,cs),
(98,461,o),
(64,423,o),
(64,385,cs),
(64,352,o),
(96,338,o),
(120,337,c),
(127,368,o),
(156,411,o),
(198,411,cs),
(231,411,o),
(247,389,o),
(247,355,cs),
(247,320,o),
(230,301,o),
(218,283,c),
(251,322,l),
(239,325,o),
(228,325,o),
(216,325,cs),
(115,325,o),
(31,259,o),
(31,154,cs),
(31,53,o),
(115,-8,o),
(228,-8,cs)
);
}
);
width = 751;
}
);
unicode = 3524;
},
{
glyphname = sinLla;
lastChange = "2024-04-05 03:00:42 +0000";
layers = (
{
layerId = "51BB9282-3B82-4DF1-A67A-294D3E37D73A";
shapes = (
{
closed = 1;
nodes = (
(524,-220,o),
(607,-159,o),
(642,-127,c),
(643,-115,o),
(635,-91,o),
(625,-81,c),
(589,-108,o),
(497,-142,o),
(401,-142,cs),
(177,-142,o),
(83,-36,o),
(83,83,cs),
(83,209,o),
(200,267,o),
(349,267,cs),
(468,267,o),
(545,263,o),
(578,252,c),
(597,270,l),
(599,388,o),
(567,474,o),
(482,474,cs),
(413,474,o),
(390,419,o),
(390,388,c),
(393,403,l),
(393,412,o),
(377,475,o),
(299,475,cs),
(222,475,o),
(143,414,o),
(143,288,cs),
(143,158,o),
(234,53,o),
(401,53,cs),
(495,53,o),
(558,92,o),
(586,121,c),
(587,123,o),
(587,126,o),
(587,129,cs),
(587,139,o),
(583,150,o),
(578,156,c),
(539,138,o),
(485,130,o),
(433,130,cs),
(316,130,o),
(184,157,o),
(184,283,cs),
(184,388,o),
(253,411,o),
(300,411,cs),
(334,411,o),
(365,394,o),
(378,359,c),
(403,361,l),
(417,391,o),
(450,405,o),
(479,405,cs),
(520,405,o),
(561,370,o),
(556,299,c),
(560,301,l),
(511,318,o),
(460,328,o),
(359,328,cs),
(162,328,o),
(45,230,o),
(45,60,cs),
(45,-91,o),
(153,-220,o),
(396,-220,cs)
);
}
);
width = 656;
}
);
unicode = 3525;
},
{
glyphname = sinFa;
lastChange = "2024-04-05 03:00:42 +0000";
layers = (
{
layerId = "51BB9282-3B82-4DF1-A67A-294D3E37D73A";
shapes = (
{
closed = 1;
nodes = (
(272,-14,o),
(296,-11,o),
(321,0,c),
(323,6,o),
(324,18,o),
(324,31,cs),
(324,48,o),
(322,67,o),
(320,77,c),
(289,64,o),
(255,64,o),
(233,65,cs),
(155,68,o),
(64,118,o),
(64,205,cs),
(64,295,o),
(122,354,o),
(205,354,cs),
(277,354,o),
(339,295,o),
(339,247,cs),
(339,243,o),
(339,238,o),
(338,235,c),
(345,235,o),
(354,236,o),
(362,240,c),
(381,311,o),
(441,351,o),
(494,351,cs),
(557,351,o),
(625,313,o),
(625,231,cs),
(625,175,o),
(591,62,o),
(419,65,c),
(413,55,l),
(417,32,o),
(434,-1,o),
(444,-13,c),
(607,-11,o),
(663,135,o),
(663,243,cs),
(663,393,o),
(574,445,o),
(512,445,cs),
(431,445,o),
(375,377,o),
(352,318,c),
(359,314,l),
(360,317,o),
(360,321,o),
(360,324,cs),
(360,376,o),
(304,446,o),
(227,446,cs),
(116,446,o),
(30,339,o),
(30,217,cs),
(30,82,o),
(114,-14,o),
(246,-14,cs)
);
}
);
width = 688;
}
);
metricRight = sinYa;
unicode = 3526;
},
{
glyphname = sinPfa;
lastChange = "2024-04-05 03:00:42 +0000";
layers = (
{
anchors = (
{
name = _si_MaU;
pos = (558,200);
},
{
name = rakar;
pos = (563,169);
}
);
layerId = "51BB9282-3B82-4DF1-A67A-294D3E37D73A";
shapes = (
{
closed = 1;
nodes = (
(505,-19,o),
(623,72,o),
(623,197,cs),
(623,288,o),
(511,336,o),
(429,336,cs),
(389,336,o),
(392,328,o),
(369,317,c),
(439,292,l),
(431,304,o),
(414,320,o),
(414,359,cs),
(414,408,o),
(456,423,o),
(484,423,cs),
(528,423,o),
(564,399,o),
(564,361,cs),
(564,325,o),
(493,312,o),
(488,305,c),
(499,288,l),
(526,299,o),
(612,325,o),
(612,381,cs),
(612,424,o),
(575,471,o),
(507,471,cs),
(417,471,o),
(372,404,o),
(372,306,cs),
(372,294,o),
(373,281,o),
(374,269,c),
(384,261,l),
(417,275,o),
(452,281,o),
(487,281,cs),
(542,281,o),
(586,264,o),
(586,208,cs),
(586,130,o),
(490,72,o),
(324,72,cs),
(156,72,o),
(64,119,o),
(64,183,cs),
(64,244,o),
(122,273,o),
(209,273,cs),
(229,273,o),
(250,271,o),
(272,268,c),
(284,280,l),
(288,298,o),
(290,318,o),
(290,338,cs),
(290,401,o),
(264,469,o),
(170,469,cs),
(108,469,o),
(70,434,o),
(70,397,cs),
(70,359,o),
(97,346,o),
(123,344,c),
(131,376,o),
(162,418,o),
(205,418,cs),
(239,418,o),
(254,393,o),
(254,370,cs),
(254,331,o),
(233,309,o),
(223,300,c),
(260,329,l),
(249,331,o),
(237,332,o),
(226,332,cs),
(128,332,o),
(30,276,o),
(30,173,cs),
(30,81,o),
(102,-19,o),
(319,-19,cs)
);
},
{
closed = 1;
nodes = (
(352,182,l),
(503,196,l),
(492,228,l),
(442,226,o),
(400,225,o),
(358,225,cs),
(315,225,o),
(241,226,o),
(185,228,c),
(193,194,l),
(241,194,o),
(319,184,o),
(319,132,c)
);
},
{
closed = 1;
nodes = (
(482,-105,l),
(474,-79,l),
(422,-79,o),
(367,-71,o),
(365,-51,cs),
(352,43,o),
(354,134,o),
(354,196,cs),
(354,267,o),
(353,372,o),
(357,424,cs),
(361,503,o),
(413,552,o),
(453,552,cs),
(507,552,o),
(549,538,o),
(580,491,c),
(596,523,o),
(613,539,o),
(613,581,c),
(606,585,o),
(560,599,o),
(510,599,cs),
(419,599,o),
(307,532,o),
(307,407,cs),
(309,244,o),
(309,72,o),
(309,-49,c),
(309,-49,o),
(306,-73,o),
(222,-73,c),
(228,-105,l)
);
}
);
width = 655;
}
);
},
{
glyphname = sinKSsa;
lastChange = "2024-04-05 03:00:42 +0000";
layers = (
{
anchors = (
{
name = MatraI;
pos = (357,345);
},
{
name = Virama;
pos = (724,408);
}
);
layerId = "51BB9282-3B82-4DF1-A67A-294D3E37D73A";
shapes = (
{
closed = 1;
nodes = (
(291,-6,o),
(328,22,o),
(342,63,c),
(354,19,o),
(391,-6,o),
(435,-6,cs),
(527,-6,o),
(568,94,o),
(568,169,cs),
(568,258,o),
(523,324,o),
(443,324,cs),
(356,324,o),
(256,257,o),
(219,218,c),
(252,243,l),
(254,252,o),
(301,286,o),
(315,297,cs),
(365,339,o),
(492,408,o),
(580,408,cs),
(595,408,o),
(607,406,o),
(618,403,c),
(698,461,l),
(673,465,o),
(647,468,o),
(624,468,cs),
(484,468,o),
(379,394,o),
(289,319,cs),
(143,196,o),
(69,117,o),
(50,98,c),
(47,76,o),
(68,63,o),
(72,62,c),
(79,98,o),
(178,176,o),
(216,200,cs),
(269,234,o),
(342,256,o),
(405,256,cs),
(477,256,o),
(535,226,o),
(535,163,cs),
(535,108,o),
(486,80,o),
(435,80,cs),
(392,80,o),
(363,119,o),
(363,171,cs),
(363,176,o),
(363,181,o),
(364,186,c),
(345,182,l),
(331,118,o),
(284,78,o),
(236,78,cs),
(182,78,o),
(171,123,o),
(127,123,cs),
(120,123,o),
(113,122,o),
(104,119,c),
(84,91,l),
(90,96,o),
(96,98,o),
(103,98,cs),
(115,98,o),
(127,91,o),
(134,80,cs),
(163,38,o),
(189,-6,o),
(248,-6,cs)
);
},
{
closed = 1;
nodes = (
(162,282,o),
(178,284,o),
(191,290,c),
(181,303,o),
(172,317,o),
(172,341,cs),
(172,393,o),
(203,428,o),
(239,428,cs),
(273,428,o),
(288,401,o),
(288,368,cs),
(288,336,o),
(276,312,o),
(261,294,c),
(283,302,l),
(299,319,o),
(337,360,o),
(337,401,cs),
(337,440,o),
(298,457,o),
(257,457,cs),
(177,457,o),
(101,402,o),
(101,332,cs),
(101,299,o),
(116,282,o),
(149,282,cs)
);
},
{
pos = (490,0);
ref = sinSsa;
}
);
userData = {
com.typemytype.robofont.layerData = {
background = {
anchors = (
);
components = (
);
contours = (
{
points = (
{
smooth = 0;
x = 599;
y = 485;
},
{
smooth = 0;
x = 479;
y = 441;
},
{
segmentType = curve;
smooth = 1;
x = 404;
y = 380;
},
{
smooth = 0;
x = 387;
y = 366;
},
{
smooth = 0;
x = 326;
y = 322;
},
{
segmentType = curve;
smooth = 0;
x = 323;
y = 310;
},
{
segmentType = line;
smooth = 0;
x = 282;
y = 279;
},
{
smooth = 0;
x = 328;
y = 329;
},
{
smooth = 0;
x = 457;
y = 414;
},
{
segmentType = curve;
smooth = 1;
x = 569;
y = 414;
},
{
smooth = 0;
x = 673;
y = 414;
},
{
smooth = 0;
x = 733;
y = 325;
},
{
segmentType = curve;
smooth = 1;
x = 728;
y = 204;
},
{
smooth = 0;
x = 724;
y = 110;
},
{
smooth = 0;
x = 671;
y = -8;
},
{
segmentType = curve;
smooth = 1;
x = 559;
y = -8;
},
{
smooth = 0;
x = 501;
y = -8;
},
{
smooth = 0;
x = 455;
y = 23;
},
{
segmentType = curve;
smooth = 0;
x = 439;
y = 80;
},
{
smooth = 0;
x = 419;
y = 26;
},
{
smooth = 0;
x = 372;
y = -10;
},
{
segmentType = curve;
smooth = 1;
x = 312;
y = -8;
},
{
smooth = 0;
x = 242;
y = -6;
},
{
smooth = 0;
x = 208;
y = 49;
},
{
segmentType = curve;
smooth = 1;
x = 173;
y = 102;
},
{
smooth = 0;
x = 160;
y = 122;
},
{
smooth = 0;
x = 127;
y = 134;
},
{
segmentType = curve;
smooth = 0;
x = 109;
y = 115;
},
{
segmentType = line;
smooth = 0;
x = 134;
y = 152;
},
{
smooth = 0;
x = 216;
y = 176;
},
{
smooth = 0;
x = 224;
y = 100;
},
{
segmentType = curve;
smooth = 1;
x = 302;
y = 100;
},
{
smooth = 0;
x = 365;
y = 100;
},
{
smooth = 0;
x = 425;
y = 150;
},
{
segmentType = curve;
smooth = 0;
x = 443;
y = 232;
},
{
segmentType = line;
smooth = 0;
x = 468;
y = 238;
},
{
smooth = 0;
x = 460;
y = 162;
},
{
smooth = 0;
x = 497;
y = 103;
},
{
segmentType = curve;
smooth = 1;
x = 559;
y = 103;
},
{
smooth = 0;
x = 622;
y = 103;
},
{
smooth = 0;
x = 685;
y = 137;
},
{
segmentType = curve;
smooth = 1;
x = 686;
y = 205;
},
{
smooth = 0;
x = 687;
y = 288;
},
{
smooth = 0;
x = 613;
y = 327;
},
{
segmentType = curve;
smooth = 1;
x = 519;
y = 327;
},
{
smooth = 0;
x = 439;
y = 327;
},
{
smooth = 0;
x = 346;
y = 299;
},
{
segmentType = curve;
smooth = 1;
x = 278;
y = 256;
},
{
smooth = 0;
x = 228;
y = 225;
},
{
smooth = 0;
x = 102;
y = 125;
},
{
segmentType = curve;
smooth = 0;
x = 94;
y = 79;
},
{
smooth = 0;
x = 88;
y = 81;
},
{
smooth = 0;
x = 61;
y = 98;
},
{
segmentType = curve;
smooth = 0;
x = 65;
y = 125;
},
{
smooth = 0;
x = 89;
y = 149;
},
{
smooth = 0;
x = 185;
y = 250;
},
{
segmentType = curve;
smooth = 1;
x = 372;
y = 408;
},
{
smooth = 0;
x = 505;
y = 521;
},
{
smooth = 0;
x = 626;
y = 592;
},
{
segmentType = curve;
smooth = 0;
x = 771;
y = 592;
},
{
segmentType = line;
smooth = 0;
x = 728;
y = 485;
}
);
}
);
lib = {
};
name = sinKSsa;
unicodes = (
);
width = 1463;
};
};
};
width = 1126;
}
);
},
{
glyphname = sinKVa;
lastChange = "2024-04-05 03:00:42 +0000";
layers = (
{
layerId = "51BB9282-3B82-4DF1-A67A-294D3E37D73A";
shapes = (
{
closed = 1;
nodes = (
(262,-6,o),
(299,22,o),
(313,63,c),
(325,19,o),
(362,-6,o),
(406,-6,cs),
(498,-6,o),
(539,94,o),
(539,169,cs),
(539,258,o),
(494,324,o),
(414,324,cs),
(327,324,o),
(227,257,o),
(190,218,c),
(223,243,l),
(225,252,o),
(272,286,o),
(286,297,cs),
(330,334,o),
(440,385,o),
(535,385,cs),
(565,385,o),
(593,380,o),
(617,367,c),
(696,422,l),
(653,436,o),
(610,442,o),
(570,442,cs),
(446,442,o),
(339,386,o),
(260,319,cs),
(114,196,o),
(40,117,o),
(21,98,c),
(18,76,o),
(39,63,o),
(43,62,c),
(50,98,o),
(149,176,o),
(187,200,cs),
(240,234,o),
(313,256,o),
(376,256,cs),
(448,256,o),
(506,226,o),
(506,163,cs),
(506,108,o),
(457,80,o),
(406,80,cs),
(363,80,o),
(334,119,o),
(334,171,cs),
(334,176,o),
(334,181,o),
(335,186,c),
(316,182,l),
(302,118,o),
(255,78,o),
(207,78,cs),
(153,78,o),
(142,123,o),
(98,123,cs),
(91,123,o),
(84,122,o),
(75,119,c),
(55,91,l),
(61,96,o),
(67,98,o),
(74,98,cs),
(86,98,o),
(98,91,o),
(105,80,cs),
(134,38,o),
(160,-6,o),
(219,-6,cs)
);
},
{
closed = 1;
nodes = (
(133,282,o),
(149,284,o),
(162,290,c),
(152,303,o),
(143,317,o),
(143,341,cs),
(143,393,o),
(174,428,o),
(210,428,cs),
(244,428,o),
(259,401,o),
(259,368,cs),
(259,336,o),
(247,312,o),
(232,294,c),
(254,302,l),
(270,319,o),
(308,360,o),
(308,401,cs),
(308,440,o),
(269,457,o),
(228,457,cs),
(148,457,o),
(72,402,o),
(72,332,cs),
(72,299,o),
(87,282,o),
(120,282,cs)
);
},
{
pos = (456,0);
ref = sinVa;
}
);
width = 1065;
}
);
metricLeft = sinKa;
},
{
glyphname = sinTVa;
lastChange = "2024-04-05 03:00:42 +0000";
layers = (
{
layerId = "51BB9282-3B82-4DF1-A67A-294D3E37D73A";
shapes = (
{
closed = 1;
nodes = (
(437,-7,o),
(512,118,o),
(512,204,cs),
(512,279,o),
(461,318,o),
(392,318,cs),
(345,318,o),
(299,300,o),
(275,285,cs),
(259,275,o),
(239,265,o),
(219,249,c),
(229,259,o),
(252,280,o),
(265,289,cs),
(328,334,o),
(409,389,o),
(523,389,cs),
(585,389,l),
(602,389,l),
(616,443,l),
(604,444,o),
(591,444,o),
(576,444,cs),
(437,444,o),
(333,400,o),
(255,327,cs),
(191,265,o),
(103,162,o),
(43,86,c),
(39,64,o),
(68,50,o),
(69,49,c),
(89,104,o),
(127,145,o),
(168,182,cs),
(218,227,o),
(279,256,o),
(371,256,cs),
(432,256,o),
(482,237,o),
(482,191,cs),
(482,143,o),
(426,71,o),
(300,71,cs),
(190,71,o),
(165,118,o),
(119,118,cs),
(104,118,o),
(82,113,o),
(68,99,c),
(72,55,ls),
(71,66,o),
(83,93,o),
(110,93,cs),
(135,93,o),
(162,-7,o),
(285,-7,cs)
);
},
{
closed = 1;
nodes = (
(218,280,l),
(237,298,o),
(280,360,o),
(280,403,cs),
(280,441,o),
(244,459,o),
(198,459,cs),
(120,459,o),
(45,403,o),
(45,331,cs),
(45,302,o),
(60,284,o),
(93,284,cs),
(109,284,o),
(126,288,o),
(134,293,c),
(128,300,o),
(114,326,o),
(116,355,cs),
(117,390,o),
(139,423,o),
(176,423,cs),
(214,423,o),
(229,401,o),
(229,368,cs),
(229,335,o),
(214,284,o),
(195,262,c)
);
},
{
pos = (428,0);
ref = sinVa;
}
);
width = 1078;
}
);
},
{
glyphname = sinTTha;
lastChange = "2024-04-05 03:00:42 +0000";
layers = (
{
layerId = "51BB9282-3B82-4DF1-A67A-294D3E37D73A";
shapes = (
{
closed = 1;
nodes = (
(904,-18,o),
(1013,114,o),
(1013,281,cs),
(1013,498,o),
(829,639,o),
(671,639,c),
(647,574,l),
(807,574,o),
(967,457,o),
(967,295,cs),
(967,177,o),
(880,70,o),
(722,70,cs),
(618,70,o),
(535,117,o),
(535,196,cs),
(535,263,o),
(595,320,o),
(687,320,cs),
(700,320,o),
(708,319,o),
(714,317,c),
(724,332,l),
(721,351,o),
(714,370,o),
(703,386,c),
(605,387,o),
(494,328,o),
(494,172,cs),
(494,47,o),
(603,-18,o),
(726,-18,cs)
);
},
{
closed = 1;
nodes = (
(230,280,l),
(249,298,o),
(292,360,o),
(292,403,cs),
(292,441,o),
(256,459,o),
(210,459,cs),
(133,459,o),
(57,404,o),
(57,334,cs),
(57,303,o),
(71,284,o),
(105,284,cs),
(121,284,o),
(138,288,o),
(146,293,c),
(140,300,o),
(126,326,o),
(128,355,cs),
(129,390,o),
(151,423,o),
(188,423,cs),
(226,423,o),
(241,401,o),
(241,368,cs),
(241,335,o),
(226,284,o),
(207,262,c)
);
},
{
closed = 1;
nodes = (
(449,-7,o),
(524,118,o),
(524,204,cs),
(524,279,o),
(473,318,o),
(404,318,cs),
(357,318,o),
(311,300,o),
(287,285,cs),
(271,275,o),
(251,265,o),
(231,249,c),
(241,259,o),
(264,280,o),
(277,289,cs),
(341,333,o),
(401,358,o),
(514,358,cs),
(552,358,o),
(602,348,o),
(634,334,c),
(703,386,l),
(659,409,o),
(609,424,o),
(542,424,cs),
(454,424,o),
(345,400,o),
(267,327,cs),
(202,266,o),
(115,161,o),
(55,86,c),
(51,64,o),
(80,50,o),
(81,49,c),
(101,104,o),
(139,145,o),
(180,182,cs),
(230,227,o),
(291,256,o),
(383,256,cs),
(444,256,o),
(494,237,o),
(494,191,cs),
(494,142,o),
(437,71,o),
(307,71,cs),
(202,71,o),
(176,118,o),
(131,118,cs),
(116,118,o),
(94,113,o),
(80,99,c),
(84,55,ls),
(83,66,o),
(95,93,o),
(122,93,cs),
(147,93,o),
(174,-7,o),
(297,-7,cs)
);
},
{
closed = 1;
nodes = (
(852,423,o),
(911,440,o),
(935,462,c),
(927,483,l),
(906,474,o),
(872,468,o),
(836,468,cs),
(717,468,o),
(671,523,o),
(671,639,c),
(639,623,l),
(637,614,o),
(634,594,o),
(634,572,cs),
(634,477,o),
(688,423,o),
(792,423,cs)
);
}
);
width = 1050;
}
);
},
{
glyphname = sinNDa;
lastChange = "2024-04-05 03:00:42 +0000";
layers = (
{
layerId = "51BB9282-3B82-4DF1-A67A-294D3E37D73A";
shapes = (
{
closed = 1;
nodes = (
(408,-12,o),
(500,80,o),
(500,198,cs),
(500,273,o),
(463,311,o),
(407,311,cs),
(346,311,o),
(282,266,o),
(225,219,c),
(220,203,l),
(224,209,o),
(279,265,o),
(294,279,c),
(357,334,o),
(451,401,o),
(566,401,cs),
(580,401,o),
(601,400,o),
(620,396,c),
(666,472,l),
(476,478,o),
(368,410,o),
(269,303,cs),
(197,222,o),
(147,136,o),
(99,136,cs),
(83,136,o),
(75,145,o),
(75,161,cs),
(75,165,o),
(77,170,o),
(78,175,c),
(75,176,o),
(68,177,o),
(62,177,cs),
(55,177,o),
(45,176,o),
(40,174,c),
(51,81,o),
(121,-12,o),
(265,-12,cs)
);
},
{
closed = 1;
nodes = (
(178,70,o),
(116,86,o),
(92,120,c),
(89,98,l),
(186,99,o),
(210,247,o),
(379,247,cs),
(435,247,o),
(465,230,o),
(465,190,cs),
(465,125,o),
(389,70,o),
(251,70,cs)
);
},
{
closed = 1;
nodes = (
(288,305,o),
(332,370,o),
(332,413,cs),
(332,447,o),
(305,467,o),
(254,467,cs),
(174,467,o),
(96,415,o),
(96,343,cs),
(96,310,o),
(113,293,o),
(146,293,cs),
(161,293,o),
(178,296,o),
(188,302,c),
(181,311,o),
(173,332,o),
(173,355,cs),
(173,397,o),
(198,432,o),
(235,432,cs),
(264,432,o),
(284,409,o),
(284,372,cs),
(284,341,o),
(270,308,o),
(257,289,c),
(265,282,l)
);
},
{
pos = (433,0);
ref = sinDa;
}
);
width = 887;
}
);
},
{
glyphname = sinNDha;
lastChange = "2024-04-05 03:00:42 +0000";
layers = (
{
layerId = "51BB9282-3B82-4DF1-A67A-294D3E37D73A";
shapes = (
{
closed = 1;
nodes = (
(977,-16,o),
(1031,118,o),
(1031,271,cs),
(1031,466,o),
(921,606,o),
(706,606,cs),
(615,606,o),
(573,585,o),
(530,562,c),
(521,547,o),
(516,524,o),
(516,506,cs),
(516,498,o),
(517,491,o),
(519,486,c),
(551,506,o),
(583,533,o),
(701,533,cs),
(836,533,o),
(984,480,o),
(984,288,cs),
(984,153,o),
(936,66,o),
(855,66,cs),
(812,66,o),
(760,80,o),
(760,151,c),
(761,160,l),
(742,156,l),
(724,110,o),
(694,70,o),
(624,70,cs),
(552,70,o),
(500,113,o),
(500,195,cs),
(500,246,o),
(546,331,o),
(666,331,cs),
(690,331,o),
(717,328,o),
(744,322,c),
(755,335,l),
(753,357,o),
(748,368,o),
(738,388,c),
(727,389,o),
(715,376,o),
(701,376,cs),
(560,376,o),
(455,314,o),
(455,175,cs),
(455,51,o),
(530,-15,o),
(619,-15,cs),
(706,-15,o),
(743,49,o),
(748,84,c),
(740,107,l),
(739,101,o),
(738,95,o),
(738,86,cs),
(738,30,o),
(788,-16,o),
(864,-16,cs)
);
},
{
closed = 1;
nodes = (
(158,67,o),
(100,79,o),
(72,117,c),
(69,105,l),
(164,106,o),
(195,244,o),
(355,244,cs),
(415,244,o),
(452,226,o),
(452,190,cs),
(452,108,o),
(341,67,o),
(243,67,cs)
);
},
{
closed = 1;
nodes = (
(266,298,o),
(312,368,o),
(312,407,cs),
(312,444,o),
(285,464,o),
(233,464,cs),
(154,464,o),
(76,413,o),
(76,336,cs),
(76,307,o),
(93,290,o),
(127,290,cs),
(141,290,o),
(158,293,o),
(168,298,c),
(161,307,o),
(153,328,o),
(153,355,cs),
(153,394,o),
(178,429,o),
(215,429,cs),
(243,429,o),
(265,406,o),
(265,372,cs),
(265,369,o),
(264,366,o),
(264,362,cs),
(260,332,o),
(249,302,o),
(237,286,c),
(245,279,l)
);
},
{
closed = 1;
nodes = (
(388,-15,o),
(482,70,o),
(480,204,cs),
(480,269,o),
(443,307,o),
(382,307,cs),
(328,307,o),
(262,263,o),
(205,216,c),
(200,200,l),
(204,206,o),
(249,260,o),
(263,274,cs),
(316,321,o),
(411,386,o),
(533,386,cs),
(582,386,o),
(664,375,o),
(702,351,c),
(738,388,l),
(689,426,o),
(603,441,o),
(548,441,cs),
(433,441,o),
(316,371,o),
(249,299,cs),
(202,248,o),
(127,133,o),
(80,133,cs),
(63,133,o),
(55,142,o),
(55,157,cs),
(55,161,o),
(57,167,o),
(58,172,c),
(55,173,o),
(48,174,o),
(42,174,cs),
(34,174,o),
(25,173,o),
(20,171,c),
(29,84,o),
(101,-15,o),
(239,-15,cs)
);
}
);
width = 1077;
}
);
},
{
glyphname = sinNVa;
lastChange = "2024-04-05 03:00:42 +0000";
layers = (
{
layerId = "51BB9282-3B82-4DF1-A67A-294D3E37D73A";
shapes = (
{
closed = 1;
nodes = (
(418,-29,o),
(512,55,o),
(510,189,cs),
(510,254,o),
(473,293,o),
(412,293,cs),
(358,293,o),
(292,248,o),
(235,202,c),
(230,185,l),
(234,191,o),
(279,246,o),
(293,259,cs),
(352,312,o),
(464,376,o),
(562,376,c),
(599,440,l),
(478,440,o),
(347,359,o),
(279,284,cs),
(232,233,o),
(157,118,o),
(110,118,cs),
(93,118,o),
(85,127,o),
(85,142,cs),
(85,147,o),
(87,153,o),
(88,158,c),
(85,159,o),
(79,160,o),
(72,160,cs),
(64,160,o),
(55,159,o),
(50,156,c),
(59,70,o),
(131,-29,o),
(269,-29,cs)
);
},
{
closed = 1;
nodes = (
(188,53,o),
(130,64,o),
(102,102,c),
(99,91,l),
(194,91,o),
(225,230,o),
(385,230,cs),
(445,230,o),
(482,211,o),
(482,175,cs),
(482,94,o),
(371,53,o),
(273,53,cs)
);
},
{
closed = 1;
nodes = (
(296,284,o),
(342,353,o),
(342,393,cs),
(342,430,o),
(315,450,o),
(263,450,cs),
(184,450,o),
(106,399,o),
(106,321,cs),
(106,292,o),
(123,275,o),
(157,275,cs),
(171,275,o),
(188,278,o),
(198,284,c),
(191,293,o),
(183,313,o),
(183,341,cs),
(183,379,o),
(208,414,o),
(245,414,cs),
(273,414,o),
(295,391,o),
(295,358,cs),
(294,348,ls),
(291,318,o),
(279,287,o),
(267,271,c),
(275,264,l)
);
},
{
pos = (430,0);
ref = sinVa;
}
);
width = 1070;
}
);
},
{
glyphname = sinNTha;
lastChange = "2024-04-05 03:00:42 +0000";
layers = (
{
layerId = "51BB9282-3B82-4DF1-A67A-294D3E37D73A";
shapes = (
{
closed = 1;
nodes = (
(408,-15,o),
(502,70,o),
(500,204,cs),
(500,269,o),
(463,307,o),
(402,307,cs),
(348,307,o),
(282,263,o),
(225,216,c),
(220,200,l),
(224,206,o),
(289,260,o),
(304,274,cs),
(356,321,o),
(389,401,o),
(521,401,cs),
(590,401,o),
(625,372,o),
(643,318,c),
(682,386,l),
(643,434,o),
(601,467,o),
(526,467,cs),
(410,467,o),
(336,371,o),
(269,299,cs),
(222,248,o),
(147,133,o),
(100,133,cs),
(83,133,o),
(75,142,o),
(75,157,cs),
(75,161,o),
(77,167,o),
(78,172,c),
(75,173,o),
(68,174,o),
(62,174,cs),
(54,174,o),
(45,173,o),
(40,171,c),
(49,84,o),
(121,-15,o),
(259,-15,cs)
);
},
{
closed = 1;
nodes = (
(178,67,o),
(120,79,o),
(92,117,c),
(89,105,l),
(184,106,o),
(215,244,o),
(375,244,cs),
(435,244,o),
(472,226,o),
(472,190,cs),
(472,108,o),
(361,67,o),
(263,67,cs)
);
},
{
closed = 1;
nodes = (
(286,298,o),
(332,368,o),
(332,407,cs),
(332,444,o),
(305,464,o),
(253,464,cs),
(174,464,o),
(96,413,o),
(96,336,cs),
(96,307,o),
(113,290,o),
(147,290,cs),
(161,290,o),
(178,293,o),
(188,298,c),
(181,307,o),
(173,328,o),
(173,355,cs),
(173,394,o),
(198,429,o),
(235,429,cs),
(263,429,o),
(285,406,o),
(285,372,cs),
(285,369,o),
(284,366,o),
(284,362,cs),
(280,332,o),
(269,302,o),
(257,286,c),
(265,279,l)
);
},
{
pos = (427,0);
ref = sinTha;
}
);
width = 1029;
}
);
},
{
glyphname = sinGDha;
lastChange = "2024-04-05 03:00:42 +0000";
layers = (
{
layerId = "51BB9282-3B82-4DF1-A67A-294D3E37D73A";
shapes = (
{
closed = 1;
nodes = (
(936,-16,o),
(990,118,o),
(990,271,cs),
(990,466,o),
(881,606,o),
(666,606,cs),
(564,606,o),
(501,585,o),
(469,562,c),
(460,547,o),
(455,524,o),
(455,506,cs),
(455,498,o),
(456,491,o),
(458,486,c),
(490,506,o),
(542,533,o),
(661,533,cs),
(795,533,o),
(943,480,o),
(943,288,cs),
(943,153,o),
(895,66,o),
(814,66,cs),
(771,66,o),
(719,80,o),
(719,151,c),
(720,160,l),
(701,156,l),
(683,110,o),
(653,70,o),
(583,70,cs),
(511,70,o),
(453,113,o),
(453,195,cs),
(453,266,o),
(509,333,o),
(629,333,cs),
(653,333,o),
(676,330,o),
(700,324,c),
(711,337,l),
(709,359,o),
(707,373,o),
(697,387,c),
(661,390,ls),
(520,397,o),
(414,314,o),
(414,175,cs),
(414,51,o),
(489,-15,o),
(578,-15,cs),
(666,-15,o),
(702,49,o),
(707,84,c),
(699,107,l),
(698,101,o),
(697,95,o),
(697,86,cs),
(697,30,o),
(747,-16,o),
(823,-16,cs)
);
},
{
closed = 1;
nodes = (
(377,-9,o),
(445,80,o),
(445,176,cs),
(445,251,o),
(393,306,o),
(327,305,c),
(323,253,l),
(353,252,o),
(410,233,o),
(410,183,cs),
(410,115,o),
(324,81,o),
(255,81,cs),
(157,81,o),
(81,132,o),
(81,218,cs),
(81,301,o),
(143,361,o),
(254,361,c),
(259,368,o),
(264,414,o),
(264,438,cs),
(264,444,o),
(264,450,o),
(263,453,c),
(156,452,o),
(44,362,o),
(44,197,cs),
(44,72,o),
(125,-9,o),
(251,-9,cs)
);
},
{
closed = 1;
nodes = (
(313,172,o),
(320,172,o),
(328,173,c),
(326,180,o),
(325,193,o),
(325,200,cs),
(325,309,o),
(397,399,o),
(522,399,cs),
(599,399,o),
(637,378,o),
(668,349,c),
(697,387,l),
(655,433,o),
(609,460,o),
(531,460,cs),
(383,460,o),
(296,338,o),
(291,173,c),
(296,172,o),
(301,172,o),
(306,172,cs)
);
}
);
width = 1037;
}
);
},
{
glyphname = sinDVa;
lastChange = "2024-04-05 03:00:42 +0000";
layers = (
{
layerId = "51BB9282-3B82-4DF1-A67A-294D3E37D73A";
shapes = (
{
closed = 1;
nodes = (
(114,49,o),
(130,51,o),
(137,56,c),
(126,81,o),
(96,155,o),
(96,223,cs),
(96,303,o),
(134,396,o),
(232,403,c),
(269,442,l),
(133,442,o),
(44,339,o),
(44,226,cs),
(44,135,o),
(83,76,o),
(103,49,c)
);
},
{
pos = (86,11);
ref = sinVa;
}
);
width = 690;
}
);
metricRight = sinVa;
},
{
glyphname = sinDDha;
lastChange = "2024-04-05 03:00:42 +0000";
layers = (
{
layerId = "51BB9282-3B82-4DF1-A67A-294D3E37D73A";
shapes = (
{
closed = 1;
nodes = (
(715,-16,o),
(769,118,o),
(769,271,cs),
(769,466,o),
(659,606,o),
(444,606,cs),
(343,606,o),
(280,585,o),
(248,562,c),
(239,547,o),
(234,525,o),
(234,506,cs),
(234,498,o),
(235,491,o),
(237,486,c),
(269,506,o),
(321,533,o),
(439,533,cs),
(574,533,o),
(722,480,o),
(722,288,cs),
(722,153,o),
(674,66,o),
(592,66,cs),
(550,66,o),
(498,80,o),
(498,151,c),
(499,161,l),
(480,156,l),
(462,110,o),
(432,70,o),
(362,70,cs),
(290,70,o),
(232,113,o),
(232,195,cs),
(232,266,o),
(277,325,o),
(397,325,cs),
(421,325,o),
(447,322,o),
(475,316,c),
(486,329,l),
(486,351,o),
(486,358,o),
(476,378,c),
(465,379,o),
(453,380,o),
(439,380,cs),
(298,380,o),
(193,314,o),
(193,175,cs),
(193,51,o),
(268,-15,o),
(357,-15,cs),
(444,-15,o),
(481,49,o),
(486,84,c),
(478,107,l),
(477,101,o),
(476,95,o),
(476,86,cs),
(476,30,o),
(526,-16,o),
(602,-16,cs)
);
},
{
closed = 1;
nodes = (
(137,-22,o),
(148,-18,o),
(152,-15,c),
(129,12,o),
(115,64,o),
(115,123,cs),
(115,234,o),
(144,336,o),
(312,336,cs),
(327,336,o),
(342,335,o),
(358,332,c),
(341,321,l),
(459,369,l),
(457,379,l),
(439,382,o),
(368,386,o),
(334,386,cs),
(137,386,o),
(50,281,o),
(50,139,cs),
(50,67,o),
(88,10,o),
(118,-22,c)
);
}
);
width = 809;
}
);
},
{
glyphname = sinTtTtha;
lastChange = "2024-04-05 03:00:42 +0000";
layers = (
{
layerId = "51BB9282-3B82-4DF1-A67A-294D3E37D73A";
shapes = (
{
closed = 1;
nodes = (
(687,-18,o),
(748,119,o),
(748,257,cs),
(748,518,o),
(524,640,o),
(363,640,c),
(352,570,l),
(515,570,o),
(704,445,o),
(704,262,cs),
(704,160,o),
(646,80,o),
(564,80,cs),
(514,80,o),
(473,109,o),
(473,162,cs),
(473,168,o),
(473,173,o),
(474,179,c),
(453,174,l),
(436,115,o),
(392,78,o),
(330,78,cs),
(272,78,o),
(224,109,o),
(224,171,cs),
(224,246,o),
(297,300,o),
(383,300,cs),
(405,300,o),
(426,298,o),
(448,294,c),
(458,306,l),
(455,331,o),
(441,347,o),
(431,357,c),
(334,361,o),
(185,300,o),
(185,152,cs),
(185,64,o),
(237,-15,o),
(325,-15,cs),
(407,-15,o),
(456,55,o),
(461,104,c),
(462,104,o),
(443,108,o),
(444,110,c),
(445,70,o),
(464,-18,o),
(564,-18,cs)
);
},
{
closed = 1;
nodes = (
(150,9,o),
(162,13,o),
(166,16,c),
(143,44,o),
(128,96,o),
(128,151,cs),
(128,262,o),
(208,337,o),
(309,337,cs),
(325,337,o),
(330,336,o),
(346,333,c),
(432,349,l),
(430,358,l),
(428,358,o),
(394,376,o),
(326,376,cs),
(186,376,o),
(69,303,o),
(69,168,cs),
(69,99,o),
(100,42,o),
(131,9,c)
);
},
{
closed = 1;
nodes = (
(541,419,o),
(605,436,o),
(630,455,c),
(615,480,l),
(594,472,o),
(566,465,o),
(525,465,cs),
(399,465,o),
(372,528,o),
(363,640,c),
(333,623,l),
(330,603,o),
(328,583,o),
(328,565,cs),
(328,480,o),
(371,419,o),
(482,419,cs)
);
}
);
width = 789;
}
);
},
{
category = Mark;
glyphname = sinMatraAa;
lastChange = "2024-04-05 03:00:42 +0000";
layers = (
{
layerId = "51BB9282-3B82-4DF1-A67A-294D3E37D73A";
shapes = (
{
closed = 1;
nodes = (
(230,-10,o),
(266,124,o),
(266,221,cs),
(266,361,o),
(194,423,o),
(130,423,cs),
(77,423,o),
(50,396,o),
(28,375,c),
(25,365,o),
(24,354,o),
(24,345,cs),
(24,339,o),
(24,333,o),
(25,328,c),
(46,340,o),
(75,350,o),
(101,350,cs),
(181,350,o),
(226,310,o),
(231,245,cs),
(232,237,o),
(232,230,o),
(232,224,cs),
(232,125,o),
(176,65,o),
(96,65,cs),
(67,65,o),
(30,75,o),
(12,80,c),
(4,67,o),
(1,53,o),
(1,34,c),
(4,18,o),
(53,-10,o),
(104,-10,cs)
);
}
);
width = 307;
}
);
script = sinhala;
subCategory = Spacing;
unicode = 3535;
},
{
category = Mark;
glyphname = sinMatraAae;
lastChange = "2024-04-05 03:00:42 +0000";
layers = (
{
layerId = "51BB9282-3B82-4DF1-A67A-294D3E37D73A";
shapes = (
{
closed = 1;
nodes = (
(286,-133,o),
(332,-81,o),
(347,-55,c),
(349,-46,o),
(340,-22,o),
(334,-19,c),
(310,-42,o),
(264,-60,o),
(220,-60,cs),
(168,-60,o),
(123,-26,o),
(123,44,cs),
(123,107,o),
(160,147,o),
(224,162,c),
(230,167,l),
(201,211,l),
(188,209,o),
(193,215,o),
(190,205,cs),
(189,203,o),
(187,204,o),
(183,203,c),
(121,165,o),
(81,113,o),
(81,25,cs),
(81,-68,o),
(132,-133,o),
(215,-133,cs)
);
},
{
closed = 1;
nodes = (
(233,175,o),
(237,198,o),
(235,208,c),
(217,212,o),
(175,213,o),
(133,221,c),
(208,264,l),
(211,275,o),
(213,294,o),
(213,309,cs),
(213,314,o),
(213,319,o),
(212,323,c),
(152,325,o),
(87,326,o),
(23,329,c),
(19,324,o),
(17,311,o),
(17,298,cs),
(17,288,o),
(18,279,o),
(21,274,c),
(164,287,l),
(127,270,o),
(75,240,o),
(41,228,c),
(41,219,o),
(40,209,o),
(43,200,c),
(77,197,o),
(129,189,o),
(154,183,cs),
(230,167,l)
);
}
);
width = 371;
}
);
metricLeft = tt;
script = sinhala;
subCategory = Spacing;
unicode = 3537;
},
{
category = Mark;
glyphname = sinMatraAe;
lastChange = "2024-04-05 03:00:42 +0000";
layers = (
{
layerId = "51BB9282-3B82-4DF1-A67A-294D3E37D73A";
shapes = (
{
closed = 1;
nodes = (
(307,-132,o),
(350,-79,o),
(364,-53,c),
(363,-37,o),
(359,-26,o),
(353,-19,c),
(335,-36,o),
(289,-62,o),
(237,-62,cs),
(168,-62,o),
(126,-17,o),
(126,67,cs),
(126,156,o),
(160,233,o),
(241,269,c),
(246,282,o),
(250,285,o),
(250,306,cs),
(250,316,o),
(249,325,o),
(247,333,c),
(219,332,o),
(63,327,o),
(24,325,c),
(20,314,o),
(18,308,o),
(18,293,cs),
(18,281,o),
(19,270,o),
(21,262,c),
(148,269,l),
(110,209,o),
(81,144,o),
(81,37,cs),
(81,-65,o),
(130,-132,o),
(229,-132,cs)
);
}
);
width = 369;
}
);
script = sinhala;
subCategory = Spacing;
unicode = 3536;
},
{
category = Mark;
glyphname = sinMatraAi;
lastChange = "2024-04-05 03:00:42 +0000";
layers = (
{
layerId = "51BB9282-3B82-4DF1-A67A-294D3E37D73A";
shapes = (
{
closed = 1;
nodes = (
(378,-24,o),
(449,70,o),
(449,164,cs),
(449,261,o),
(388,315,o),
(311,315,cs),
(254,315,o),
(193,276,o),
(193,206,cs),
(193,165,o),
(221,131,o),
(265,131,cs),
(317,131,o),
(344,168,o),
(344,209,cs),
(344,245,o),
(322,268,o),
(316,275,c),
(286,272,l),
(292,269,o),
(312,253,o),
(312,222,cs),
(312,200,o),
(301,181,o),
(267,181,cs),
(241,181,o),
(227,195,o),
(227,213,cs),
(227,238,o),
(255,260,o),
(299,260,cs),
(345,260,o),
(411,247,o),
(411,176,cs),
(411,104,o),
(322,53,o),
(238,53,cs),
(156,53,o),
(72,102,o),
(72,206,cs),
(72,319,o),
(180,386,o),
(292,386,cs),
(424,386,o),
(486,333,o),
(486,333,c),
(497,349,o),
(508,365,o),
(506,390,c),
(506,390,o),
(451,446,o),
(303,446,cs),
(169,446,o),
(32,350,o),
(32,184,cs),
(32,71,o),
(103,-24,o),
(237,-24,cs)
);
},
{
pos = (482,0);
ref = sinMatraE;
}
);
width = 970;
}
);
metricLeft = "=sinMatraE";
metricRight = "=sinMatraE";
script = sinhala;
subCategory = Spacing;
unicode = 3547;
},
{
category = Mark;
glyphname = sinMatraE;
lastChange = "2024-04-05 03:00:42 +0000";
layers = (
{
layerId = "51BB9282-3B82-4DF1-A67A-294D3E37D73A";
shapes = (
{
closed = 1;
nodes = (
(387,-16,o),
(448,86,o),
(448,168,cs),
(448,273,o),
(369,317,o),
(302,317,cs),
(238,317,o),
(184,280,o),
(184,217,cs),
(184,162,o),
(224,135,o),
(269,135,cs),
(317,135,o),
(344,172,o),
(344,213,cs),
(344,247,o),
(316,273,o),
(302,280,c),
(278,274,l),
(293,271,o),
(311,254,o),
(311,225,cs),
(311,203,o),
(292,185,o),
(260,185,cs),
(234,185,o),
(210,200,o),
(210,222,cs),
(210,251,o),
(242,265,o),
(284,265,cs),
(330,265,o),
(410,249,o),
(410,176,cs),
(410,111,o),
(349,58,o),
(246,58,cs),
(147,58,o),
(72,117,o),
(72,209,cs),
(72,320,o),
(170,381,o),
(284,381,cs),
(368,381,o),
(427,352,o),
(435,348,c),
(443,364,o),
(454,392,o),
(454,411,c),
(447,416,o),
(394,446,o),
(295,446,cs),
(152,446,o),
(32,348,o),
(32,203,cs),
(32,77,o),
(118,-16,o),
(247,-16,cs)
);
}
);
width = 488;
}
);
script = sinhala;
subCategory = Spacing;
unicode = 3545;
},
{
glyphname = sinMatraI;
lastChange = "2024-04-05 03:00:42 +0000";
layers = (
{
layerId = "51BB9282-3B82-4DF1-A67A-294D3E37D73A";
shapes = (
{
closed = 1;
nodes = (
(181,427,o),
(216,464,o),
(216,511,cs),
(216,602,o),
(97,629,o),
(13,629,cs),
(-102,629,o),
(-216,591,o),
(-216,500,cs),
(-216,458,o),
(-187,432,o),
(-143,419,c),
(-128,446,l),
(-143,454,o),
(-168,462,o),
(-168,491,cs),
(-168,548,o),
(-95,553,o),
(-24,553,cs),
(80,553,o),
(168,550,o),
(168,484,cs),
(168,463,o),
(156,449,o),
(141,437,c),
(154,417,l)
);
}
);
width = 0;
}
);
unicode = 3538;
},
{
glyphname = sinMatraIi;
lastChange = "2024-04-05 03:00:42 +0000";
layers = (
{
layerId = "51BB9282-3B82-4DF1-A67A-294D3E37D73A";
shapes = (
{
closed = 1;
nodes = (
(170,385,o),
(207,411,o),
(207,476,cs),
(207,551,o),
(125,633,o),
(-35,633,cs),
(-149,633,o),
(-223,582,o),
(-223,495,cs),
(-223,430,o),
(-174,391,o),
(-148,391,c),
(-140,389,o),
(-134,388,o),
(-128,388,cs),
(-104,388,o),
(-93,402,o),
(-91,409,c),
(-108,418,o),
(-188,444,o),
(-188,489,cs),
(-188,551,o),
(-117,561,o),
(-21,561,cs),
(48,561,o),
(168,545,o),
(168,485,cs),
(168,455,o),
(147,418,o),
(128,418,cs),
(105,418,o),
(93,445,o),
(93,467,cs),
(93,495,o),
(102,527,o),
(148,538,c),
(126,555,l),
(111,553,o),
(44,522,o),
(44,463,cs),
(44,410,o),
(78,385,o),
(127,385,cs)
);
}
);
width = 0;
}
);
unicode = 3539;
},
{
category = Mark;
glyphname = sinMatraLl;
lastChange = "2024-04-05 03:00:42 +0000";
layers = (
{
layerId = "51BB9282-3B82-4DF1-A67A-294D3E37D73A";
shapes = (
{
closed = 1;
nodes = (
(370,-16,o),
(402,132,o),
(402,264,cs),
(402,398,o),
(355,444,o),
(284,444,cs),
(211,444,o),
(148,373,o),
(149,240,c),
(154,239,o),
(158,238,o),
(163,238,cs),
(169,238,o),
(173,239,o),
(182,240,c),
(181,249,o),
(181,259,o),
(181,267,cs),
(181,326,o),
(202,373,o),
(268,373,cs),
(338,373,o),
(368,333,o),
(368,251,cs),
(368,206,o),
(363,39,o),
(214,39,cs),
(167,39,o),
(152,83,o),
(140,103,c),
(99,112,o),
(59,103,o),
(58,59,cs),
(57,0,o),
(139,-16,o),
(201,-16,cs)
);
},
{
closed = 1;
nodes = (
(245,131,o),
(272,192,o),
(272,248,cs),
(272,314,o),
(214,334,o),
(182,333,c),
(178,290,l),
(212,291,o),
(247,279,o),
(247,245,cs),
(247,214,o),
(219,194,o),
(173,194,cs),
(140,194,o),
(79,201,o),
(79,286,cs),
(79,353,o),
(135,416,o),
(147,428,c),
(140,437,o),
(122,443,o),
(107,443,cs),
(103,443,o),
(99,443,o),
(96,442,c),
(72,410,o),
(52,355,o),
(52,284,cs),
(52,215,o),
(80,131,o),
(171,131,cs)
);
}
);
width = 447;
}
);
script = sinhala;
subCategory = Spacing;
unicode = 3571;
},
{
category = Mark;
glyphname = sinMatraLs;
lastChange = "2024-04-05 03:00:42 +0000";
layers = (
{
layerId = "51BB9282-3B82-4DF1-A67A-294D3E37D73A";
shapes = (
{
closed = 1;
nodes = (
(360,-16,o),
(402,132,o),
(402,274,cs),
(402,398,o),
(355,444,o),
(284,444,cs),
(211,444,o),
(148,373,o),
(149,240,c),
(154,239,o),
(158,238,o),
(163,238,cs),
(169,238,o),
(173,239,o),
(182,240,c),
(181,249,o),
(181,259,o),
(181,267,cs),
(181,326,o),
(202,373,o),
(268,373,cs),
(338,373,o),
(368,333,o),
(368,261,cs),
(368,206,o),
(353,57,o),
(214,57,cs),
(167,57,o),
(116,71,o),
(82,98,c),
(73,95,o),
(60,79,o),
(57,69,c),
(81,21,o),
(149,-16,o),
(211,-16,cs)
);
},
{
closed = 1;
nodes = (
(245,131,o),
(272,192,o),
(272,248,cs),
(272,314,o),
(214,334,o),
(182,333,c),
(178,290,l),
(212,291,o),
(247,279,o),
(247,245,cs),
(247,214,o),
(219,194,o),
(173,194,cs),
(140,194,o),
(79,201,o),
(79,286,cs),
(79,353,o),
(135,416,o),
(147,428,c),
(140,437,o),
(122,443,o),
(107,443,cs),
(103,443,o),
(99,443,o),
(96,442,c),
(72,410,o),
(52,355,o),
(52,284,cs),
(52,215,o),
(80,131,o),
(171,131,cs)
);
}
);
width = 469;
}
);
script = sinhala;
subCategory = Spacing;
unicode = 3551;
},
{
category = Mark;
glyphname = sinMatraR;
lastChange = "2024-04-05 03:00:42 +0000";
layers = (
{
layerId = "51BB9282-3B82-4DF1-A67A-294D3E37D73A";
shapes = (
{
closed = 1;
nodes = (
(270,-15,o),
(296,109,o),
(296,204,cs),
(296,345,o),
(223,408,o),
(160,408,cs),
(107,408,o),
(70,380,o),
(47,359,c),
(46,356,o),
(45,350,o),
(45,344,cs),
(45,333,o),
(48,320,o),
(55,313,c),
(76,325,o),
(105,342,o),
(142,342,cs),
(217,342,o),
(257,288,o),
(257,224,cs),
(257,121,o),
(202,34,o),
(138,34,cs),
(105,34,o),
(88,51,o),
(88,88,cs),
(88,150,o),
(118,189,o),
(171,189,cs),
(210,189,o),
(237,175,o),
(264,152,c),
(268,216,l),
(251,224,o),
(221,227,o),
(192,227,cs),
(97,227,o),
(25,160,o),
(25,88,cs),
(25,8,o),
(100,-15,o),
(139,-15,cs)
);
}
);
width = 332;
}
);
script = sinhala;
subCategory = Spacing;
unicode = 3544;
},
{
glyphname = sinMatraU;
lastChange = "2024-04-05 03:00:42 +0000";
layers = (
{
layerId = "51BB9282-3B82-4DF1-A67A-294D3E37D73A";
shapes = (
{
closed = 1;
nodes = (
(32,-215,l),
(25,207,l),
(-6,205,l),
(-24,-142,l),
(-126,-156,o),
(-211,-169,o),
(-303,-167,cs),
(-356,-166,o),
(-378,-118,o),
(-378,-90,c),
(-381,-89,o),
(-384,-89,o),
(-387,-89,cs),
(-410,-89,o),
(-443,-103,o),
(-453,-114,c),
(-445,-156,o),
(-404,-215,o),
(-301,-215,cs)
);
}
);
width = 0;
}
);
unicode = 3540;
},
{
glyphname = sinMatraUu;
lastChange = "2024-04-05 03:00:42 +0000";
layers = (
{
layerId = "51BB9282-3B82-4DF1-A67A-294D3E37D73A";
shapes = (
{
closed = 1;
nodes = (
(22,-211,l),
(26,231,l),
(-11,210,l),
(-32,-174,l),
(-1,-182,l),
(-25,-151,o),
(-78,-97,o),
(-145,-97,cs),
(-238,-97,o),
(-284,-172,o),
(-337,-172,cs),
(-370,-172,o),
(-403,-151,o),
(-403,-103,c),
(-414,-99,o),
(-428,-98,o),
(-443,-101,cs),
(-454,-103,o),
(-465,-109,o),
(-474,-118,c),
(-474,-159,o),
(-442,-220,o),
(-345,-220,cs),
(-269,-220,o),
(-246,-173,o),
(-160,-173,cs),
(-105,-173,o),
(-41,-202,o),
(0,-225,c)
);
}
);
width = 0;
}
);
unicode = 3542;
},
{
glyphname = sinVirama;
lastChange = "2024-04-05 03:00:42 +0000";
layers = (
{
anchors = (
{
name = _Virama;
pos = (12,367);
}
);
layerId = "51BB9282-3B82-4DF1-A67A-294D3E37D73A";
shapes = (
{
closed = 1;
nodes = (
(13,368,l),
(8,505,l),
(17,486,o),
(42,462,o),
(76,462,cs),
(121,462,o),
(139,497,o),
(139,540,cs),
(139,648,o),
(19,680,o),
(-8,685,c),
(-24,675,l),
(-27,368,l)
);
},
{
closed = 1;
nodes = (
(39,525,o),
(8,551,o),
(8,592,cs),
(8,614,l),
(44,610,o),
(105,595,o),
(105,553,cs),
(105,531,o),
(90,525,o),
(72,525,cs)
);
}
);
width = 1;
}
);
unicode = 3530;
},
{
category = Mark;
glyphname = sinRakar;
lastChange = "2024-04-05 03:00:42 +0000";
layers = (
{
layerId = "51BB9282-3B82-4DF1-A67A-294D3E37D73A";
shapes = (
{
closed = 1;
nodes = (
(-48,-261,o),
(28,32,o),
(6,280,c),
(-39,259,l),
(-30,61,o),
(-80,-167,o),
(-296,-176,cs),
(-306,-176,o),
(-316,-177,o),
(-326,-177,cs),
(-477,-177,o),
(-511,-120,o),
(-511,-120,c),
(-534,-144,l),
(-530,-165,o),
(-450,-261,o),
(-302,-261,cs)
);
}
);
width = 0;
}
);
script = sinhala;
subCategory = Spacing;
},
{
glyphname = sinReph;
lastChange = "2024-04-05 03:00:42 +0000";
layers = (
{
layerId = "51BB9282-3B82-4DF1-A67A-294D3E37D73A";
shapes = (
{
closed = 1;
nodes = (
(-181,395,o),
(-122,434,o),
(-122,514,cs),
(-122,600,o),
(-189,662,o),
(-281,662,cs),
(-378,662,o),
(-432,592,o),
(-432,519,cs),
(-432,465,o),
(-395,421,o),
(-338,421,cs),
(-289,421,o),
(-264,454,o),
(-264,490,cs),
(-264,534,o),
(-296,566,o),
(-334,566,cs),
(-378,566,o),
(-397,527,o),
(-407,517,c),
(-398,504,l),
(-382,513,o),
(-369,523,o),
(-337,523,cs),
(-313,523,o),
(-289,512,o),
(-289,492,cs),
(-289,468,o),
(-314,462,o),
(-334,462,cs),
(-371,462,o),
(-391,487,o),
(-391,530,cs),
(-391,580,o),
(-332,600,o),
(-281,600,cs),
(-248,600,o),
(-154,585,o),
(-154,512,cs),
(-154,462,o),
(-177,435,o),
(-250,421,c),
(-244,387,l)
);
}
);
width = 0;
}
);
},
{
category = Mark;
glyphname = sinYansaya;
lastChange = "2024-04-05 03:00:42 +0000";
layers = (
{
layerId = "51BB9282-3B82-4DF1-A67A-294D3E37D73A";
shapes = (
{
closed = 1;
nodes = (
(455,-13,o),
(531,79,o),
(531,175,cs),
(531,287,o),
(451,342,o),
(367,342,cs),
(361,342,o),
(354,342,o),
(348,341,c),
(348,341,o),
(339,423,o),
(407,423,cs),
(445,423,o),
(470,400,o),
(470,368,cs),
(470,335,o),
(444,315,o),
(444,315,c),
(449,297,l),
(449,297,o),
(530,311,o),
(530,387,cs),
(530,440,o),
(486,478,o),
(433,478,cs),
(361,478,o),
(283,427,o),
(293,295,c),
(309,282,l),
(417,283,o),
(490,248,o),
(490,179,cs),
(490,111,o),
(416,62,o),
(301,62,cs),
(219,62,o),
(172,82,o),
(144,102,c),
(111,73,l),
(146,37,o),
(194,-13,o),
(305,-13,cs)
);
},
{
closed = 1;
nodes = (
(153,63,o),
(242,180,o),
(242,314,cs),
(242,391,o),
(213,470,o),
(126,470,cs),
(61,470,o),
(18,417,o),
(17,394,c),
(22,383,o),
(32,374,o),
(41,367,c),
(60,392,o),
(93,402,o),
(114,402,cs),
(141,402,o),
(204,395,o),
(204,318,cs),
(204,178,o),
(77,83,o),
(10,46,c),
(12,27,o),
(19,7,o),
(33,-12,c)
);
}
);
width = 600;
}
);
script = sinhala;
subCategory = Spacing;
},
{
category = Mark;
glyphname = sinAnusvara;
lastChange = "2024-04-05 03:00:42 +0000";
layers = (
{
layerId = "51BB9282-3B82-4DF1-A67A-294D3E37D73A";
shapes = (
{
closed = 1;
nodes = (
(354,54,o),
(398,153,o),
(398,245,cs),
(398,326,o),
(340,408,o),
(227,408,cs),
(138,408,o),
(59,337,o),
(59,225,cs),
(59,130,o),
(120,54,o),
(234,54,cs)
);
},
{
closed = 1;
nodes = (
(170,127,o),
(98,153,o),
(98,228,cs),
(98,297,o),
(155,335,o),
(229,335,cs),
(299,335,o),
(360,303,o),
(360,231,cs),
(360,177,o),
(311,127,o),
(234,127,cs)
);
}
);
width = 453;
}
);
script = sinhala;
subCategory = Spacing;
unicode = 3458;
},
{
category = Mark;
glyphname = sinVisarga;
lastChange = "2024-04-05 03:00:42 +0000";
layers = (
{
layerId = "51BB9282-3B82-4DF1-A67A-294D3E37D73A";
shapes = (
{
closed = 1;
nodes = (
(204,251,o),
(237,303,o),
(237,355,cs),
(237,402,o),
(198,443,o),
(137,443,cs),
(90,443,o),
(42,413,o),
(42,347,cs),
(42,294,o),
(79,251,o),
(135,251,cs)
);
},
{
closed = 1;
nodes = (
(193,2,o),
(232,49,o),
(232,107,cs),
(232,158,o),
(201,195,o),
(142,195,cs),
(89,195,o),
(39,157,o),
(39,86,cs),
(39,41,o),
(69,2,o),
(127,2,cs)
);
},
{
closed = 1;
nodes = (
(96,43,o),
(79,63,o),
(79,88,cs),
(79,131,o),
(110,153,o),
(141,153,cs),
(171,153,o),
(188,135,o),
(188,109,cs),
(188,78,o),
(166,43,o),
(127,43,cs)
);
},
{
closed = 1;
nodes = (
(96,292,o),
(79,309,o),
(79,335,cs),
(79,382,o),
(117,409,o),
(150,409,cs),
(178,409,o),
(193,390,o),
(193,365,cs),
(193,330,o),
(169,292,o),
(123,292,cs)
);
}
);
width = 276;
}
);
script = sinhala;
subCategory = Spacing;
unicode = 3459;
},
{
category = Mark;
glyphname = sinMatraAa.virama;
lastChange = "2024-04-05 03:00:42 +0000";
layers = (
{
layerId = "51BB9282-3B82-4DF1-A67A-294D3E37D73A";
shapes = (
{
closed = 1;
nodes = (
(241,-10,o),
(277,116,o),
(277,212,cs),
(277,358,o),
(202,423,o),
(138,423,cs),
(85,423,o),
(58,396,o),
(36,375,c),
(34,366,o),
(33,357,o),
(33,348,cs),
(33,341,o),
(34,334,o),
(35,328,c),
(56,340,o),
(83,350,o),
(110,350,cs),
(189,350,o),
(236,310,o),
(242,245,cs),
(243,235,o),
(243,227,o),
(243,219,cs),
(243,123,o),
(188,65,o),
(110,65,cs),
(81,65,o),
(44,75,o),
(25,80,c),
(18,67,o),
(15,53,o),
(15,34,c),
(19,18,o),
(68,-10,o),
(120,-10,cs)
);
},
{
closed = 1;
nodes = (
(161,397,l),
(158,523,l),
(168,504,o),
(189,485,o),
(220,485,cs),
(270,485,o),
(289,524,o),
(289,567,cs),
(289,575,o),
(288,583,o),
(287,591,cs),
(273,677,o),
(164,705,o),
(140,709,c),
(129,699,l),
(128,397,l)
);
},
{
closed = 1;
nodes = (
(223,554,o),
(220,554,o),
(216,555,cs),
(182,562,o),
(157,581,o),
(157,610,cs),
(157,643,l),
(192,639,o),
(255,626,o),
(255,583,cs),
(255,563,o),
(241,554,o),
(226,554,cs)
);
}
);
width = 315;
}
);
script = sinhala;
subCategory = Spacing;
},
{
glyphname = sinKh.virama;
lastChange = "2024-04-05 03:00:42 +0000";
layers = (
{
layerId = "51BB9282-3B82-4DF1-A67A-294D3E37D73A";
shapes = (
{
closed = 1;
nodes = (
(608,501,o),
(562,730,o),
(297,730,cs),
(194,730,o),
(142,701,o),
(142,701,c),
(128,677,o),
(125,651,o),
(124,640,c),
(147,651,o),
(157,655,o),
(184,661,c),
(206,691,l),
(192,681,o),
(176,641,o),
(145,571,c),
(185,566,l),
(203,616,o),
(226,674,o),
(270,679,c),
(238,680,o),
(216,681,o),
(188,661,c),
(188,661,o),
(202,671,o),
(276,671,cs),
(561,671,o),
(562,467,o),
(560,418,c),
(608,367,l)
);
},
{
ref = sinKha;
}
);
userData = {
com.typemytype.robofont.layerData = {
background = {
anchors = (
);
components = (
);
contours = (
{
points = (
{
smooth = 0;
x = 186;
y = 52;
},
{
smooth = 0;
x = 97;
y = 87;
},
{
segmentType = curve;
smooth = 1;
x = 100.01;
y = 211;
},
{
smooth = 0;
x = 103.35;
y = 351.131;
},
{
smooth = 0;
x = 210;
y = 417;
},
{
segmentType = curve;
smooth = 1;
x = 298;
y = 417;
},
{
smooth = 0;
x = 408;
y = 417;
},
{
smooth = 0;
x = 436.537;
y = 329.068;
},
{
segmentType = curve;
smooth = 1;
x = 438;
y = 260;
},
{
smooth = 0;
x = 440.038;
y = 163.812;
},
{
smooth = 0;
x = 399.917;
y = 59.615;
},
{
segmentType = curve;
smooth = 0;
x = 352;
y = -22;
},
{
segmentType = line;
smooth = 0;
x = 399;
y = -30;
},
{
smooth = 0;
x = 430.332;
y = 22.643;
},
{
smooth = 0;
x = 442.143;
y = 31.75;
},
{
segmentType = curve;
smooth = 0;
x = 450;
y = 64;
},
{
segmentType = line;
smooth = 0;
x = 407;
y = 34;
},
{
smooth = 0;
x = 432.083;
y = 12.39;
},
{
smooth = 0;
x = 464.591;
y = -12.158;
},
{
segmentType = curve;
smooth = 1;
x = 540.323;
y = -12;
},
{
smooth = 0;
x = 699.758;
y = -11.667;
},
{
smooth = 0;
x = 788.701;
y = 149.408;
},
{
segmentType = curve;
smooth = 1;
x = 797.557;
y = 355;
},
{
smooth = 0;
x = 809.175;
y = 624.744;
},
{
smooth = 0;
x = 623.938;
y = 778;
},
{
segmentType = curve;
smooth = 1;
x = 410.725;
y = 778;
},
{
smooth = 0;
x = 318.725;
y = 778;
},
{
smooth = 0;
x = 248.468;
y = 754;
},
{
segmentType = curve;
smooth = 0;
x = 204;
y = 726;
},
{
smooth = 0;
x = 185.141;
y = 696.402;
},
{
smooth = 0;
x = 171.547;
y = 635.165;
},
{
segmentType = curve;
smooth = 1;
x = 183.812;
y = 627;
},
{
smooth = 0;
x = 185.466;
y = 625.899;
},
{
smooth = 0;
x = 272.818;
y = 688;
},
{
segmentType = curve;
smooth = 1;
x = 399.009;
y = 688;
},
{
smooth = 0;
x = 614.735;
y = 688;
},
{
smooth = 0;
x = 742.913;
y = 576.689;
},
{
segmentType = curve;
smooth = 1;
x = 737.447;
y = 372;
},
{
smooth = 0;
x = 734.193;
y = 251.824;
},
{
smooth = 0;
x = 671.062;
y = 84.498;
},
{
segmentType = curve;
smooth = 1;
x = 535.402;
y = 84;
},
{
smooth = 0;
x = 471.95;
y = 83.58;
},
{
smooth = 0;
x = 463.83;
y = 115.825;
},
{
segmentType = curve;
smooth = 0;
x = 453;
y = 122;
},
{
segmentType = line;
smooth = 1;
x = 465.014;
y = 92;
},
{
smooth = 0;
x = 488.145;
y = 125.419;
},
{
smooth = 0;
x = 521.133;
y = 216.217;
},
{
segmentType = curve;
smooth = 1;
x = 525;
y = 287;
},
{
smooth = 0;
x = 530.284;
y = 383.709;
},
{
smooth = 0;
x = 482;
y = 498;
},
{
segmentType = curve;
smooth = 1;
x = 341;
y = 496;
},
{
smooth = 0;
x = 186;
y = 494;
},
{
smooth = 0;
x = 69;
y = 378;
},
{
segmentType = curve;
smooth = 1;
x = 55.434;
y = 200;
},
{
smooth = 0;
x = 48;
y = 100;
},
{
smooth = 0;
x = 87.009;
y = -18;
},
{
segmentType = curve;
smooth = 1;
x = 196;
y = -18;
},
{
smooth = 0;
x = 291.009;
y = -18;
},
{
smooth = 0;
x = 334.438;
y = 35.152;
},
{
segmentType = curve;
smooth = 1;
x = 340.455;
y = 105;
},
{
smooth = 0;
x = 345.28;
y = 161.003;
},
{
smooth = 0;
x = 312.829;
y = 206.727;
},
{
segmentType = curve;
smooth = 1;
x = 262.8;
y = 207;
},
{
smooth = 0;
x = 177.373;
y = 207.467;
},
{
smooth = 0;
x = 135.739;
y = 118.241;
},
{
segmentType = curve;
smooth = 0;
x = 168.677;
y = 52;
},
{
segmentType = line;
smooth = 0;
x = 167;
y = 9;
},
{
smooth = 0;
x = 163.615;
y = 9.513;
},
{
smooth = 0;
x = 243.66;
y = -2;
},
{
segmentType = curve;
smooth = 0;
x = 213;
y = 29;
},
{
smooth = 0;
x = 194.345;
y = 36.169;
},
{
smooth = 0;
x = 194;
y = 78;
},
{
segmentType = curve;
smooth = 1;
x = 196;
y = 99;
},
{
smooth = 0;
x = 198;
y = 130;
},
{
smooth = 0;
x = 226.547;
y = 154;
},
{
segmentType = curve;
smooth = 1;
x = 252.547;
y = 154;
},
{
smooth = 0;
x = 276.547;
y = 154;
},
{
smooth = 0;
x = 300.918;
y = 142;
},
{
segmentType = curve;
smooth = 1;
x = 298.188;
y = 109;
},
{
smooth = 0;
x = 295.955;
y = 81.994;
},
{
smooth = 0;
x = 269.053;
y = 54.902;
},
{
segmentType = curve;
smooth = 1;
x = 219.044;
y = 53;
}
);
}
);
lib = {
};
name = sinKh.virama;
unicodes = (
);
width = 863;
};
};
};
width = 662;
}
);
metricRight = sinKha;
},
{
glyphname = sinNg.virama;
lastChange = "2024-04-05 03:00:42 +0000";
layers = (
{
layerId = "51BB9282-3B82-4DF1-A67A-294D3E37D73A";
shapes = (
{
closed = 1;
nodes = (
(597,519,o),
(561,728,o),
(297,728,cs),
(203,728,o),
(130,693,o),
(130,693,c),
(117,668,o),
(114,642,o),
(113,632,c),
(135,647,o),
(166,649,o),
(193,659,c),
(215,690,l),
(201,680,o),
(165,644,o),
(133,574,c),
(174,569,l),
(192,619,o),
(236,673,o),
(269,678,c),
(247,679,o),
(225,680,o),
(198,659,c),
(198,659,o),
(211,670,o),
(275,670,cs),
(561,670,o),
(560,486,o),
(558,437,c),
(597,374,l)
);
},
{
ref = sinNga;
}
);
width = 656;
}
);
},
{
glyphname = sinC.virama;
lastChange = "2024-04-05 03:00:42 +0000";
layers = (
{
layerId = "51BB9282-3B82-4DF1-A67A-294D3E37D73A";
shapes = (
{
closed = 1;
nodes = (
(607,519,o),
(572,728,o),
(307,728,cs),
(214,728,o),
(141,693,o),
(141,693,c),
(127,669,o),
(124,642,o),
(123,632,c),
(146,647,o),
(176,649,o),
(203,659,c),
(226,690,l),
(212,680,o),
(175,644,o),
(144,574,c),
(184,569,l),
(202,619,o),
(246,673,o),
(280,678,c),
(257,679,o),
(235,680,o),
(209,659,c),
(209,659,o),
(222,670,o),
(286,670,cs),
(572,670,o),
(571,486,o),
(568,437,c),
(607,374,l)
);
},
{
ref = sinCa;
}
);
width = 657;
}
);
metricLeft = sinCa;
metricRight = sinCa;
},
{
glyphname = sinCh.virama;
lastChange = "2024-04-05 03:00:42 +0000";
layers = (
{
anchors = (
{
name = _si_MaU;
pos = (577,199);
}
);
layerId = "51BB9282-3B82-4DF1-A67A-294D3E37D73A";
shapes = (
{
closed = 1;
nodes = (
(459,-20,o),
(577,71,o),
(577,196,cs),
(577,279,o),
(516,325,o),
(434,325,cs),
(413,325,o),
(399,327,o),
(387,327,cs),
(376,327,o),
(368,325,o),
(356,320,c),
(360,274,l),
(363,305,ls),
(363,351,o),
(377,405,o),
(449,405,cs),
(486,405,o),
(528,377,o),
(528,322,cs),
(528,270,o),
(496,204,o),
(436,204,cs),
(351,204,o),
(363,291,o),
(363,322,cs),
(363,425,o),
(427,493,o),
(469,540,cs),
(503,578,o),
(603,639,o),
(603,639,c),
(600,664,o),
(579,688,o),
(569,692,c),
(417,606,o),
(318,437,o),
(318,299,cs),
(318,179,o),
(381,158,o),
(424,158,cs),
(517,158,o),
(565,260,o),
(565,346,cs),
(565,408,o),
(524,461,o),
(467,461,cs),
(382,461,o),
(322,364,o),
(322,282,cs),
(322,274,o),
(322,267,o),
(323,260,c),
(338,252,l),
(371,263,o),
(406,276,o),
(442,276,cs),
(496,276,o),
(541,255,o),
(541,202,cs),
(541,129,o),
(445,64,o),
(309,64,cs),
(151,64,o),
(67,118,o),
(67,182,cs),
(67,235,o),
(127,264,o),
(214,264,cs),
(234,264,o),
(255,263,o),
(277,260,c),
(289,271,l),
(293,288,o),
(295,309,o),
(295,329,cs),
(295,393,o),
(269,461,o),
(175,461,cs),
(113,461,o),
(75,426,o),
(75,388,cs),
(75,350,o),
(102,337,o),
(128,335,c),
(136,366,o),
(167,409,o),
(209,409,cs),
(244,409,o),
(259,385,o),
(259,353,cs),
(259,320,o),
(238,299,o),
(228,290,c),
(265,321,l),
(254,322,o),
(242,323,o),
(231,323,cs),
(133,323,o),
(35,265,o),
(35,172,cs),
(35,79,o),
(107,-20,o),
(314,-20,cs)
);
},
{
closed = 1;
nodes = (
(352,294,l),
(352,579,l),
(360,560,o),
(382,541,o),
(413,541,cs),
(464,541,o),
(483,565,o),
(483,609,cs),
(483,711,o),
(363,744,o),
(336,749,c),
(325,738,l),
(318,294,l)
);
},
{
closed = 1;
nodes = (
(383,591,o),
(352,619,o),
(352,660,cs),
(352,683,l),
(388,679,o),
(450,665,o),
(450,623,cs),
(450,602,o),
(437,591,o),
(416,591,cs)
);
}
);
width = 605;
}
);
},
{
glyphname = sinJ.virama;
lastChange = "2024-04-05 03:00:42 +0000";
layers = (
{
layerId = "51BB9282-3B82-4DF1-A67A-294D3E37D73A";
shapes = (
{
closed = 1;
nodes = (
(355,297,l),
(355,602,l),
(364,582,o),
(386,563,o),
(419,563,cs),
(467,563,o),
(486,597,o),
(486,637,cs),
(486,742,o),
(379,775,o),
(340,779,c),
(329,769,l),
(322,297,l)
);
},
{
ref = sinJa;
},
{
closed = 1;
nodes = (
(388,625,o),
(359,650,o),
(359,681,cs),
(359,714,l),
(395,709,o),
(458,696,o),
(458,655,cs),
(458,634,o),
(439,625,o),
(420,625,cs)
);
}
);
width = 642;
}
);
},
{
glyphname = sinJh.virama;
lastChange = "2024-04-05 03:00:42 +0000";
layers = (
{
layerId = "51BB9282-3B82-4DF1-A67A-294D3E37D73A";
shapes = (
{
closed = 1;
nodes = (
(263,-6,o),
(299,22,o),
(315,63,c),
(327,18,o),
(363,-6,o),
(411,-6,cs),
(500,-6,o),
(540,97,o),
(540,171,cs),
(540,259,o),
(495,324,o),
(416,324,cs),
(328,324,o),
(228,257,o),
(192,218,c),
(224,243,l),
(227,252,o),
(273,286,o),
(288,297,cs),
(346,344,o),
(440,378,o),
(540,378,cs),
(673,378,o),
(719,348,o),
(753,323,c),
(780,367,l),
(741,399,o),
(678,442,o),
(552,442,cs),
(459,442,o),
(366,407,o),
(262,319,cs),
(117,195,o),
(41,117,o),
(23,98,c),
(19,76,o),
(40,63,o),
(45,62,c),
(51,98,o),
(170,178,o),
(210,202,cs),
(262,234,o),
(315,256,o),
(377,256,cs),
(451,256,o),
(508,225,o),
(508,160,cs),
(508,107,o),
(457,80,o),
(408,80,cs),
(364,80,o),
(336,119,o),
(336,171,cs),
(336,176,o),
(336,181,o),
(337,186,c),
(318,182,l),
(304,118,o),
(257,78,o),
(208,78,cs),
(155,78,o),
(144,123,o),
(100,123,cs),
(93,123,o),
(86,122,o),
(77,119,c),
(56,90,l),
(62,96,o),
(68,98,o),
(75,98,cs),
(87,98,o),
(100,90,o),
(107,80,cs),
(135,38,o),
(162,-6,o),
(218,-6,cs)
);
},
{
closed = 1;
nodes = (
(135,282,o),
(151,284,o),
(163,290,c),
(153,303,o),
(145,316,o),
(145,338,cs),
(145,392,o),
(174,428,o),
(211,428,cs),
(247,428,o),
(262,399,o),
(260,365,cs),
(260,334,o),
(248,311,o),
(233,294,c),
(256,302,l),
(272,319,o),
(309,360,o),
(309,401,cs),
(309,440,o),
(271,457,o),
(230,457,cs),
(148,457,o),
(74,401,o),
(74,329,cs),
(74,298,o),
(89,282,o),
(121,282,cs)
);
},
{
closed = 1;
nodes = (
(1010,-16,o),
(1063,118,o),
(1063,251,cs),
(1063,445,o),
(934,585,o),
(719,585,cs),
(668,585,o),
(613,575,o),
(583,562,c),
(574,547,o),
(569,524,o),
(569,506,cs),
(569,498,o),
(570,491,o),
(572,486,c),
(592,496,o),
(646,512,o),
(714,512,cs),
(859,512,o),
(1017,460,o),
(1017,268,cs),
(1017,153,o),
(968,66,o),
(887,66,cs),
(854,66,o),
(803,80,o),
(803,151,c),
(804,160,l),
(785,156,l),
(766,110,o),
(737,70,o),
(667,70,cs),
(595,70,o),
(546,113,o),
(546,175,cs),
(546,246,o),
(611,316,o),
(700,316,cs),
(725,316,o),
(751,313,o),
(778,306,c),
(790,320,l),
(790,342,o),
(787,355,o),
(780,367,c),
(769,368,o),
(757,369,o),
(744,369,cs),
(623,369,o),
(508,324,o),
(508,154,cs),
(508,51,o),
(573,-15,o),
(662,-15,cs),
(749,-15,o),
(786,49,o),
(791,84,c),
(782,107,l),
(781,101,o),
(780,95,o),
(780,86,cs),
(780,30,o),
(830,-16,o),
(896,-16,cs)
);
},
{
closed = 1;
nodes = (
(1043,489,o),
(1008,694,o),
(763,694,cs),
(681,694,o),
(608,661,o),
(608,661,c),
(595,637,o),
(591,611,o),
(590,601,c),
(612,616,o),
(643,624,o),
(670,629,c),
(698,659,l),
(664,649,o),
(612,586,o),
(612,534,c),
(641,518,l),
(641,573,o),
(713,642,o),
(747,647,c),
(675,630,l),
(675,630,o),
(689,639,o),
(752,639,cs),
(977,639,o),
(1007,456,o),
(1006,407,c),
(1043,344,l)
);
}
);
width = 1089;
}
);
},
{
glyphname = sinNyj.virama;
lastChange = "2024-04-05 03:00:42 +0000";
layers = (
{
layerId = "51BB9282-3B82-4DF1-A67A-294D3E37D73A";
shapes = (
{
closed = 1;
nodes = (
(468,285,l),
(468,564,l),
(476,545,o),
(497,526,o),
(529,526,cs),
(580,526,o),
(599,566,o),
(599,610,cs),
(599,712,o),
(478,745,o),
(452,750,c),
(441,739,l),
(434,285,l)
);
},
{
ref = sinNyja;
},
{
closed = 1;
nodes = (
(498,592,o),
(468,620,o),
(468,661,cs),
(468,684,l),
(504,680,o),
(565,666,o),
(565,624,cs),
(565,603,o),
(552,592,o),
(532,592,cs)
);
}
);
width = 751;
}
);
metricRight = "=sinNdja";
},
{
glyphname = sinTt.virama;
lastChange = "2024-04-05 03:00:42 +0000";
layers = (
{
layerId = "51BB9282-3B82-4DF1-A67A-294D3E37D73A";
shapes = (
{
closed = 1;
nodes = (
(554,506,o),
(491,736,o),
(270,736,cs),
(178,736,o),
(124,698,o),
(124,698,c),
(111,674,o),
(108,647,o),
(106,637,c),
(129,652,o),
(139,656,o),
(167,667,c),
(188,697,l),
(174,687,o),
(137,641,o),
(116,571,c),
(143,568,l),
(152,618,o),
(208,680,o),
(243,685,c),
(220,686,o),
(197,687,o),
(171,667,c),
(171,667,o),
(193,674,o),
(256,674,cs),
(490,674,o),
(518,473,o),
(517,424,c),
(554,361,l)
);
},
{
ref = sinTta;
}
);
width = 611;
}
);
metricLeft = sinTta;
metricRight = sinTta;
},
{
glyphname = sinDd.virama;
lastChange = "2024-04-05 03:00:42 +0000";
layers = (
{
layerId = "51BB9282-3B82-4DF1-A67A-294D3E37D73A";
shapes = (
{
closed = 1;
nodes = (
(637,520,o),
(602,729,o),
(337,729,cs),
(244,729,o),
(171,694,o),
(171,694,c),
(158,670,o),
(155,643,o),
(154,633,c),
(176,648,o),
(206,650,o),
(234,660,c),
(256,691,l),
(242,681,o),
(205,645,o),
(174,575,c),
(214,570,l),
(233,620,o),
(276,674,o),
(310,679,c),
(287,680,o),
(265,681,o),
(239,660,c),
(239,660,o),
(252,671,o),
(316,671,cs),
(602,671,o),
(601,487,o),
(599,438,c),
(637,375,l)
);
},
{
ref = sinDda;
}
);
userData = {
com.typemytype.robofont.guides = (
{
angle = 0;
isGlobal = 0;
x = 98;
y = 881;
}
);
};
width = 696;
}
);
},
{
glyphname = sinNndd.virama;
lastChange = "2024-04-05 03:00:42 +0000";
layers = (
{
layerId = "51BB9282-3B82-4DF1-A67A-294D3E37D73A";
shapes = (
{
closed = 1;
nodes = (
(146,-12,o),
(157,-8,o),
(161,-5,c),
(146,23,o),
(116,93,o),
(116,189,cs),
(116,305,o),
(178,391,o),
(282,391,c),
(389,435,l),
(374,438,o),
(366,441,o),
(321,441,cs),
(187,441,o),
(60,363,o),
(60,191,cs),
(60,103,o),
(101,20,o),
(127,-12,c)
);
},
{
pos = (131,0);
ref = sinDd.virama;
}
);
width = 820;
}
);
},
{
glyphname = sinDh.virama;
lastChange = "2024-04-05 03:00:42 +0000";
layers = (
{
layerId = "51BB9282-3B82-4DF1-A67A-294D3E37D73A";
shapes = (
{
closed = 1;
nodes = (
(546,-16,o),
(600,118,o),
(600,251,cs),
(600,445,o),
(470,585,o),
(255,585,cs),
(204,585,o),
(149,575,o),
(119,562,c),
(110,547,o),
(105,524,o),
(105,506,cs),
(105,498,o),
(106,491,o),
(108,486,c),
(128,496,o),
(182,512,o),
(250,512,cs),
(395,512,o),
(553,460,o),
(553,268,cs),
(553,153,o),
(504,66,o),
(423,66,cs),
(391,66,o),
(339,80,o),
(339,151,c),
(340,160,l),
(321,156,l),
(303,110,o),
(273,70,o),
(203,70,cs),
(131,70,o),
(83,113,o),
(83,175,cs),
(83,246,o),
(148,295,o),
(248,295,cs),
(272,295,o),
(299,292,o),
(326,286,c),
(337,299,l),
(335,322,o),
(327,348,o),
(317,367,c),
(306,368,o),
(293,369,o),
(280,369,cs),
(160,369,o),
(44,293,o),
(44,154,cs),
(44,51,o),
(109,-15,o),
(198,-15,cs),
(285,-15,o),
(322,49,o),
(327,84,c),
(319,107,l),
(318,101,o),
(317,95,o),
(317,86,cs),
(317,30,o),
(366,-16,o),
(432,-16,cs)
);
},
{
closed = 1;
nodes = (
(579,489,o),
(544,694,o),
(300,694,cs),
(217,694,o),
(144,661,o),
(144,661,c),
(131,637,o),
(127,611,o),
(126,601,c),
(148,616,o),
(179,624,o),
(206,629,c),
(235,659,l),
(200,649,o),
(148,586,o),
(148,534,c),
(177,518,l),
(177,573,o),
(249,642,o),
(283,647,c),
(211,630,l),
(211,630,o),
(226,639,o),
(288,639,cs),
(513,639,o),
(543,456,o),
(542,407,c),
(579,344,l)
);
}
);
userData = {
com.typemytype.robofont.layerData = {
background = {
anchors = (
);
components = (
);
contours = (
{
points = (
{
segmentType = move;
smooth = 0;
x = 725;
y = 373;
},
{
smooth = 0;
x = 724;
y = 588;
},
{
smooth = 0;
x = 543;
y = 666;
},
{
segmentType = curve;
smooth = 1;
x = 382;
y = 666;
},
{
smooth = 0;
x = 227;
y = 666;
},
{
smooth = 0;
x = 146;
y = 596;
},
{
segmentType = curve;
smooth = 0;
x = 144;
y = 596;
},
{
smooth = 0;
x = 142;
y = 599;
},
{
smooth = 0;
x = 145;
y = 606;
},
{
segmentType = curve;
smooth = 1;
x = 145;
y = 616;
},
{
smooth = 0;
x = 145;
y = 637;
},
{
smooth = 0;
x = 169;
y = 675;
},
{
segmentType = curve;
smooth = 0;
x = 180;
y = 698;
},
{
smooth = 0;
x = 225;
y = 729;
},
{
smooth = 0;
x = 289;
y = 750;
},
{
segmentType = curve;
smooth = 1;
x = 382;
y = 750;
},
{
smooth = 0;
x = 613;
y = 750;
},
{
smooth = 0;
x = 785;
y = 586;
},
{
segmentType = curve;
smooth = 1;
x = 787;
y = 358;
}
);
}
);
lib = {
};
name = sinDh.virama;
unicodes = (
);
width = 852;
};
};
};
width = 636;
}
);
metricLeft = sinDha;
metricRight = sinDha;
},
{
glyphname = sinB.virama;
lastChange = "2024-04-05 03:00:42 +0000";
layers = (
{
layerId = "51BB9282-3B82-4DF1-A67A-294D3E37D73A";
shapes = (
{
closed = 1;
nodes = (
(616,516,o),
(560,745,o),
(316,745,cs),
(223,745,o),
(150,709,o),
(150,709,c),
(137,685,o),
(133,658,o),
(132,648,c),
(154,663,o),
(185,671,o),
(212,676,c),
(241,707,l),
(206,697,o),
(154,634,o),
(154,581,c),
(183,566,l),
(183,621,o),
(255,690,o),
(289,695,c),
(217,677,l),
(217,677,o),
(231,687,o),
(294,687,cs),
(540,687,o),
(579,483,o),
(578,434,c),
(616,371,l)
);
},
{
ref = sinBa;
}
);
width = 679;
}
);
},
{
glyphname = sinM.virama;
lastChange = "2024-04-05 03:00:42 +0000";
layers = (
{
anchors = (
{
name = rakaransaya;
pos = (618,277);
}
);
layerId = "51BB9282-3B82-4DF1-A67A-294D3E37D73A";
shapes = (
{
closed = 1;
nodes = (
(612,521,o),
(556,740,o),
(312,740,cs),
(219,740,o),
(146,703,o),
(146,703,c),
(133,679,o),
(129,652,o),
(128,642,c),
(150,657,o),
(181,666,o),
(208,671,c),
(237,701,l),
(202,691,o),
(150,628,o),
(150,575,c),
(179,560,l),
(179,615,o),
(251,684,o),
(285,689,c),
(213,672,l),
(213,672,o),
(228,681,o),
(290,681,cs),
(536,681,o),
(575,487,o),
(574,438,c),
(612,376,l)
);
},
{
ref = sinMa;
},
{
closed = 1;
nodes = (
(612,521,o),
(556,740,o),
(312,740,cs),
(219,740,o),
(146,703,o),
(146,703,c),
(133,679,o),
(129,652,o),
(128,642,c),
(150,657,o),
(181,666,o),
(208,671,c),
(237,701,l),
(202,691,o),
(150,628,o),
(150,575,c),
(179,560,l),
(179,615,o),
(251,684,o),
(285,689,c),
(213,672,l),
(213,672,o),
(228,681,o),
(290,681,cs),
(536,681,o),
(575,487,o),
(574,438,c),
(612,376,l)
);
}
);
width = 646;
}
);
},
{
glyphname = sinMb.virama;
lastChange = "2024-04-05 03:00:42 +0000";
layers = (
{
layerId = "51BB9282-3B82-4DF1-A67A-294D3E37D73A";
shapes = (
{
closed = 1;
nodes = (
(663,520,o),
(637,739,o),
(312,739,cs),
(219,739,o),
(146,703,o),
(146,703,c),
(133,679,o),
(129,652,o),
(128,642,c),
(150,656,o),
(181,664,o),
(208,670,c),
(237,701,l),
(202,691,o),
(150,628,o),
(150,575,c),
(179,560,l),
(179,615,o),
(251,684,o),
(285,689,c),
(213,671,l),
(213,671,o),
(260,685,o),
(323,685,cs),
(619,685,o),
(626,487,o),
(625,438,c),
(663,375,l)
);
},
{
ref = sinMba;
}
);
width = 716;
}
);
},
{
glyphname = sinY.virama;
lastChange = "2024-04-05 03:00:42 +0000";
layers = (
{
anchors = (
{
name = _Virama;
pos = (555,401);
}
);
layerId = "51BB9282-3B82-4DF1-A67A-294D3E37D73A";
shapes = (
{
closed = 1;
nodes = (
(556,432,l),
(552,539,l),
(560,519,o),
(586,496,o),
(620,496,cs),
(665,496,o),
(683,531,o),
(683,574,cs),
(683,682,o),
(562,714,o),
(536,719,c),
(520,709,l),
(517,432,l)
);
},
{
ref = sinYa;
},
{
closed = 1;
nodes = (
(583,559,o),
(552,584,o),
(552,626,cs),
(552,648,l),
(588,644,o),
(649,629,o),
(649,586,cs),
(649,565,o),
(633,559,o),
(616,559,cs)
);
}
);
width = 708;
}
);
metricRight = sinYa;
},
{
glyphname = sinR.virama;
lastChange = "2024-04-05 03:00:42 +0000";
layers = (
{
layerId = "51BB9282-3B82-4DF1-A67A-294D3E37D73A";
shapes = (
{
closed = 1;
nodes = (
(93,282,l),
(89,571,l),
(97,552,o),
(122,529,o),
(157,529,cs),
(201,529,o),
(220,563,o),
(220,607,cs),
(220,714,o),
(99,747,o),
(73,752,c),
(56,742,l),
(53,282,l)
);
},
{
ref = sinRa;
},
{
closed = 1;
nodes = (
(119,592,o),
(89,617,o),
(89,658,cs),
(89,681,l),
(124,677,o),
(185,662,o),
(185,619,cs),
(185,598,o),
(170,592,o),
(153,592,cs)
);
}
);
width = 535;
}
);
},
{
glyphname = sinV.virama;
lastChange = "2024-04-05 03:00:42 +0000";
layers = (
{
layerId = "51BB9282-3B82-4DF1-A67A-294D3E37D73A";
shapes = (
{
closed = 1;
nodes = (
(555,480,o),
(551,750,o),
(276,750,cs),
(203,750,o),
(130,713,o),
(130,713,c),
(117,689,o),
(113,662,o),
(112,652,c),
(134,668,o),
(165,676,o),
(192,681,c),
(220,711,l),
(186,701,o),
(144,638,o),
(144,585,c),
(173,570,l),
(173,625,o),
(235,694,o),
(269,699,c),
(197,682,l),
(197,682,o),
(211,691,o),
(274,691,cs),
(530,691,o),
(519,446,o),
(518,398,c),
(555,335,l)
);
},
{
ref = sinVa;
}
);
width = 601;
}
);
},
{
glyphname = sinPf.virama;
lastChange = "2024-04-05 03:00:42 +0000";
layers = (
{
anchors = (
{
name = _si_MaU;
pos = (558,200);
},
{
name = rakar;
pos = (563,169);
}
);
layerId = "51BB9282-3B82-4DF1-A67A-294D3E37D73A";
shapes = (
{
closed = 1;
nodes = (
(505,-19,o),
(623,72,o),
(623,197,cs),
(623,288,o),
(511,336,o),
(429,336,cs),
(389,336,o),
(392,328,o),
(369,317,c),
(439,292,l),
(431,304,o),
(414,320,o),
(414,359,cs),
(414,408,o),
(456,423,o),
(484,423,cs),
(528,423,o),
(564,399,o),
(564,361,cs),
(564,325,o),
(493,312,o),
(488,305,c),
(499,288,l),
(526,299,o),
(612,325,o),
(612,381,cs),
(612,424,o),
(575,471,o),
(507,471,cs),
(417,471,o),
(372,404,o),
(372,306,cs),
(372,294,o),
(373,281,o),
(374,269,c),
(384,261,l),
(417,275,o),
(452,281,o),
(487,281,cs),
(542,281,o),
(586,264,o),
(586,208,cs),
(586,130,o),
(490,72,o),
(324,72,cs),
(156,72,o),
(64,119,o),
(64,183,cs),
(64,244,o),
(122,273,o),
(209,273,cs),
(229,273,o),
(250,271,o),
(272,268,c),
(284,280,l),
(288,298,o),
(290,318,o),
(290,338,cs),
(290,401,o),
(264,469,o),
(170,469,cs),
(108,469,o),
(70,434,o),
(70,397,cs),
(70,359,o),
(97,346,o),
(123,344,c),
(131,376,o),
(162,418,o),
(205,418,cs),
(239,418,o),
(254,393,o),
(254,370,cs),
(254,331,o),
(233,309,o),
(223,300,c),
(260,329,l),
(249,331,o),
(237,332,o),
(226,332,cs),
(128,332,o),
(30,276,o),
(30,173,cs),
(30,81,o),
(102,-19,o),
(319,-19,cs)
);
},
{
closed = 1;
nodes = (
(352,182,l),
(503,196,l),
(492,228,l),
(442,226,o),
(400,225,o),
(358,225,cs),
(315,225,o),
(241,226,o),
(185,228,c),
(193,194,l),
(241,194,o),
(319,184,o),
(319,132,c)
);
},
{
closed = 1;
nodes = (
(482,-105,l),
(474,-79,l),
(422,-79,o),
(367,-71,o),
(365,-51,cs),
(352,43,o),
(354,134,o),
(354,196,cs),
(354,267,o),
(353,372,o),
(357,424,cs),
(361,503,o),
(413,552,o),
(453,552,cs),
(466,552,o),
(479,551,o),
(491,549,c),
(488,598,l),
(403,589,o),
(307,523,o),
(307,407,cs),
(309,244,o),
(309,72,o),
(309,-49,c),
(309,-49,o),
(306,-73,o),
(222,-73,c),
(228,-105,l)
);
},
{
pos = (492,55);
ref = sinVirama;
}
);
width = 655;
}
);
},
{
glyphname = sinKV.virama;
lastChange = "2024-04-05 03:00:42 +0000";
layers = (
{
layerId = "51BB9282-3B82-4DF1-A67A-294D3E37D73A";
shapes = (
{
closed = 1;
nodes = (
(262,-6,o),
(299,22,o),
(313,63,c),
(325,19,o),
(362,-6,o),
(406,-6,cs),
(500,-6,o),
(539,99,o),
(539,173,cs),
(539,260,o),
(492,324,o),
(414,324,cs),
(327,324,o),
(227,257,o),
(190,218,c),
(223,243,l),
(225,252,o),
(272,286,o),
(286,297,cs),
(329,334,o),
(439,385,o),
(534,385,cs),
(565,385,o),
(593,380,o),
(617,367,c),
(698,425,l),
(656,438,o),
(614,444,o),
(574,444,cs),
(448,444,o),
(339,386,o),
(260,319,cs),
(114,195,o),
(40,117,o),
(21,98,c),
(18,77,o),
(39,64,o),
(43,62,c),
(50,98,o),
(149,176,o),
(187,200,cs),
(240,234,o),
(313,256,o),
(376,256,cs),
(448,256,o),
(506,226,o),
(506,163,cs),
(506,109,o),
(457,80,o),
(406,80,cs),
(363,80,o),
(334,119,o),
(334,171,cs),
(334,176,o),
(334,181,o),
(335,186,c),
(316,182,l),
(302,118,o),
(255,78,o),
(207,78,cs),
(153,78,o),
(142,123,o),
(98,123,cs),
(91,123,o),
(84,122,o),
(75,119,c),
(55,91,l),
(61,96,o),
(67,98,o),
(74,98,cs),
(86,98,o),
(98,91,o),
(105,80,cs),
(134,38,o),
(160,-6,o),
(219,-6,cs)
);
},
{
closed = 1;
nodes = (
(133,282,o),
(149,284,o),
(162,291,c),
(152,303,o),
(143,318,o),
(143,341,cs),
(143,393,o),
(174,428,o),
(210,428,cs),
(244,428,o),
(259,402,o),
(259,368,cs),
(259,336,o),
(247,312,o),
(232,294,c),
(254,302,l),
(270,319,o),
(308,361,o),
(308,403,cs),
(308,441,o),
(269,457,o),
(228,457,cs),
(148,457,o),
(72,403,o),
(72,332,cs),
(72,300,o),
(87,282,o),
(120,282,cs)
);
},
{
pos = (464,0);
ref = sinV.virama;
}
);
width = 1083;
}
);
metricLeft = sinKa;
},
{
glyphname = sinTV.virama;
lastChange = "2024-04-05 03:00:42 +0000";
layers = (
{
layerId = "51BB9282-3B82-4DF1-A67A-294D3E37D73A";
shapes = (
{
closed = 1;
nodes = (
(484,-12,o),
(559,112,o),
(559,199,cs),
(559,273,o),
(508,312,o),
(439,312,cs),
(392,312,o),
(346,294,o),
(322,280,cs),
(306,270,o),
(286,260,o),
(266,243,c),
(276,253,o),
(299,274,o),
(312,284,cs),
(375,328,o),
(446,373,o),
(559,373,cs),
(586,373,o),
(611,372,o),
(632,367,c),
(714,425,l),
(676,439,o),
(635,446,o),
(597,446,cs),
(489,446,o),
(380,395,o),
(302,321,cs),
(238,260,o),
(150,156,o),
(90,80,c),
(86,59,o),
(115,45,o),
(116,43,c),
(136,98,o),
(174,140,o),
(215,177,cs),
(265,222,o),
(326,250,o),
(418,250,cs),
(479,250,o),
(529,230,o),
(529,185,cs),
(529,138,o),
(473,66,o),
(347,66,cs),
(237,66,o),
(212,113,o),
(166,113,cs),
(151,113,o),
(129,107,o),
(115,94,c),
(119,50,ls),
(118,60,o),
(130,86,o),
(157,86,cs),
(182,86,o),
(209,-12,o),
(332,-12,cs)
);
},
{
closed = 1;
nodes = (
(265,275,l),
(284,293,o),
(327,355,o),
(327,398,cs),
(327,436,o),
(291,454,o),
(245,454,cs),
(168,454,o),
(92,399,o),
(92,328,cs),
(92,297,o),
(106,279,o),
(140,279,cs),
(156,279,o),
(173,283,o),
(181,287,c),
(175,294,o),
(161,321,o),
(163,349,cs),
(164,385,o),
(186,417,o),
(223,417,cs),
(261,417,o),
(276,395,o),
(276,362,cs),
(276,331,o),
(261,278,o),
(242,257,c)
);
},
{
pos = (485,0);
ref = sinV.virama;
}
);
width = 1086;
}
);
},
{
glyphname = sinTTh.virama;
lastChange = "2024-04-05 03:00:42 +0000";
layers = (
{
layerId = "51BB9282-3B82-4DF1-A67A-294D3E37D73A";
shapes = (
{
closed = 1;
nodes = (
(904,-18,o),
(1013,114,o),
(1013,281,cs),
(1013,498,o),
(829,639,o),
(671,639,c),
(647,574,l),
(807,574,o),
(967,457,o),
(967,295,cs),
(967,177,o),
(880,70,o),
(722,70,cs),
(618,70,o),
(535,117,o),
(535,196,cs),
(535,263,o),
(595,320,o),
(697,320,cs),
(700,320,o),
(699,320,o),
(714,318,c),
(724,333,l),
(721,352,o),
(714,370,o),
(703,386,c),
(605,387,o),
(494,297,o),
(494,172,cs),
(494,47,o),
(603,-18,o),
(726,-18,cs)
);
},
{
closed = 1;
nodes = (
(230,280,l),
(249,298,o),
(292,360,o),
(292,403,cs),
(292,441,o),
(256,459,o),
(210,459,cs),
(133,459,o),
(57,404,o),
(57,334,cs),
(57,303,o),
(71,284,o),
(105,284,cs),
(121,284,o),
(138,288,o),
(146,293,c),
(140,300,o),
(126,326,o),
(128,355,cs),
(129,390,o),
(151,423,o),
(188,423,cs),
(226,423,o),
(241,401,o),
(241,368,cs),
(241,335,o),
(226,284,o),
(207,262,c)
);
},
{
closed = 1;
nodes = (
(449,-7,o),
(524,118,o),
(524,204,cs),
(524,279,o),
(473,318,o),
(404,318,cs),
(357,318,o),
(311,300,o),
(287,285,cs),
(271,275,o),
(251,265,o),
(231,249,c),
(241,259,o),
(264,280,o),
(277,289,cs),
(341,333,o),
(401,358,o),
(514,358,cs),
(552,358,o),
(602,348,o),
(634,334,c),
(703,386,l),
(659,409,o),
(609,424,o),
(542,424,cs),
(454,424,o),
(345,400,o),
(267,327,cs),
(202,266,o),
(115,161,o),
(55,86,c),
(51,64,o),
(80,50,o),
(81,49,c),
(101,104,o),
(139,145,o),
(180,182,cs),
(230,227,o),
(291,256,o),
(383,256,cs),
(444,256,o),
(494,237,o),
(494,191,cs),
(494,142,o),
(437,71,o),
(307,71,cs),
(202,71,o),
(176,118,o),
(131,118,cs),
(116,118,o),
(94,113,o),
(80,99,c),
(84,55,ls),
(83,66,o),
(95,93,o),
(122,93,cs),
(147,93,o),
(174,-7,o),
(297,-7,cs)
);
},
{
closed = 1;
nodes = (
(852,423,o),
(911,440,o),
(935,462,c),
(927,483,l),
(906,474,o),
(872,468,o),
(836,468,cs),
(717,468,o),
(671,523,o),
(671,639,c),
(639,623,l),
(637,614,o),
(634,594,o),
(634,572,cs),
(634,477,o),
(688,423,o),
(792,423,cs)
);
},
{
pos = (972,20);
ref = sinVirama;
}
);
width = 1057;
}
);
},
{
glyphname = sinNDh.virama;
lastChange = "2024-04-05 03:00:42 +0000";
layers = (
{
layerId = "51BB9282-3B82-4DF1-A67A-294D3E37D73A";
shapes = (
{
closed = 1;
nodes = (
(409,-15,o),
(503,70,o),
(501,204,cs),
(501,269,o),
(464,307,o),
(403,307,cs),
(349,307,o),
(283,263,o),
(226,216,c),
(221,200,l),
(225,206,o),
(270,260,o),
(284,274,cs),
(334,319,o),
(429,368,o),
(528,368,cs),
(574,368,o),
(622,357,o),
(666,330,c),
(742,366,l),
(688,408,o),
(625,425,o),
(562,425,cs),
(448,425,o),
(334,368,o),
(270,299,cs),
(223,248,o),
(148,133,o),
(101,133,cs),
(84,133,o),
(76,142,o),
(76,157,cs),
(76,161,o),
(78,167,o),
(79,172,c),
(76,173,o),
(69,174,o),
(63,174,cs),
(55,174,o),
(46,173,o),
(41,171,c),
(50,84,o),
(122,-15,o),
(260,-15,cs)
);
},
{
closed = 1;
nodes = (
(179,67,o),
(121,79,o),
(93,117,c),
(90,105,l),
(185,106,o),
(216,244,o),
(376,244,cs),
(436,244,o),
(473,226,o),
(473,190,cs),
(473,108,o),
(362,67,o),
(264,67,cs)
);
},
{
closed = 1;
nodes = (
(248,252,o),
(293,322,o),
(293,360,cs),
(293,398,o),
(256,417,o),
(214,417,cs),
(135,417,o),
(57,366,o),
(57,289,cs),
(57,261,o),
(74,244,o),
(109,244,cs),
(122,244,o),
(139,247,o),
(149,252,c),
(142,261,o),
(134,281,o),
(134,308,cs),
(134,347,o),
(160,383,o),
(196,383,cs),
(225,383,o),
(247,359,o),
(247,326,cs),
(247,323,o),
(246,320,o),
(246,316,cs),
(242,285,o),
(231,256,o),
(218,240,c),
(227,232,l)
);
},
{
pos = (433,0);
ref = sinDh.virama;
}
);
width = 1089;
}
);
},
{
glyphname = sinNV.virama;
lastChange = "2024-04-05 03:00:42 +0000";
layers = (
{
layerId = "51BB9282-3B82-4DF1-A67A-294D3E37D73A";
shapes = (
{
closed = 1;
nodes = (
(418,-29,o),
(512,55,o),
(510,189,cs),
(510,254,o),
(473,293,o),
(412,293,cs),
(358,293,o),
(292,248,o),
(235,202,c),
(230,185,l),
(234,191,o),
(279,246,o),
(293,259,cs),
(352,312,o),
(464,376,o),
(562,376,c),
(599,440,l),
(478,440,o),
(347,359,o),
(279,284,cs),
(232,233,o),
(157,118,o),
(110,118,cs),
(93,118,o),
(85,127,o),
(85,142,cs),
(85,147,o),
(87,153,o),
(88,158,c),
(85,159,o),
(79,160,o),
(72,160,cs),
(64,160,o),
(55,159,o),
(50,156,c),
(59,70,o),
(131,-29,o),
(269,-29,cs)
);
},
{
closed = 1;
nodes = (
(188,53,o),
(130,64,o),
(102,102,c),
(99,91,l),
(194,91,o),
(225,230,o),
(385,230,cs),
(445,230,o),
(482,211,o),
(482,175,cs),
(482,94,o),
(371,53,o),
(273,53,cs)
);
},
{
closed = 1;
nodes = (
(296,284,o),
(342,353,o),
(342,393,cs),
(342,430,o),
(315,450,o),
(263,450,cs),
(184,450,o),
(106,399,o),
(106,321,cs),
(106,292,o),
(123,275,o),
(157,275,cs),
(171,275,o),
(188,278,o),
(198,284,c),
(191,293,o),
(183,313,o),
(183,341,cs),
(183,379,o),
(208,414,o),
(245,414,cs),
(273,414,o),
(295,391,o),
(295,358,cs),
(294,348,ls),
(291,318,o),
(279,287,o),
(267,271,c),
(275,264,l)
);
},
{
pos = (437,0);
ref = sinV.virama;
}
);
width = 1041;
}
);
metricRight = sinVa;
},
{
glyphname = sinNTh.virama;
lastChange = "2024-04-05 03:00:42 +0000";
layers = (
{
layerId = "51BB9282-3B82-4DF1-A67A-294D3E37D73A";
shapes = (
{
closed = 1;
nodes = (
(385,-15,o),
(479,70,o),
(477,204,cs),
(477,269,o),
(440,307,o),
(379,307,cs),
(325,307,o),
(259,263,o),
(202,216,c),
(197,200,l),
(201,206,o),
(266,260,o),
(281,274,cs),
(333,321,o),
(366,401,o),
(498,401,cs),
(567,401,o),
(602,372,o),
(620,318,c),
(659,386,l),
(620,434,o),
(578,467,o),
(503,467,cs),
(387,467,o),
(313,371,o),
(246,299,cs),
(199,248,o),
(124,133,o),
(77,133,cs),
(60,133,o),
(52,142,o),
(52,157,cs),
(52,161,o),
(54,167,o),
(55,172,c),
(52,173,o),
(45,174,o),
(39,174,cs),
(31,174,o),
(22,173,o),
(17,171,c),
(26,84,o),
(98,-15,o),
(236,-15,cs)
);
},
{
closed = 1;
nodes = (
(155,67,o),
(97,79,o),
(69,117,c),
(66,105,l),
(161,106,o),
(192,244,o),
(352,244,cs),
(412,244,o),
(449,226,o),
(449,190,cs),
(449,108,o),
(338,67,o),
(240,67,cs)
);
},
{
closed = 1;
nodes = (
(263,298,o),
(309,368,o),
(309,407,cs),
(309,444,o),
(282,464,o),
(230,464,cs),
(151,464,o),
(73,413,o),
(73,336,cs),
(73,307,o),
(90,290,o),
(124,290,cs),
(138,290,o),
(155,293,o),
(165,298,c),
(158,307,o),
(150,328,o),
(150,355,cs),
(150,394,o),
(175,429,o),
(212,429,cs),
(240,429,o),
(262,406,o),
(262,372,cs),
(262,369,o),
(261,366,o),
(261,362,cs),
(257,332,o),
(246,302,o),
(234,286,c),
(242,279,l)
);
},
{
pos = (404,0);
ref = sinTh.virama;
}
);
width = 1056;
}
);
},
{
glyphname = sinDV.virama;
lastChange = "2024-04-05 03:00:42 +0000";
layers = (
{
layerId = "51BB9282-3B82-4DF1-A67A-294D3E37D73A";
shapes = (
{
closed = 1;
nodes = (
(122,50,o),
(138,52,o),
(145,57,c),
(134,82,o),
(104,156,o),
(104,210,cs),
(104,304,o),
(142,397,o),
(270,404,c),
(308,443,l),
(141,443,o),
(50,339,o),
(50,226,cs),
(50,135,o),
(91,82,o),
(111,50,c)
);
},
{
pos = (134,0);
ref = sinV.virama;
}
);
width = 738;
}
);
metricRight = sinVa;
},
{
glyphname = sinDDh.virama;
lastChange = "2024-04-05 03:00:42 +0000";
layers = (
{
layerId = "51BB9282-3B82-4DF1-A67A-294D3E37D73A";
shapes = (
{
closed = 1;
nodes = (
(739,520,o),
(703,729,o),
(438,729,cs),
(345,729,o),
(272,694,o),
(272,694,c),
(259,670,o),
(256,643,o),
(255,633,c),
(277,648,o),
(308,650,o),
(335,660,c),
(357,691,l),
(343,681,o),
(307,645,o),
(275,575,c),
(316,570,l),
(334,620,o),
(378,674,o),
(411,679,c),
(389,680,o),
(366,681,o),
(340,660,c),
(340,660,o),
(353,671,o),
(417,671,cs),
(703,671,o),
(702,487,o),
(700,438,c),
(739,375,l)
);
},
{
ref = sinDDha;
}
);
width = 803;
}
);
metricRight = sinDha;
},
{
glyphname = sinKhI;
lastChange = "2024-04-05 03:00:42 +0000";
layers = (
{
layerId = "51BB9282-3B82-4DF1-A67A-294D3E37D73A";
shapes = (
{
closed = 1;
nodes = (
(566,-9,o),
(621,91,o),
(621,264,cs),
(621,410,o),
(512,523,o),
(374,523,cs),
(292,523,o),
(229,509,o),
(173,509,cs),
(144,509,o),
(125,516,o),
(125,544,cs),
(125,579,o),
(171,621,o),
(333,621,cs),
(436,621,o),
(526,603,o),
(526,554,cs),
(526,525,o),
(488,506,o),
(450,506,cs),
(441,506,o),
(433,507,o),
(425,509,c),
(456,458,l),
(460,457,o),
(463,457,o),
(467,457,cs),
(510,457,o),
(556,500,o),
(556,556,cs),
(556,630,o),
(485,695,o),
(338,695,cs),
(195,695,o),
(92,643,o),
(92,523,cs),
(92,481,o),
(113,448,o),
(177,448,cs),
(228,448,o),
(287,456,o),
(376,456,cs),
(496,456,o),
(582,381,o),
(582,273,cs),
(582,166,o),
(535,67,o),
(435,67,cs),
(418,67,o),
(373,74,o),
(364,78,c),
(342,54,l),
(356,37,o),
(386,-9,o),
(442,-9,cs)
);
},
{
closed = 1;
nodes = (
(355,-9,o),
(428,131,o),
(428,223,cs),
(428,314,o),
(368,391,o),
(263,391,cs),
(143,391,o),
(54,296,o),
(54,161,cs),
(54,80,o),
(88,-14,o),
(186,-14,cs),
(254,-14,o),
(290,32,o),
(290,90,cs),
(290,145,o),
(254,176,o),
(211,176,cs),
(161,176,o),
(134,140,o),
(134,100,cs),
(134,76,o),
(143,57,o),
(153,41,c),
(189,23,l),
(174,39,o),
(171,50,o),
(171,64,cs),
(171,111,o),
(201,121,o),
(220,121,cs),
(240,121,o),
(260,109,o),
(260,86,cs),
(260,52,o),
(221,39,o),
(194,39,cs),
(154,39,o),
(92,80,o),
(92,180,cs),
(92,271,o),
(161,319,o),
(247,319,cs),
(308,319,o),
(382,293,o),
(382,204,cs),
(382,138,o),
(329,43,o),
(285,-14,c),
(294,-29,o),
(317,-43,o),
(328,-44,c)
);
}
);
width = 653;
}
);
},
